%TF.GenerationSoftware,KiCad,Pcbnew,7.0.9*%
%TF.CreationDate,2024-05-10T01:24:36+09:00*%
%TF.ProjectId,L4,4c342e6b-6963-4616-945f-706362585858,rev?*%
%TF.SameCoordinates,Original*%
%TF.FileFunction,Soldermask,Bot*%
%TF.FilePolarity,Negative*%
%FSLAX46Y46*%
G04 Gerber Fmt 4.6, Leading zero omitted, Abs format (unit mm)*
G04 Created by KiCad (PCBNEW 7.0.9) date 2024-05-10 01:24:36*
%MOMM*%
%LPD*%
G01*
G04 APERTURE LIST*
G04 Aperture macros list*
%AMRoundRect*
0 Rectangle with rounded corners*
0 $1 Rounding radius*
0 $2 $3 $4 $5 $6 $7 $8 $9 X,Y pos of 4 corners*
0 Add a 4 corners polygon primitive as box body*
4,1,4,$2,$3,$4,$5,$6,$7,$8,$9,$2,$3,0*
0 Add four circle primitives for the rounded corners*
1,1,$1+$1,$2,$3*
1,1,$1+$1,$4,$5*
1,1,$1+$1,$6,$7*
1,1,$1+$1,$8,$9*
0 Add four rect primitives between the rounded corners*
20,1,$1+$1,$2,$3,$4,$5,0*
20,1,$1+$1,$4,$5,$6,$7,0*
20,1,$1+$1,$6,$7,$8,$9,0*
20,1,$1+$1,$8,$9,$2,$3,0*%
G04 Aperture macros list end*
%ADD10O,2.200000X1.600000*%
%ADD11C,2.400000*%
%ADD12O,2.200000X1.500000*%
%ADD13O,4.400000X1.500000*%
%ADD14C,5.000000*%
%ADD15C,2.200000*%
%ADD16C,2.000000*%
%ADD17C,1.300000*%
%ADD18O,3.000000X1.800000*%
%ADD19R,2.500000X1.250000*%
%ADD20RoundRect,0.225000X-0.375000X0.225000X-0.375000X-0.225000X0.375000X-0.225000X0.375000X0.225000X0*%
%ADD21R,5.000000X5.000000*%
%ADD22R,4.000000X4.000000*%
%ADD23RoundRect,0.250000X-0.625000X0.350000X-0.625000X-0.350000X0.625000X-0.350000X0.625000X0.350000X0*%
%ADD24O,1.750000X1.200000*%
%ADD25RoundRect,0.250000X0.625000X-0.350000X0.625000X0.350000X-0.625000X0.350000X-0.625000X-0.350000X0*%
G04 APERTURE END LIST*
D10*
%TO.C,SW8*%
X245725000Y-127725000D03*
D11*
X247015000Y-121285000D03*
D12*
X250825000Y-129725000D03*
D11*
X253365000Y-118745000D03*
D13*
X254725000Y-118275000D03*
%TD*%
D10*
%TO.C,SW39*%
X193655000Y-127725000D03*
D11*
X194945000Y-121285000D03*
D12*
X198755000Y-129725000D03*
D11*
X201295000Y-118745000D03*
D13*
X202655000Y-118275000D03*
%TD*%
D10*
%TO.C,SW3*%
X264775000Y-108675000D03*
D11*
X266065000Y-102235000D03*
D12*
X269875000Y-110675000D03*
D11*
X272415000Y-99695000D03*
D13*
X273775000Y-99225000D03*
%TD*%
D10*
%TO.C,SW29*%
X117455000Y-108675000D03*
D11*
X118745000Y-102235000D03*
D12*
X122555000Y-110675000D03*
D11*
X125095000Y-99695000D03*
D13*
X126455000Y-99225000D03*
%TD*%
D10*
%TO.C,SW32*%
X174605000Y-108675000D03*
D11*
X175895000Y-102235000D03*
D12*
X179705000Y-110675000D03*
D11*
X182245000Y-99695000D03*
D13*
X183605000Y-99225000D03*
%TD*%
D10*
%TO.C,SW48*%
X136505000Y-165825000D03*
D11*
X137795000Y-159385000D03*
D12*
X141605000Y-167825000D03*
D11*
X144145000Y-156845000D03*
D13*
X145505000Y-156375000D03*
%TD*%
D10*
%TO.C,SW47*%
X117455000Y-165825000D03*
D11*
X118745000Y-159385000D03*
D12*
X122555000Y-167825000D03*
D11*
X125095000Y-156845000D03*
D13*
X126455000Y-156375000D03*
%TD*%
D10*
%TO.C,SW20*%
X245725000Y-165825000D03*
D11*
X247015000Y-159385000D03*
D12*
X250825000Y-167825000D03*
D11*
X253365000Y-156845000D03*
D13*
X254725000Y-156375000D03*
%TD*%
D14*
%TO.C,REF\u002A\u002A*%
X89217500Y-133350000D03*
%TD*%
D15*
%TO.C,REF\u002A\u002A*%
X219075000Y-160020000D03*
%TD*%
D10*
%TO.C,SW46*%
X98405000Y-165825000D03*
D11*
X99695000Y-159385000D03*
D12*
X103505000Y-167825000D03*
D11*
X106045000Y-156845000D03*
D13*
X107405000Y-156375000D03*
%TD*%
D15*
%TO.C,REF\u002A\u002A*%
X211455000Y-106680000D03*
%TD*%
D10*
%TO.C,SW16*%
X283825000Y-146775000D03*
D11*
X285115000Y-140335000D03*
D12*
X288925000Y-148775000D03*
D11*
X291465000Y-137795000D03*
D13*
X292825000Y-137325000D03*
%TD*%
D10*
%TO.C,SW50*%
X174605000Y-165825000D03*
D11*
X175895000Y-159385000D03*
D12*
X179705000Y-167825000D03*
D11*
X182245000Y-156845000D03*
D13*
X183605000Y-156375000D03*
%TD*%
D10*
%TO.C,SW28*%
X98405000Y-108675000D03*
D11*
X99695000Y-102235000D03*
D12*
X103505000Y-110675000D03*
D11*
X106045000Y-99695000D03*
D13*
X107405000Y-99225000D03*
%TD*%
D10*
%TO.C,SW30*%
X136505000Y-108675000D03*
D11*
X137795000Y-102235000D03*
D12*
X141605000Y-110675000D03*
D11*
X144145000Y-99695000D03*
D13*
X145505000Y-99225000D03*
%TD*%
D10*
%TO.C,SW26*%
X302875000Y-189320000D03*
D11*
X304165000Y-182880000D03*
D12*
X307975000Y-191320000D03*
D11*
X310515000Y-180340000D03*
D13*
X311875000Y-179870000D03*
%TD*%
D10*
%TO.C,SW49*%
X155555000Y-165825000D03*
D11*
X156845000Y-159385000D03*
D12*
X160655000Y-167825000D03*
D11*
X163195000Y-156845000D03*
D13*
X164555000Y-156375000D03*
%TD*%
D10*
%TO.C,SW4*%
X283825000Y-108675000D03*
D11*
X285115000Y-102235000D03*
D12*
X288925000Y-110675000D03*
D11*
X291465000Y-99695000D03*
D13*
X292825000Y-99225000D03*
%TD*%
D10*
%TO.C,SW11*%
X302875000Y-127725000D03*
D11*
X304165000Y-121285000D03*
D12*
X307975000Y-129725000D03*
D11*
X310515000Y-118745000D03*
D13*
X311875000Y-118275000D03*
%TD*%
D10*
%TO.C,SW31*%
X155555000Y-108675000D03*
D11*
X156845000Y-102235000D03*
D12*
X160655000Y-110675000D03*
D11*
X163195000Y-99695000D03*
D13*
X164555000Y-99225000D03*
%TD*%
D10*
%TO.C,SW25*%
X283825000Y-189320000D03*
D11*
X285115000Y-182880000D03*
D12*
X288925000Y-191320000D03*
D11*
X291465000Y-180340000D03*
D13*
X292825000Y-179870000D03*
%TD*%
D10*
%TO.C,SW38*%
X174605000Y-127725000D03*
D11*
X175895000Y-121285000D03*
D12*
X179705000Y-129725000D03*
D11*
X182245000Y-118745000D03*
D13*
X183605000Y-118275000D03*
%TD*%
D10*
%TO.C,SW33*%
X193655000Y-108675000D03*
D11*
X194945000Y-102235000D03*
D12*
X198755000Y-110675000D03*
D11*
X201295000Y-99695000D03*
D13*
X202655000Y-99225000D03*
%TD*%
D10*
%TO.C,SW2*%
X245725000Y-108675000D03*
D11*
X247015000Y-102235000D03*
D12*
X250825000Y-110675000D03*
D11*
X253365000Y-99695000D03*
D13*
X254725000Y-99225000D03*
%TD*%
D16*
%TO.C,SW27*%
X321290176Y-183937590D03*
X329987590Y-175240176D03*
D17*
X327583427Y-175876572D03*
X326169213Y-177290786D03*
X324755000Y-178705000D03*
X321926572Y-181533427D03*
X329351194Y-177644339D03*
X327936980Y-179058553D03*
X326522766Y-180472766D03*
X323694339Y-183301194D03*
%TD*%
D10*
%TO.C,SW17*%
X302875000Y-146775000D03*
D11*
X304165000Y-140335000D03*
D12*
X307975000Y-148775000D03*
D11*
X310515000Y-137795000D03*
D13*
X311875000Y-137325000D03*
%TD*%
D10*
%TO.C,SW52*%
X117455000Y-189320000D03*
D11*
X118745000Y-182880000D03*
D12*
X122555000Y-191320000D03*
D11*
X125095000Y-180340000D03*
D13*
X126455000Y-179870000D03*
%TD*%
D10*
%TO.C,SW53*%
X136505000Y-189320000D03*
D11*
X137795000Y-182880000D03*
D12*
X141605000Y-191320000D03*
D11*
X144145000Y-180340000D03*
D13*
X145505000Y-179870000D03*
%TD*%
D10*
%TO.C,SW7*%
X226675000Y-127725000D03*
D11*
X227965000Y-121285000D03*
D12*
X231775000Y-129725000D03*
D11*
X234315000Y-118745000D03*
D13*
X235675000Y-118275000D03*
%TD*%
D15*
%TO.C,REF\u002A\u002A*%
X219075000Y-106680000D03*
%TD*%
D10*
%TO.C,SW1*%
X226675000Y-108675000D03*
D11*
X227965000Y-102235000D03*
D12*
X231775000Y-110675000D03*
D11*
X234315000Y-99695000D03*
D13*
X235675000Y-99225000D03*
%TD*%
D10*
%TO.C,SW5*%
X302875000Y-108675000D03*
D11*
X304165000Y-102235000D03*
D12*
X307975000Y-110675000D03*
D11*
X310515000Y-99695000D03*
D13*
X311875000Y-99225000D03*
%TD*%
D10*
%TO.C,SW34*%
X98405000Y-127725000D03*
D11*
X99695000Y-121285000D03*
D12*
X103505000Y-129725000D03*
D11*
X106045000Y-118745000D03*
D13*
X107405000Y-118275000D03*
%TD*%
D10*
%TO.C,SW40*%
X98405000Y-146775000D03*
D11*
X99695000Y-140335000D03*
D12*
X103505000Y-148775000D03*
D11*
X106045000Y-137795000D03*
D13*
X107405000Y-137325000D03*
%TD*%
D10*
%TO.C,SW21*%
X264775000Y-165825000D03*
D11*
X266065000Y-159385000D03*
D12*
X269875000Y-167825000D03*
D11*
X272415000Y-156845000D03*
D13*
X273775000Y-156375000D03*
%TD*%
D10*
%TO.C,SW14*%
X245725000Y-146775000D03*
D11*
X247015000Y-140335000D03*
D12*
X250825000Y-148775000D03*
D11*
X253365000Y-137795000D03*
D13*
X254725000Y-137325000D03*
%TD*%
D10*
%TO.C,SW13*%
X226675000Y-146775000D03*
D11*
X227965000Y-140335000D03*
D12*
X231775000Y-148775000D03*
D11*
X234315000Y-137795000D03*
D13*
X235675000Y-137325000D03*
%TD*%
D16*
%TO.C,SW54*%
X100542410Y-175240176D03*
X109239824Y-183937590D03*
D17*
X108603428Y-181533427D03*
X107189214Y-180119213D03*
X105775000Y-178705000D03*
X102946573Y-175876572D03*
X106835661Y-183301194D03*
X105421447Y-181886980D03*
X104007234Y-180472766D03*
X101178806Y-177644339D03*
%TD*%
D15*
%TO.C,REF\u002A\u002A*%
X339725000Y-160020000D03*
%TD*%
D10*
%TO.C,SW35*%
X117455000Y-127725000D03*
D11*
X118745000Y-121285000D03*
D12*
X122555000Y-129725000D03*
D11*
X125095000Y-118745000D03*
D13*
X126455000Y-118275000D03*
%TD*%
D10*
%TO.C,SW12*%
X321925000Y-127725000D03*
D11*
X323215000Y-121285000D03*
D12*
X327025000Y-129725000D03*
D11*
X329565000Y-118745000D03*
D13*
X330925000Y-118275000D03*
%TD*%
D10*
%TO.C,SW15*%
X264775000Y-146775000D03*
D11*
X266065000Y-140335000D03*
D12*
X269875000Y-148775000D03*
D11*
X272415000Y-137795000D03*
D13*
X273775000Y-137325000D03*
%TD*%
D10*
%TO.C,SW24*%
X321925000Y-165825000D03*
D11*
X323215000Y-159385000D03*
D12*
X327025000Y-167825000D03*
D11*
X329565000Y-156845000D03*
D13*
X330925000Y-156375000D03*
%TD*%
D10*
%TO.C,SW22*%
X283825000Y-165825000D03*
D11*
X285115000Y-159385000D03*
D12*
X288925000Y-167825000D03*
D11*
X291465000Y-156845000D03*
D13*
X292825000Y-156375000D03*
%TD*%
D10*
%TO.C,SW23*%
X302875000Y-165825000D03*
D11*
X304165000Y-159385000D03*
D12*
X307975000Y-167825000D03*
D11*
X310515000Y-156845000D03*
D13*
X311875000Y-156375000D03*
%TD*%
D15*
%TO.C,REF\u002A\u002A*%
X90805000Y-106680000D03*
%TD*%
%TO.C,REF\u002A\u002A*%
X90805000Y-160020000D03*
%TD*%
D10*
%TO.C,SW37*%
X155555000Y-127725000D03*
D11*
X156845000Y-121285000D03*
D12*
X160655000Y-129725000D03*
D11*
X163195000Y-118745000D03*
D13*
X164555000Y-118275000D03*
%TD*%
D10*
%TO.C,SW10*%
X283825000Y-127725000D03*
D11*
X285115000Y-121285000D03*
D12*
X288925000Y-129725000D03*
D11*
X291465000Y-118745000D03*
D13*
X292825000Y-118275000D03*
%TD*%
D15*
%TO.C,REF\u002A\u002A*%
X211455000Y-160020000D03*
%TD*%
D10*
%TO.C,SW9*%
X264775000Y-127725000D03*
D11*
X266065000Y-121285000D03*
D12*
X269875000Y-129725000D03*
D11*
X272415000Y-118745000D03*
D13*
X273775000Y-118275000D03*
%TD*%
D10*
%TO.C,SW43*%
X155555000Y-146775000D03*
D11*
X156845000Y-140335000D03*
D12*
X160655000Y-148775000D03*
D11*
X163195000Y-137795000D03*
D13*
X164555000Y-137325000D03*
%TD*%
D10*
%TO.C,SW18*%
X321925000Y-146775000D03*
D11*
X323215000Y-140335000D03*
D12*
X327025000Y-148775000D03*
D11*
X329565000Y-137795000D03*
D13*
X330925000Y-137325000D03*
%TD*%
D10*
%TO.C,SW44*%
X174605000Y-146775000D03*
D11*
X175895000Y-140335000D03*
D12*
X179705000Y-148775000D03*
D11*
X182245000Y-137795000D03*
D13*
X183605000Y-137325000D03*
%TD*%
D10*
%TO.C,SW36*%
X136505000Y-127725000D03*
D11*
X137795000Y-121285000D03*
D12*
X141605000Y-129725000D03*
D11*
X144145000Y-118745000D03*
D13*
X145505000Y-118275000D03*
%TD*%
D15*
%TO.C,REF\u002A\u002A*%
X339725000Y-106680000D03*
%TD*%
D14*
%TO.C,REF\u002A\u002A*%
X341312500Y-133350000D03*
%TD*%
D10*
%TO.C,SW6*%
X321925000Y-108675000D03*
D11*
X323215000Y-102235000D03*
D12*
X327025000Y-110675000D03*
D11*
X329565000Y-99695000D03*
D13*
X330925000Y-99225000D03*
%TD*%
D10*
%TO.C,SW51*%
X193655000Y-165825000D03*
D11*
X194945000Y-159385000D03*
D12*
X198755000Y-167825000D03*
D11*
X201295000Y-156845000D03*
D13*
X202655000Y-156375000D03*
%TD*%
D10*
%TO.C,SW41*%
X117455000Y-146775000D03*
D11*
X118745000Y-140335000D03*
D12*
X122555000Y-148775000D03*
D11*
X125095000Y-137795000D03*
D13*
X126455000Y-137325000D03*
%TD*%
D18*
%TO.C,U2*%
X65635000Y-97912000D03*
X65635000Y-100452000D03*
X65635000Y-102992000D03*
X65635000Y-105532000D03*
X65635000Y-108072000D03*
X65635000Y-110612000D03*
X65635000Y-113152000D03*
X82075000Y-113152000D03*
X82075000Y-110612000D03*
X82075000Y-108072000D03*
X82075000Y-105532000D03*
X82075000Y-102992000D03*
X82075000Y-100452000D03*
X82075000Y-97912000D03*
D19*
X69410000Y-103310000D03*
X69410000Y-105215000D03*
%TD*%
D10*
%TO.C,SW42*%
X136505000Y-146775000D03*
D11*
X137795000Y-140335000D03*
D12*
X141605000Y-148775000D03*
D11*
X144145000Y-137795000D03*
D13*
X145505000Y-137325000D03*
%TD*%
D10*
%TO.C,SW45*%
X193655000Y-146775000D03*
D11*
X194945000Y-140335000D03*
D12*
X198755000Y-148775000D03*
D11*
X201295000Y-137795000D03*
D13*
X202655000Y-137325000D03*
%TD*%
D18*
%TO.C,U1*%
X348455000Y-97912000D03*
X348455000Y-100452000D03*
X348455000Y-102992000D03*
X348455000Y-105532000D03*
X348455000Y-108072000D03*
X348455000Y-110612000D03*
X348455000Y-113152000D03*
X364895000Y-113152000D03*
X364895000Y-110612000D03*
X364895000Y-108072000D03*
X364895000Y-105532000D03*
X364895000Y-102992000D03*
X364895000Y-100452000D03*
X364895000Y-97912000D03*
D19*
X352230000Y-103310000D03*
X352230000Y-105215000D03*
%TD*%
D10*
%TO.C,SW19*%
X226675000Y-165825000D03*
D11*
X227965000Y-159385000D03*
D12*
X231775000Y-167825000D03*
D11*
X234315000Y-156845000D03*
D13*
X235675000Y-156375000D03*
%TD*%
D20*
%TO.C,D41*%
X111330000Y-147400000D03*
X111330000Y-150700000D03*
%TD*%
%TO.C,D50*%
X168480000Y-166450000D03*
X168480000Y-169750000D03*
%TD*%
%TO.C,D36*%
X130380000Y-128350000D03*
X130380000Y-131650000D03*
%TD*%
%TO.C,D18*%
X334850000Y-147400000D03*
X334850000Y-150700000D03*
%TD*%
%TO.C,D12*%
X334850000Y-128350000D03*
X334850000Y-131650000D03*
%TD*%
%TO.C,D52*%
X206580000Y-166450000D03*
X206580000Y-169750000D03*
%TD*%
%TO.C,D31*%
X149430000Y-109300000D03*
X149430000Y-112600000D03*
%TD*%
%TO.C,D37*%
X149430000Y-128350000D03*
X149430000Y-131650000D03*
%TD*%
%TO.C,D2*%
X258650000Y-109300000D03*
X258650000Y-112600000D03*
%TD*%
%TO.C,D49*%
X149430000Y-166450000D03*
X149430000Y-169750000D03*
%TD*%
%TO.C,D38*%
X168480000Y-128350000D03*
X168480000Y-131650000D03*
%TD*%
%TO.C,D21*%
X277700000Y-166450000D03*
X277700000Y-169750000D03*
%TD*%
%TO.C,D30*%
X130380000Y-109300000D03*
X130380000Y-112600000D03*
%TD*%
%TO.C,D39*%
X187530000Y-128350000D03*
X187530000Y-131650000D03*
%TD*%
%TO.C,D11*%
X315800000Y-125825000D03*
X315800000Y-129125000D03*
%TD*%
%TO.C,D15*%
X277700000Y-147400000D03*
X277700000Y-150700000D03*
%TD*%
%TO.C,D33*%
X187530000Y-109300000D03*
X187530000Y-112600000D03*
%TD*%
%TO.C,D44*%
X168480000Y-147400000D03*
X168480000Y-150700000D03*
%TD*%
D21*
%TO.C,BT1*%
X358675000Y-120025000D03*
X358675000Y-145925000D03*
D22*
X358675000Y-132975000D03*
%TD*%
D20*
%TO.C,D53*%
X130380000Y-189945000D03*
X130380000Y-193245000D03*
%TD*%
%TO.C,D43*%
X149430000Y-147400000D03*
X149430000Y-150700000D03*
%TD*%
%TO.C,D4*%
X296750000Y-109300000D03*
X296750000Y-112600000D03*
%TD*%
%TO.C,D35*%
X111330000Y-125325000D03*
X111330000Y-128625000D03*
%TD*%
%TO.C,D29*%
X111330000Y-109300000D03*
X111330000Y-112600000D03*
%TD*%
%TO.C,D22*%
X296750000Y-166450000D03*
X296750000Y-169750000D03*
%TD*%
%TO.C,D6*%
X334850000Y-109300000D03*
X334850000Y-112600000D03*
%TD*%
%TO.C,D25*%
X296750000Y-189945000D03*
X296750000Y-193245000D03*
%TD*%
%TO.C,D10*%
X296750000Y-128350000D03*
X296750000Y-131650000D03*
%TD*%
%TO.C,D45*%
X187530000Y-147400000D03*
X187530000Y-150700000D03*
%TD*%
%TO.C,D42*%
X130380000Y-147400000D03*
X130380000Y-150700000D03*
%TD*%
%TO.C,D34*%
X206580000Y-109300000D03*
X206580000Y-112600000D03*
%TD*%
%TO.C,D16*%
X296750000Y-147400000D03*
X296750000Y-150700000D03*
%TD*%
%TO.C,D1*%
X239600000Y-109300000D03*
X239600000Y-112600000D03*
%TD*%
%TO.C,D20*%
X258650000Y-166450000D03*
X258650000Y-169750000D03*
%TD*%
D23*
%TO.C,J2*%
X111755000Y-132375000D03*
D24*
X111755000Y-134375000D03*
%TD*%
D20*
%TO.C,D14*%
X258650000Y-147400000D03*
X258650000Y-150700000D03*
%TD*%
%TO.C,D51*%
X187530000Y-166450000D03*
X187530000Y-169750000D03*
%TD*%
%TO.C,D40*%
X206580000Y-128350000D03*
X206580000Y-131650000D03*
%TD*%
%TO.C,D26*%
X315800000Y-189945000D03*
X315800000Y-193245000D03*
%TD*%
%TO.C,D24*%
X329850000Y-166450000D03*
X329850000Y-169750000D03*
%TD*%
%TO.C,D48*%
X130380000Y-166450000D03*
X130380000Y-169750000D03*
%TD*%
D25*
%TO.C,J1*%
X322675000Y-134375000D03*
D24*
X322675000Y-132375000D03*
%TD*%
D20*
%TO.C,D19*%
X239600000Y-166450000D03*
X239600000Y-169750000D03*
%TD*%
%TO.C,D7*%
X239600000Y-128350000D03*
X239600000Y-131650000D03*
%TD*%
D21*
%TO.C,BT3*%
X71855000Y-120025000D03*
X71855000Y-145925000D03*
D22*
X71855000Y-132975000D03*
%TD*%
D20*
%TO.C,D54*%
X149430000Y-189945000D03*
X149430000Y-193245000D03*
%TD*%
%TO.C,D23*%
X315800000Y-166450000D03*
X315800000Y-169750000D03*
%TD*%
%TO.C,D32*%
X168480000Y-109300000D03*
X168480000Y-112600000D03*
%TD*%
%TO.C,D9*%
X277700000Y-128350000D03*
X277700000Y-131650000D03*
%TD*%
%TO.C,D3*%
X277700000Y-109300000D03*
X277700000Y-112600000D03*
%TD*%
%TO.C,D8*%
X258650000Y-128350000D03*
X258650000Y-131650000D03*
%TD*%
%TO.C,D46*%
X206580000Y-147400000D03*
X206580000Y-150700000D03*
%TD*%
%TO.C,D47*%
X111330000Y-166450000D03*
X111330000Y-169750000D03*
%TD*%
%TO.C,D17*%
X315800000Y-147400000D03*
X315800000Y-150700000D03*
%TD*%
%TO.C,D5*%
X315800000Y-109300000D03*
X315800000Y-112600000D03*
%TD*%
%TO.C,D13*%
X239600000Y-147400000D03*
X239600000Y-150700000D03*
%TD*%
M02*
