%TF.GenerationSoftware,KiCad,Pcbnew,7.0.9*%
%TF.CreationDate,2024-05-08T21:34:52+09:00*%
%TF.ProjectId,L4,4c342e6b-6963-4616-945f-706362585858,rev?*%
%TF.SameCoordinates,Original*%
%TF.FileFunction,Legend,Bot*%
%TF.FilePolarity,Positive*%
%FSLAX46Y46*%
G04 Gerber Fmt 4.6, Leading zero omitted, Abs format (unit mm)*
G04 Created by KiCad (PCBNEW 7.0.9) date 2024-05-08 21:34:52*
%MOMM*%
%LPD*%
G01*
G04 APERTURE LIST*
%ADD10C,0.100000*%
%ADD11C,0.153000*%
%ADD12C,0.120000*%
G04 APERTURE END LIST*
D10*
X214630000Y-122555000D02*
X214630000Y-125730000D01*
X215900000Y-111125000D02*
X215900000Y-106680000D01*
X215900000Y-122555000D02*
X215900000Y-125730000D01*
X214630000Y-140970000D02*
X214630000Y-160020000D01*
X215900000Y-140970000D02*
X215900000Y-160020000D01*
X214630000Y-106680000D02*
X214630000Y-111760000D01*
D11*
X214769663Y-112384466D02*
X215483948Y-112384466D01*
X215483948Y-112384466D02*
X215626805Y-112336847D01*
X215626805Y-112336847D02*
X215722044Y-112241609D01*
X215722044Y-112241609D02*
X215769663Y-112098752D01*
X215769663Y-112098752D02*
X215769663Y-112003514D01*
X215769663Y-113336847D02*
X215769663Y-112860657D01*
X215769663Y-112860657D02*
X214769663Y-112860657D01*
X215674424Y-114241609D02*
X215722044Y-114193990D01*
X215722044Y-114193990D02*
X215769663Y-114051133D01*
X215769663Y-114051133D02*
X215769663Y-113955895D01*
X215769663Y-113955895D02*
X215722044Y-113813038D01*
X215722044Y-113813038D02*
X215626805Y-113717800D01*
X215626805Y-113717800D02*
X215531567Y-113670181D01*
X215531567Y-113670181D02*
X215341091Y-113622562D01*
X215341091Y-113622562D02*
X215198234Y-113622562D01*
X215198234Y-113622562D02*
X215007758Y-113670181D01*
X215007758Y-113670181D02*
X214912520Y-113717800D01*
X214912520Y-113717800D02*
X214817282Y-113813038D01*
X214817282Y-113813038D02*
X214769663Y-113955895D01*
X214769663Y-113955895D02*
X214769663Y-114051133D01*
X214769663Y-114051133D02*
X214817282Y-114193990D01*
X214817282Y-114193990D02*
X214864901Y-114241609D01*
X214769663Y-114955895D02*
X215483948Y-114955895D01*
X215483948Y-114955895D02*
X215626805Y-114908276D01*
X215626805Y-114908276D02*
X215722044Y-114813038D01*
X215722044Y-114813038D02*
X215769663Y-114670181D01*
X215769663Y-114670181D02*
X215769663Y-114574943D01*
X215769663Y-115908276D02*
X215769663Y-115432086D01*
X215769663Y-115432086D02*
X214769663Y-115432086D01*
X215674424Y-116813038D02*
X215722044Y-116765419D01*
X215722044Y-116765419D02*
X215769663Y-116622562D01*
X215769663Y-116622562D02*
X215769663Y-116527324D01*
X215769663Y-116527324D02*
X215722044Y-116384467D01*
X215722044Y-116384467D02*
X215626805Y-116289229D01*
X215626805Y-116289229D02*
X215531567Y-116241610D01*
X215531567Y-116241610D02*
X215341091Y-116193991D01*
X215341091Y-116193991D02*
X215198234Y-116193991D01*
X215198234Y-116193991D02*
X215007758Y-116241610D01*
X215007758Y-116241610D02*
X214912520Y-116289229D01*
X214912520Y-116289229D02*
X214817282Y-116384467D01*
X214817282Y-116384467D02*
X214769663Y-116527324D01*
X214769663Y-116527324D02*
X214769663Y-116622562D01*
X214769663Y-116622562D02*
X214817282Y-116765419D01*
X214817282Y-116765419D02*
X214864901Y-116813038D01*
X214769663Y-117527324D02*
X215483948Y-117527324D01*
X215483948Y-117527324D02*
X215626805Y-117479705D01*
X215626805Y-117479705D02*
X215722044Y-117384467D01*
X215722044Y-117384467D02*
X215769663Y-117241610D01*
X215769663Y-117241610D02*
X215769663Y-117146372D01*
X215769663Y-118479705D02*
X215769663Y-118003515D01*
X215769663Y-118003515D02*
X214769663Y-118003515D01*
X215674424Y-119384467D02*
X215722044Y-119336848D01*
X215722044Y-119336848D02*
X215769663Y-119193991D01*
X215769663Y-119193991D02*
X215769663Y-119098753D01*
X215769663Y-119098753D02*
X215722044Y-118955896D01*
X215722044Y-118955896D02*
X215626805Y-118860658D01*
X215626805Y-118860658D02*
X215531567Y-118813039D01*
X215531567Y-118813039D02*
X215341091Y-118765420D01*
X215341091Y-118765420D02*
X215198234Y-118765420D01*
X215198234Y-118765420D02*
X215007758Y-118813039D01*
X215007758Y-118813039D02*
X214912520Y-118860658D01*
X214912520Y-118860658D02*
X214817282Y-118955896D01*
X214817282Y-118955896D02*
X214769663Y-119098753D01*
X214769663Y-119098753D02*
X214769663Y-119193991D01*
X214769663Y-119193991D02*
X214817282Y-119336848D01*
X214817282Y-119336848D02*
X214864901Y-119384467D01*
X214769663Y-120098753D02*
X215483948Y-120098753D01*
X215483948Y-120098753D02*
X215626805Y-120051134D01*
X215626805Y-120051134D02*
X215722044Y-119955896D01*
X215722044Y-119955896D02*
X215769663Y-119813039D01*
X215769663Y-119813039D02*
X215769663Y-119717801D01*
X215769663Y-121051134D02*
X215769663Y-120574944D01*
X215769663Y-120574944D02*
X214769663Y-120574944D01*
X215674424Y-121955896D02*
X215722044Y-121908277D01*
X215722044Y-121908277D02*
X215769663Y-121765420D01*
X215769663Y-121765420D02*
X215769663Y-121670182D01*
X215769663Y-121670182D02*
X215722044Y-121527325D01*
X215722044Y-121527325D02*
X215626805Y-121432087D01*
X215626805Y-121432087D02*
X215531567Y-121384468D01*
X215531567Y-121384468D02*
X215341091Y-121336849D01*
X215341091Y-121336849D02*
X215198234Y-121336849D01*
X215198234Y-121336849D02*
X215007758Y-121384468D01*
X215007758Y-121384468D02*
X214912520Y-121432087D01*
X214912520Y-121432087D02*
X214817282Y-121527325D01*
X214817282Y-121527325D02*
X214769663Y-121670182D01*
X214769663Y-121670182D02*
X214769663Y-121765420D01*
X214769663Y-121765420D02*
X214817282Y-121908277D01*
X214817282Y-121908277D02*
X214864901Y-121955896D01*
X307636247Y-175714663D02*
X307636247Y-174714663D01*
X307636247Y-174714663D02*
X307398152Y-174714663D01*
X307398152Y-174714663D02*
X307255295Y-174762282D01*
X307255295Y-174762282D02*
X307160057Y-174857520D01*
X307160057Y-174857520D02*
X307112438Y-174952758D01*
X307112438Y-174952758D02*
X307064819Y-175143234D01*
X307064819Y-175143234D02*
X307064819Y-175286091D01*
X307064819Y-175286091D02*
X307112438Y-175476567D01*
X307112438Y-175476567D02*
X307160057Y-175571805D01*
X307160057Y-175571805D02*
X307255295Y-175667044D01*
X307255295Y-175667044D02*
X307398152Y-175714663D01*
X307398152Y-175714663D02*
X307636247Y-175714663D01*
X306255295Y-175667044D02*
X306350533Y-175714663D01*
X306350533Y-175714663D02*
X306541009Y-175714663D01*
X306541009Y-175714663D02*
X306636247Y-175667044D01*
X306636247Y-175667044D02*
X306683866Y-175571805D01*
X306683866Y-175571805D02*
X306683866Y-175190853D01*
X306683866Y-175190853D02*
X306636247Y-175095615D01*
X306636247Y-175095615D02*
X306541009Y-175047996D01*
X306541009Y-175047996D02*
X306350533Y-175047996D01*
X306350533Y-175047996D02*
X306255295Y-175095615D01*
X306255295Y-175095615D02*
X306207676Y-175190853D01*
X306207676Y-175190853D02*
X306207676Y-175286091D01*
X306207676Y-175286091D02*
X306683866Y-175381329D01*
X305826723Y-175667044D02*
X305731485Y-175714663D01*
X305731485Y-175714663D02*
X305541009Y-175714663D01*
X305541009Y-175714663D02*
X305445771Y-175667044D01*
X305445771Y-175667044D02*
X305398152Y-175571805D01*
X305398152Y-175571805D02*
X305398152Y-175524186D01*
X305398152Y-175524186D02*
X305445771Y-175428948D01*
X305445771Y-175428948D02*
X305541009Y-175381329D01*
X305541009Y-175381329D02*
X305683866Y-175381329D01*
X305683866Y-175381329D02*
X305779104Y-175333710D01*
X305779104Y-175333710D02*
X305826723Y-175238472D01*
X305826723Y-175238472D02*
X305826723Y-175190853D01*
X305826723Y-175190853D02*
X305779104Y-175095615D01*
X305779104Y-175095615D02*
X305683866Y-175047996D01*
X305683866Y-175047996D02*
X305541009Y-175047996D01*
X305541009Y-175047996D02*
X305445771Y-175095615D01*
X304969580Y-175714663D02*
X304969580Y-175047996D01*
X304969580Y-174714663D02*
X305017199Y-174762282D01*
X305017199Y-174762282D02*
X304969580Y-174809901D01*
X304969580Y-174809901D02*
X304921961Y-174762282D01*
X304921961Y-174762282D02*
X304969580Y-174714663D01*
X304969580Y-174714663D02*
X304969580Y-174809901D01*
X304064819Y-175047996D02*
X304064819Y-175857520D01*
X304064819Y-175857520D02*
X304112438Y-175952758D01*
X304112438Y-175952758D02*
X304160057Y-176000377D01*
X304160057Y-176000377D02*
X304255295Y-176047996D01*
X304255295Y-176047996D02*
X304398152Y-176047996D01*
X304398152Y-176047996D02*
X304493390Y-176000377D01*
X304064819Y-175667044D02*
X304160057Y-175714663D01*
X304160057Y-175714663D02*
X304350533Y-175714663D01*
X304350533Y-175714663D02*
X304445771Y-175667044D01*
X304445771Y-175667044D02*
X304493390Y-175619424D01*
X304493390Y-175619424D02*
X304541009Y-175524186D01*
X304541009Y-175524186D02*
X304541009Y-175238472D01*
X304541009Y-175238472D02*
X304493390Y-175143234D01*
X304493390Y-175143234D02*
X304445771Y-175095615D01*
X304445771Y-175095615D02*
X304350533Y-175047996D01*
X304350533Y-175047996D02*
X304160057Y-175047996D01*
X304160057Y-175047996D02*
X304064819Y-175095615D01*
X303588628Y-175047996D02*
X303588628Y-175714663D01*
X303588628Y-175143234D02*
X303541009Y-175095615D01*
X303541009Y-175095615D02*
X303445771Y-175047996D01*
X303445771Y-175047996D02*
X303302914Y-175047996D01*
X303302914Y-175047996D02*
X303207676Y-175095615D01*
X303207676Y-175095615D02*
X303160057Y-175190853D01*
X303160057Y-175190853D02*
X303160057Y-175714663D01*
X302302914Y-175667044D02*
X302398152Y-175714663D01*
X302398152Y-175714663D02*
X302588628Y-175714663D01*
X302588628Y-175714663D02*
X302683866Y-175667044D01*
X302683866Y-175667044D02*
X302731485Y-175571805D01*
X302731485Y-175571805D02*
X302731485Y-175190853D01*
X302731485Y-175190853D02*
X302683866Y-175095615D01*
X302683866Y-175095615D02*
X302588628Y-175047996D01*
X302588628Y-175047996D02*
X302398152Y-175047996D01*
X302398152Y-175047996D02*
X302302914Y-175095615D01*
X302302914Y-175095615D02*
X302255295Y-175190853D01*
X302255295Y-175190853D02*
X302255295Y-175286091D01*
X302255295Y-175286091D02*
X302731485Y-175381329D01*
X301398152Y-175714663D02*
X301398152Y-174714663D01*
X301398152Y-175667044D02*
X301493390Y-175714663D01*
X301493390Y-175714663D02*
X301683866Y-175714663D01*
X301683866Y-175714663D02*
X301779104Y-175667044D01*
X301779104Y-175667044D02*
X301826723Y-175619424D01*
X301826723Y-175619424D02*
X301874342Y-175524186D01*
X301874342Y-175524186D02*
X301874342Y-175238472D01*
X301874342Y-175238472D02*
X301826723Y-175143234D01*
X301826723Y-175143234D02*
X301779104Y-175095615D01*
X301779104Y-175095615D02*
X301683866Y-175047996D01*
X301683866Y-175047996D02*
X301493390Y-175047996D01*
X301493390Y-175047996D02*
X301398152Y-175095615D01*
X300160056Y-175714663D02*
X300160056Y-174714663D01*
X300160056Y-175095615D02*
X300064818Y-175047996D01*
X300064818Y-175047996D02*
X299874342Y-175047996D01*
X299874342Y-175047996D02*
X299779104Y-175095615D01*
X299779104Y-175095615D02*
X299731485Y-175143234D01*
X299731485Y-175143234D02*
X299683866Y-175238472D01*
X299683866Y-175238472D02*
X299683866Y-175524186D01*
X299683866Y-175524186D02*
X299731485Y-175619424D01*
X299731485Y-175619424D02*
X299779104Y-175667044D01*
X299779104Y-175667044D02*
X299874342Y-175714663D01*
X299874342Y-175714663D02*
X300064818Y-175714663D01*
X300064818Y-175714663D02*
X300160056Y-175667044D01*
X299350532Y-175047996D02*
X299112437Y-175714663D01*
X298874342Y-175047996D02*
X299112437Y-175714663D01*
X299112437Y-175714663D02*
X299207675Y-175952758D01*
X299207675Y-175952758D02*
X299255294Y-176000377D01*
X299255294Y-176000377D02*
X299350532Y-176047996D01*
X297588627Y-175714663D02*
X297683865Y-175667044D01*
X297683865Y-175667044D02*
X297731484Y-175619424D01*
X297731484Y-175619424D02*
X297779103Y-175524186D01*
X297779103Y-175524186D02*
X297779103Y-175238472D01*
X297779103Y-175238472D02*
X297731484Y-175143234D01*
X297731484Y-175143234D02*
X297683865Y-175095615D01*
X297683865Y-175095615D02*
X297588627Y-175047996D01*
X297588627Y-175047996D02*
X297445770Y-175047996D01*
X297445770Y-175047996D02*
X297350532Y-175095615D01*
X297350532Y-175095615D02*
X297302913Y-175143234D01*
X297302913Y-175143234D02*
X297255294Y-175238472D01*
X297255294Y-175238472D02*
X297255294Y-175524186D01*
X297255294Y-175524186D02*
X297302913Y-175619424D01*
X297302913Y-175619424D02*
X297350532Y-175667044D01*
X297350532Y-175667044D02*
X297445770Y-175714663D01*
X297445770Y-175714663D02*
X297588627Y-175714663D01*
X296826722Y-175714663D02*
X296826722Y-174714663D01*
X296826722Y-175095615D02*
X296731484Y-175047996D01*
X296731484Y-175047996D02*
X296541008Y-175047996D01*
X296541008Y-175047996D02*
X296445770Y-175095615D01*
X296445770Y-175095615D02*
X296398151Y-175143234D01*
X296398151Y-175143234D02*
X296350532Y-175238472D01*
X296350532Y-175238472D02*
X296350532Y-175524186D01*
X296350532Y-175524186D02*
X296398151Y-175619424D01*
X296398151Y-175619424D02*
X296445770Y-175667044D01*
X296445770Y-175667044D02*
X296541008Y-175714663D01*
X296541008Y-175714663D02*
X296731484Y-175714663D01*
X296731484Y-175714663D02*
X296826722Y-175667044D01*
X295921960Y-175047996D02*
X295921960Y-175905139D01*
X295921960Y-175905139D02*
X295969579Y-176000377D01*
X295969579Y-176000377D02*
X296064817Y-176047996D01*
X296064817Y-176047996D02*
X296112436Y-176047996D01*
X295921960Y-174714663D02*
X295969579Y-174762282D01*
X295969579Y-174762282D02*
X295921960Y-174809901D01*
X295921960Y-174809901D02*
X295874341Y-174762282D01*
X295874341Y-174762282D02*
X295921960Y-174714663D01*
X295921960Y-174714663D02*
X295921960Y-174809901D01*
X295064818Y-175667044D02*
X295160056Y-175714663D01*
X295160056Y-175714663D02*
X295350532Y-175714663D01*
X295350532Y-175714663D02*
X295445770Y-175667044D01*
X295445770Y-175667044D02*
X295493389Y-175571805D01*
X295493389Y-175571805D02*
X295493389Y-175190853D01*
X295493389Y-175190853D02*
X295445770Y-175095615D01*
X295445770Y-175095615D02*
X295350532Y-175047996D01*
X295350532Y-175047996D02*
X295160056Y-175047996D01*
X295160056Y-175047996D02*
X295064818Y-175095615D01*
X295064818Y-175095615D02*
X295017199Y-175190853D01*
X295017199Y-175190853D02*
X295017199Y-175286091D01*
X295017199Y-175286091D02*
X295493389Y-175381329D01*
X294160056Y-175667044D02*
X294255294Y-175714663D01*
X294255294Y-175714663D02*
X294445770Y-175714663D01*
X294445770Y-175714663D02*
X294541008Y-175667044D01*
X294541008Y-175667044D02*
X294588627Y-175619424D01*
X294588627Y-175619424D02*
X294636246Y-175524186D01*
X294636246Y-175524186D02*
X294636246Y-175238472D01*
X294636246Y-175238472D02*
X294588627Y-175143234D01*
X294588627Y-175143234D02*
X294541008Y-175095615D01*
X294541008Y-175095615D02*
X294445770Y-175047996D01*
X294445770Y-175047996D02*
X294255294Y-175047996D01*
X294255294Y-175047996D02*
X294160056Y-175095615D01*
X293874341Y-175047996D02*
X293493389Y-175047996D01*
X293731484Y-174714663D02*
X293731484Y-175571805D01*
X293731484Y-175571805D02*
X293683865Y-175667044D01*
X293683865Y-175667044D02*
X293588627Y-175714663D01*
X293588627Y-175714663D02*
X293493389Y-175714663D01*
X292636246Y-175714663D02*
X293207674Y-175714663D01*
X292921960Y-175714663D02*
X292921960Y-174714663D01*
X292921960Y-174714663D02*
X293017198Y-174857520D01*
X293017198Y-174857520D02*
X293112436Y-174952758D01*
X293112436Y-174952758D02*
X293207674Y-175000377D01*
X292017198Y-174714663D02*
X291921960Y-174714663D01*
X291921960Y-174714663D02*
X291826722Y-174762282D01*
X291826722Y-174762282D02*
X291779103Y-174809901D01*
X291779103Y-174809901D02*
X291731484Y-174905139D01*
X291731484Y-174905139D02*
X291683865Y-175095615D01*
X291683865Y-175095615D02*
X291683865Y-175333710D01*
X291683865Y-175333710D02*
X291731484Y-175524186D01*
X291731484Y-175524186D02*
X291779103Y-175619424D01*
X291779103Y-175619424D02*
X291826722Y-175667044D01*
X291826722Y-175667044D02*
X291921960Y-175714663D01*
X291921960Y-175714663D02*
X292017198Y-175714663D01*
X292017198Y-175714663D02*
X292112436Y-175667044D01*
X292112436Y-175667044D02*
X292160055Y-175619424D01*
X292160055Y-175619424D02*
X292207674Y-175524186D01*
X292207674Y-175524186D02*
X292255293Y-175333710D01*
X292255293Y-175333710D02*
X292255293Y-175095615D01*
X292255293Y-175095615D02*
X292207674Y-174905139D01*
X292207674Y-174905139D02*
X292160055Y-174809901D01*
X292160055Y-174809901D02*
X292112436Y-174762282D01*
X292112436Y-174762282D02*
X292017198Y-174714663D01*
X291350531Y-174714663D02*
X290731484Y-174714663D01*
X290731484Y-174714663D02*
X291064817Y-175095615D01*
X291064817Y-175095615D02*
X290921960Y-175095615D01*
X290921960Y-175095615D02*
X290826722Y-175143234D01*
X290826722Y-175143234D02*
X290779103Y-175190853D01*
X290779103Y-175190853D02*
X290731484Y-175286091D01*
X290731484Y-175286091D02*
X290731484Y-175524186D01*
X290731484Y-175524186D02*
X290779103Y-175619424D01*
X290779103Y-175619424D02*
X290826722Y-175667044D01*
X290826722Y-175667044D02*
X290921960Y-175714663D01*
X290921960Y-175714663D02*
X291207674Y-175714663D01*
X291207674Y-175714663D02*
X291302912Y-175667044D01*
X291302912Y-175667044D02*
X291350531Y-175619424D01*
X290398150Y-174714663D02*
X289731484Y-174714663D01*
X289731484Y-174714663D02*
X290160055Y-175714663D01*
X141266247Y-175714663D02*
X141266247Y-174714663D01*
X141266247Y-174714663D02*
X141028152Y-174714663D01*
X141028152Y-174714663D02*
X140885295Y-174762282D01*
X140885295Y-174762282D02*
X140790057Y-174857520D01*
X140790057Y-174857520D02*
X140742438Y-174952758D01*
X140742438Y-174952758D02*
X140694819Y-175143234D01*
X140694819Y-175143234D02*
X140694819Y-175286091D01*
X140694819Y-175286091D02*
X140742438Y-175476567D01*
X140742438Y-175476567D02*
X140790057Y-175571805D01*
X140790057Y-175571805D02*
X140885295Y-175667044D01*
X140885295Y-175667044D02*
X141028152Y-175714663D01*
X141028152Y-175714663D02*
X141266247Y-175714663D01*
X139885295Y-175667044D02*
X139980533Y-175714663D01*
X139980533Y-175714663D02*
X140171009Y-175714663D01*
X140171009Y-175714663D02*
X140266247Y-175667044D01*
X140266247Y-175667044D02*
X140313866Y-175571805D01*
X140313866Y-175571805D02*
X140313866Y-175190853D01*
X140313866Y-175190853D02*
X140266247Y-175095615D01*
X140266247Y-175095615D02*
X140171009Y-175047996D01*
X140171009Y-175047996D02*
X139980533Y-175047996D01*
X139980533Y-175047996D02*
X139885295Y-175095615D01*
X139885295Y-175095615D02*
X139837676Y-175190853D01*
X139837676Y-175190853D02*
X139837676Y-175286091D01*
X139837676Y-175286091D02*
X140313866Y-175381329D01*
X139456723Y-175667044D02*
X139361485Y-175714663D01*
X139361485Y-175714663D02*
X139171009Y-175714663D01*
X139171009Y-175714663D02*
X139075771Y-175667044D01*
X139075771Y-175667044D02*
X139028152Y-175571805D01*
X139028152Y-175571805D02*
X139028152Y-175524186D01*
X139028152Y-175524186D02*
X139075771Y-175428948D01*
X139075771Y-175428948D02*
X139171009Y-175381329D01*
X139171009Y-175381329D02*
X139313866Y-175381329D01*
X139313866Y-175381329D02*
X139409104Y-175333710D01*
X139409104Y-175333710D02*
X139456723Y-175238472D01*
X139456723Y-175238472D02*
X139456723Y-175190853D01*
X139456723Y-175190853D02*
X139409104Y-175095615D01*
X139409104Y-175095615D02*
X139313866Y-175047996D01*
X139313866Y-175047996D02*
X139171009Y-175047996D01*
X139171009Y-175047996D02*
X139075771Y-175095615D01*
X138599580Y-175714663D02*
X138599580Y-175047996D01*
X138599580Y-174714663D02*
X138647199Y-174762282D01*
X138647199Y-174762282D02*
X138599580Y-174809901D01*
X138599580Y-174809901D02*
X138551961Y-174762282D01*
X138551961Y-174762282D02*
X138599580Y-174714663D01*
X138599580Y-174714663D02*
X138599580Y-174809901D01*
X137694819Y-175047996D02*
X137694819Y-175857520D01*
X137694819Y-175857520D02*
X137742438Y-175952758D01*
X137742438Y-175952758D02*
X137790057Y-176000377D01*
X137790057Y-176000377D02*
X137885295Y-176047996D01*
X137885295Y-176047996D02*
X138028152Y-176047996D01*
X138028152Y-176047996D02*
X138123390Y-176000377D01*
X137694819Y-175667044D02*
X137790057Y-175714663D01*
X137790057Y-175714663D02*
X137980533Y-175714663D01*
X137980533Y-175714663D02*
X138075771Y-175667044D01*
X138075771Y-175667044D02*
X138123390Y-175619424D01*
X138123390Y-175619424D02*
X138171009Y-175524186D01*
X138171009Y-175524186D02*
X138171009Y-175238472D01*
X138171009Y-175238472D02*
X138123390Y-175143234D01*
X138123390Y-175143234D02*
X138075771Y-175095615D01*
X138075771Y-175095615D02*
X137980533Y-175047996D01*
X137980533Y-175047996D02*
X137790057Y-175047996D01*
X137790057Y-175047996D02*
X137694819Y-175095615D01*
X137218628Y-175047996D02*
X137218628Y-175714663D01*
X137218628Y-175143234D02*
X137171009Y-175095615D01*
X137171009Y-175095615D02*
X137075771Y-175047996D01*
X137075771Y-175047996D02*
X136932914Y-175047996D01*
X136932914Y-175047996D02*
X136837676Y-175095615D01*
X136837676Y-175095615D02*
X136790057Y-175190853D01*
X136790057Y-175190853D02*
X136790057Y-175714663D01*
X135932914Y-175667044D02*
X136028152Y-175714663D01*
X136028152Y-175714663D02*
X136218628Y-175714663D01*
X136218628Y-175714663D02*
X136313866Y-175667044D01*
X136313866Y-175667044D02*
X136361485Y-175571805D01*
X136361485Y-175571805D02*
X136361485Y-175190853D01*
X136361485Y-175190853D02*
X136313866Y-175095615D01*
X136313866Y-175095615D02*
X136218628Y-175047996D01*
X136218628Y-175047996D02*
X136028152Y-175047996D01*
X136028152Y-175047996D02*
X135932914Y-175095615D01*
X135932914Y-175095615D02*
X135885295Y-175190853D01*
X135885295Y-175190853D02*
X135885295Y-175286091D01*
X135885295Y-175286091D02*
X136361485Y-175381329D01*
X135028152Y-175714663D02*
X135028152Y-174714663D01*
X135028152Y-175667044D02*
X135123390Y-175714663D01*
X135123390Y-175714663D02*
X135313866Y-175714663D01*
X135313866Y-175714663D02*
X135409104Y-175667044D01*
X135409104Y-175667044D02*
X135456723Y-175619424D01*
X135456723Y-175619424D02*
X135504342Y-175524186D01*
X135504342Y-175524186D02*
X135504342Y-175238472D01*
X135504342Y-175238472D02*
X135456723Y-175143234D01*
X135456723Y-175143234D02*
X135409104Y-175095615D01*
X135409104Y-175095615D02*
X135313866Y-175047996D01*
X135313866Y-175047996D02*
X135123390Y-175047996D01*
X135123390Y-175047996D02*
X135028152Y-175095615D01*
X133790056Y-175714663D02*
X133790056Y-174714663D01*
X133790056Y-175095615D02*
X133694818Y-175047996D01*
X133694818Y-175047996D02*
X133504342Y-175047996D01*
X133504342Y-175047996D02*
X133409104Y-175095615D01*
X133409104Y-175095615D02*
X133361485Y-175143234D01*
X133361485Y-175143234D02*
X133313866Y-175238472D01*
X133313866Y-175238472D02*
X133313866Y-175524186D01*
X133313866Y-175524186D02*
X133361485Y-175619424D01*
X133361485Y-175619424D02*
X133409104Y-175667044D01*
X133409104Y-175667044D02*
X133504342Y-175714663D01*
X133504342Y-175714663D02*
X133694818Y-175714663D01*
X133694818Y-175714663D02*
X133790056Y-175667044D01*
X132980532Y-175047996D02*
X132742437Y-175714663D01*
X132504342Y-175047996D02*
X132742437Y-175714663D01*
X132742437Y-175714663D02*
X132837675Y-175952758D01*
X132837675Y-175952758D02*
X132885294Y-176000377D01*
X132885294Y-176000377D02*
X132980532Y-176047996D01*
X131218627Y-175714663D02*
X131313865Y-175667044D01*
X131313865Y-175667044D02*
X131361484Y-175619424D01*
X131361484Y-175619424D02*
X131409103Y-175524186D01*
X131409103Y-175524186D02*
X131409103Y-175238472D01*
X131409103Y-175238472D02*
X131361484Y-175143234D01*
X131361484Y-175143234D02*
X131313865Y-175095615D01*
X131313865Y-175095615D02*
X131218627Y-175047996D01*
X131218627Y-175047996D02*
X131075770Y-175047996D01*
X131075770Y-175047996D02*
X130980532Y-175095615D01*
X130980532Y-175095615D02*
X130932913Y-175143234D01*
X130932913Y-175143234D02*
X130885294Y-175238472D01*
X130885294Y-175238472D02*
X130885294Y-175524186D01*
X130885294Y-175524186D02*
X130932913Y-175619424D01*
X130932913Y-175619424D02*
X130980532Y-175667044D01*
X130980532Y-175667044D02*
X131075770Y-175714663D01*
X131075770Y-175714663D02*
X131218627Y-175714663D01*
X130456722Y-175714663D02*
X130456722Y-174714663D01*
X130456722Y-175095615D02*
X130361484Y-175047996D01*
X130361484Y-175047996D02*
X130171008Y-175047996D01*
X130171008Y-175047996D02*
X130075770Y-175095615D01*
X130075770Y-175095615D02*
X130028151Y-175143234D01*
X130028151Y-175143234D02*
X129980532Y-175238472D01*
X129980532Y-175238472D02*
X129980532Y-175524186D01*
X129980532Y-175524186D02*
X130028151Y-175619424D01*
X130028151Y-175619424D02*
X130075770Y-175667044D01*
X130075770Y-175667044D02*
X130171008Y-175714663D01*
X130171008Y-175714663D02*
X130361484Y-175714663D01*
X130361484Y-175714663D02*
X130456722Y-175667044D01*
X129551960Y-175047996D02*
X129551960Y-175905139D01*
X129551960Y-175905139D02*
X129599579Y-176000377D01*
X129599579Y-176000377D02*
X129694817Y-176047996D01*
X129694817Y-176047996D02*
X129742436Y-176047996D01*
X129551960Y-174714663D02*
X129599579Y-174762282D01*
X129599579Y-174762282D02*
X129551960Y-174809901D01*
X129551960Y-174809901D02*
X129504341Y-174762282D01*
X129504341Y-174762282D02*
X129551960Y-174714663D01*
X129551960Y-174714663D02*
X129551960Y-174809901D01*
X128694818Y-175667044D02*
X128790056Y-175714663D01*
X128790056Y-175714663D02*
X128980532Y-175714663D01*
X128980532Y-175714663D02*
X129075770Y-175667044D01*
X129075770Y-175667044D02*
X129123389Y-175571805D01*
X129123389Y-175571805D02*
X129123389Y-175190853D01*
X129123389Y-175190853D02*
X129075770Y-175095615D01*
X129075770Y-175095615D02*
X128980532Y-175047996D01*
X128980532Y-175047996D02*
X128790056Y-175047996D01*
X128790056Y-175047996D02*
X128694818Y-175095615D01*
X128694818Y-175095615D02*
X128647199Y-175190853D01*
X128647199Y-175190853D02*
X128647199Y-175286091D01*
X128647199Y-175286091D02*
X129123389Y-175381329D01*
X127790056Y-175667044D02*
X127885294Y-175714663D01*
X127885294Y-175714663D02*
X128075770Y-175714663D01*
X128075770Y-175714663D02*
X128171008Y-175667044D01*
X128171008Y-175667044D02*
X128218627Y-175619424D01*
X128218627Y-175619424D02*
X128266246Y-175524186D01*
X128266246Y-175524186D02*
X128266246Y-175238472D01*
X128266246Y-175238472D02*
X128218627Y-175143234D01*
X128218627Y-175143234D02*
X128171008Y-175095615D01*
X128171008Y-175095615D02*
X128075770Y-175047996D01*
X128075770Y-175047996D02*
X127885294Y-175047996D01*
X127885294Y-175047996D02*
X127790056Y-175095615D01*
X127504341Y-175047996D02*
X127123389Y-175047996D01*
X127361484Y-174714663D02*
X127361484Y-175571805D01*
X127361484Y-175571805D02*
X127313865Y-175667044D01*
X127313865Y-175667044D02*
X127218627Y-175714663D01*
X127218627Y-175714663D02*
X127123389Y-175714663D01*
X126266246Y-175714663D02*
X126837674Y-175714663D01*
X126551960Y-175714663D02*
X126551960Y-174714663D01*
X126551960Y-174714663D02*
X126647198Y-174857520D01*
X126647198Y-174857520D02*
X126742436Y-174952758D01*
X126742436Y-174952758D02*
X126837674Y-175000377D01*
X125647198Y-174714663D02*
X125551960Y-174714663D01*
X125551960Y-174714663D02*
X125456722Y-174762282D01*
X125456722Y-174762282D02*
X125409103Y-174809901D01*
X125409103Y-174809901D02*
X125361484Y-174905139D01*
X125361484Y-174905139D02*
X125313865Y-175095615D01*
X125313865Y-175095615D02*
X125313865Y-175333710D01*
X125313865Y-175333710D02*
X125361484Y-175524186D01*
X125361484Y-175524186D02*
X125409103Y-175619424D01*
X125409103Y-175619424D02*
X125456722Y-175667044D01*
X125456722Y-175667044D02*
X125551960Y-175714663D01*
X125551960Y-175714663D02*
X125647198Y-175714663D01*
X125647198Y-175714663D02*
X125742436Y-175667044D01*
X125742436Y-175667044D02*
X125790055Y-175619424D01*
X125790055Y-175619424D02*
X125837674Y-175524186D01*
X125837674Y-175524186D02*
X125885293Y-175333710D01*
X125885293Y-175333710D02*
X125885293Y-175095615D01*
X125885293Y-175095615D02*
X125837674Y-174905139D01*
X125837674Y-174905139D02*
X125790055Y-174809901D01*
X125790055Y-174809901D02*
X125742436Y-174762282D01*
X125742436Y-174762282D02*
X125647198Y-174714663D01*
X124980531Y-174714663D02*
X124361484Y-174714663D01*
X124361484Y-174714663D02*
X124694817Y-175095615D01*
X124694817Y-175095615D02*
X124551960Y-175095615D01*
X124551960Y-175095615D02*
X124456722Y-175143234D01*
X124456722Y-175143234D02*
X124409103Y-175190853D01*
X124409103Y-175190853D02*
X124361484Y-175286091D01*
X124361484Y-175286091D02*
X124361484Y-175524186D01*
X124361484Y-175524186D02*
X124409103Y-175619424D01*
X124409103Y-175619424D02*
X124456722Y-175667044D01*
X124456722Y-175667044D02*
X124551960Y-175714663D01*
X124551960Y-175714663D02*
X124837674Y-175714663D01*
X124837674Y-175714663D02*
X124932912Y-175667044D01*
X124932912Y-175667044D02*
X124980531Y-175619424D01*
X124028150Y-174714663D02*
X123361484Y-174714663D01*
X123361484Y-174714663D02*
X123790055Y-175714663D01*
X109784663Y-147835714D02*
X108784663Y-147835714D01*
X108784663Y-147835714D02*
X108784663Y-148073809D01*
X108784663Y-148073809D02*
X108832282Y-148216666D01*
X108832282Y-148216666D02*
X108927520Y-148311904D01*
X108927520Y-148311904D02*
X109022758Y-148359523D01*
X109022758Y-148359523D02*
X109213234Y-148407142D01*
X109213234Y-148407142D02*
X109356091Y-148407142D01*
X109356091Y-148407142D02*
X109546567Y-148359523D01*
X109546567Y-148359523D02*
X109641805Y-148311904D01*
X109641805Y-148311904D02*
X109737044Y-148216666D01*
X109737044Y-148216666D02*
X109784663Y-148073809D01*
X109784663Y-148073809D02*
X109784663Y-147835714D01*
X109117996Y-149264285D02*
X109784663Y-149264285D01*
X108737044Y-149026190D02*
X109451329Y-148788095D01*
X109451329Y-148788095D02*
X109451329Y-149407142D01*
X109784663Y-150311904D02*
X109784663Y-149740476D01*
X109784663Y-150026190D02*
X108784663Y-150026190D01*
X108784663Y-150026190D02*
X108927520Y-149930952D01*
X108927520Y-149930952D02*
X109022758Y-149835714D01*
X109022758Y-149835714D02*
X109070377Y-149740476D01*
X166934663Y-166885714D02*
X165934663Y-166885714D01*
X165934663Y-166885714D02*
X165934663Y-167123809D01*
X165934663Y-167123809D02*
X165982282Y-167266666D01*
X165982282Y-167266666D02*
X166077520Y-167361904D01*
X166077520Y-167361904D02*
X166172758Y-167409523D01*
X166172758Y-167409523D02*
X166363234Y-167457142D01*
X166363234Y-167457142D02*
X166506091Y-167457142D01*
X166506091Y-167457142D02*
X166696567Y-167409523D01*
X166696567Y-167409523D02*
X166791805Y-167361904D01*
X166791805Y-167361904D02*
X166887044Y-167266666D01*
X166887044Y-167266666D02*
X166934663Y-167123809D01*
X166934663Y-167123809D02*
X166934663Y-166885714D01*
X165934663Y-168361904D02*
X165934663Y-167885714D01*
X165934663Y-167885714D02*
X166410853Y-167838095D01*
X166410853Y-167838095D02*
X166363234Y-167885714D01*
X166363234Y-167885714D02*
X166315615Y-167980952D01*
X166315615Y-167980952D02*
X166315615Y-168219047D01*
X166315615Y-168219047D02*
X166363234Y-168314285D01*
X166363234Y-168314285D02*
X166410853Y-168361904D01*
X166410853Y-168361904D02*
X166506091Y-168409523D01*
X166506091Y-168409523D02*
X166744186Y-168409523D01*
X166744186Y-168409523D02*
X166839424Y-168361904D01*
X166839424Y-168361904D02*
X166887044Y-168314285D01*
X166887044Y-168314285D02*
X166934663Y-168219047D01*
X166934663Y-168219047D02*
X166934663Y-167980952D01*
X166934663Y-167980952D02*
X166887044Y-167885714D01*
X166887044Y-167885714D02*
X166839424Y-167838095D01*
X165934663Y-169028571D02*
X165934663Y-169123809D01*
X165934663Y-169123809D02*
X165982282Y-169219047D01*
X165982282Y-169219047D02*
X166029901Y-169266666D01*
X166029901Y-169266666D02*
X166125139Y-169314285D01*
X166125139Y-169314285D02*
X166315615Y-169361904D01*
X166315615Y-169361904D02*
X166553710Y-169361904D01*
X166553710Y-169361904D02*
X166744186Y-169314285D01*
X166744186Y-169314285D02*
X166839424Y-169266666D01*
X166839424Y-169266666D02*
X166887044Y-169219047D01*
X166887044Y-169219047D02*
X166934663Y-169123809D01*
X166934663Y-169123809D02*
X166934663Y-169028571D01*
X166934663Y-169028571D02*
X166887044Y-168933333D01*
X166887044Y-168933333D02*
X166839424Y-168885714D01*
X166839424Y-168885714D02*
X166744186Y-168838095D01*
X166744186Y-168838095D02*
X166553710Y-168790476D01*
X166553710Y-168790476D02*
X166315615Y-168790476D01*
X166315615Y-168790476D02*
X166125139Y-168838095D01*
X166125139Y-168838095D02*
X166029901Y-168885714D01*
X166029901Y-168885714D02*
X165982282Y-168933333D01*
X165982282Y-168933333D02*
X165934663Y-169028571D01*
X128834663Y-128785714D02*
X127834663Y-128785714D01*
X127834663Y-128785714D02*
X127834663Y-129023809D01*
X127834663Y-129023809D02*
X127882282Y-129166666D01*
X127882282Y-129166666D02*
X127977520Y-129261904D01*
X127977520Y-129261904D02*
X128072758Y-129309523D01*
X128072758Y-129309523D02*
X128263234Y-129357142D01*
X128263234Y-129357142D02*
X128406091Y-129357142D01*
X128406091Y-129357142D02*
X128596567Y-129309523D01*
X128596567Y-129309523D02*
X128691805Y-129261904D01*
X128691805Y-129261904D02*
X128787044Y-129166666D01*
X128787044Y-129166666D02*
X128834663Y-129023809D01*
X128834663Y-129023809D02*
X128834663Y-128785714D01*
X127834663Y-129690476D02*
X127834663Y-130309523D01*
X127834663Y-130309523D02*
X128215615Y-129976190D01*
X128215615Y-129976190D02*
X128215615Y-130119047D01*
X128215615Y-130119047D02*
X128263234Y-130214285D01*
X128263234Y-130214285D02*
X128310853Y-130261904D01*
X128310853Y-130261904D02*
X128406091Y-130309523D01*
X128406091Y-130309523D02*
X128644186Y-130309523D01*
X128644186Y-130309523D02*
X128739424Y-130261904D01*
X128739424Y-130261904D02*
X128787044Y-130214285D01*
X128787044Y-130214285D02*
X128834663Y-130119047D01*
X128834663Y-130119047D02*
X128834663Y-129833333D01*
X128834663Y-129833333D02*
X128787044Y-129738095D01*
X128787044Y-129738095D02*
X128739424Y-129690476D01*
X127834663Y-131166666D02*
X127834663Y-130976190D01*
X127834663Y-130976190D02*
X127882282Y-130880952D01*
X127882282Y-130880952D02*
X127929901Y-130833333D01*
X127929901Y-130833333D02*
X128072758Y-130738095D01*
X128072758Y-130738095D02*
X128263234Y-130690476D01*
X128263234Y-130690476D02*
X128644186Y-130690476D01*
X128644186Y-130690476D02*
X128739424Y-130738095D01*
X128739424Y-130738095D02*
X128787044Y-130785714D01*
X128787044Y-130785714D02*
X128834663Y-130880952D01*
X128834663Y-130880952D02*
X128834663Y-131071428D01*
X128834663Y-131071428D02*
X128787044Y-131166666D01*
X128787044Y-131166666D02*
X128739424Y-131214285D01*
X128739424Y-131214285D02*
X128644186Y-131261904D01*
X128644186Y-131261904D02*
X128406091Y-131261904D01*
X128406091Y-131261904D02*
X128310853Y-131214285D01*
X128310853Y-131214285D02*
X128263234Y-131166666D01*
X128263234Y-131166666D02*
X128215615Y-131071428D01*
X128215615Y-131071428D02*
X128215615Y-130880952D01*
X128215615Y-130880952D02*
X128263234Y-130785714D01*
X128263234Y-130785714D02*
X128310853Y-130738095D01*
X128310853Y-130738095D02*
X128406091Y-130690476D01*
X333304663Y-147835714D02*
X332304663Y-147835714D01*
X332304663Y-147835714D02*
X332304663Y-148073809D01*
X332304663Y-148073809D02*
X332352282Y-148216666D01*
X332352282Y-148216666D02*
X332447520Y-148311904D01*
X332447520Y-148311904D02*
X332542758Y-148359523D01*
X332542758Y-148359523D02*
X332733234Y-148407142D01*
X332733234Y-148407142D02*
X332876091Y-148407142D01*
X332876091Y-148407142D02*
X333066567Y-148359523D01*
X333066567Y-148359523D02*
X333161805Y-148311904D01*
X333161805Y-148311904D02*
X333257044Y-148216666D01*
X333257044Y-148216666D02*
X333304663Y-148073809D01*
X333304663Y-148073809D02*
X333304663Y-147835714D01*
X333304663Y-149359523D02*
X333304663Y-148788095D01*
X333304663Y-149073809D02*
X332304663Y-149073809D01*
X332304663Y-149073809D02*
X332447520Y-148978571D01*
X332447520Y-148978571D02*
X332542758Y-148883333D01*
X332542758Y-148883333D02*
X332590377Y-148788095D01*
X332733234Y-149930952D02*
X332685615Y-149835714D01*
X332685615Y-149835714D02*
X332637996Y-149788095D01*
X332637996Y-149788095D02*
X332542758Y-149740476D01*
X332542758Y-149740476D02*
X332495139Y-149740476D01*
X332495139Y-149740476D02*
X332399901Y-149788095D01*
X332399901Y-149788095D02*
X332352282Y-149835714D01*
X332352282Y-149835714D02*
X332304663Y-149930952D01*
X332304663Y-149930952D02*
X332304663Y-150121428D01*
X332304663Y-150121428D02*
X332352282Y-150216666D01*
X332352282Y-150216666D02*
X332399901Y-150264285D01*
X332399901Y-150264285D02*
X332495139Y-150311904D01*
X332495139Y-150311904D02*
X332542758Y-150311904D01*
X332542758Y-150311904D02*
X332637996Y-150264285D01*
X332637996Y-150264285D02*
X332685615Y-150216666D01*
X332685615Y-150216666D02*
X332733234Y-150121428D01*
X332733234Y-150121428D02*
X332733234Y-149930952D01*
X332733234Y-149930952D02*
X332780853Y-149835714D01*
X332780853Y-149835714D02*
X332828472Y-149788095D01*
X332828472Y-149788095D02*
X332923710Y-149740476D01*
X332923710Y-149740476D02*
X333114186Y-149740476D01*
X333114186Y-149740476D02*
X333209424Y-149788095D01*
X333209424Y-149788095D02*
X333257044Y-149835714D01*
X333257044Y-149835714D02*
X333304663Y-149930952D01*
X333304663Y-149930952D02*
X333304663Y-150121428D01*
X333304663Y-150121428D02*
X333257044Y-150216666D01*
X333257044Y-150216666D02*
X333209424Y-150264285D01*
X333209424Y-150264285D02*
X333114186Y-150311904D01*
X333114186Y-150311904D02*
X332923710Y-150311904D01*
X332923710Y-150311904D02*
X332828472Y-150264285D01*
X332828472Y-150264285D02*
X332780853Y-150216666D01*
X332780853Y-150216666D02*
X332733234Y-150121428D01*
X333304663Y-128785714D02*
X332304663Y-128785714D01*
X332304663Y-128785714D02*
X332304663Y-129023809D01*
X332304663Y-129023809D02*
X332352282Y-129166666D01*
X332352282Y-129166666D02*
X332447520Y-129261904D01*
X332447520Y-129261904D02*
X332542758Y-129309523D01*
X332542758Y-129309523D02*
X332733234Y-129357142D01*
X332733234Y-129357142D02*
X332876091Y-129357142D01*
X332876091Y-129357142D02*
X333066567Y-129309523D01*
X333066567Y-129309523D02*
X333161805Y-129261904D01*
X333161805Y-129261904D02*
X333257044Y-129166666D01*
X333257044Y-129166666D02*
X333304663Y-129023809D01*
X333304663Y-129023809D02*
X333304663Y-128785714D01*
X333304663Y-130309523D02*
X333304663Y-129738095D01*
X333304663Y-130023809D02*
X332304663Y-130023809D01*
X332304663Y-130023809D02*
X332447520Y-129928571D01*
X332447520Y-129928571D02*
X332542758Y-129833333D01*
X332542758Y-129833333D02*
X332590377Y-129738095D01*
X332399901Y-130690476D02*
X332352282Y-130738095D01*
X332352282Y-130738095D02*
X332304663Y-130833333D01*
X332304663Y-130833333D02*
X332304663Y-131071428D01*
X332304663Y-131071428D02*
X332352282Y-131166666D01*
X332352282Y-131166666D02*
X332399901Y-131214285D01*
X332399901Y-131214285D02*
X332495139Y-131261904D01*
X332495139Y-131261904D02*
X332590377Y-131261904D01*
X332590377Y-131261904D02*
X332733234Y-131214285D01*
X332733234Y-131214285D02*
X333304663Y-130642857D01*
X333304663Y-130642857D02*
X333304663Y-131261904D01*
X205034663Y-166885714D02*
X204034663Y-166885714D01*
X204034663Y-166885714D02*
X204034663Y-167123809D01*
X204034663Y-167123809D02*
X204082282Y-167266666D01*
X204082282Y-167266666D02*
X204177520Y-167361904D01*
X204177520Y-167361904D02*
X204272758Y-167409523D01*
X204272758Y-167409523D02*
X204463234Y-167457142D01*
X204463234Y-167457142D02*
X204606091Y-167457142D01*
X204606091Y-167457142D02*
X204796567Y-167409523D01*
X204796567Y-167409523D02*
X204891805Y-167361904D01*
X204891805Y-167361904D02*
X204987044Y-167266666D01*
X204987044Y-167266666D02*
X205034663Y-167123809D01*
X205034663Y-167123809D02*
X205034663Y-166885714D01*
X204034663Y-168361904D02*
X204034663Y-167885714D01*
X204034663Y-167885714D02*
X204510853Y-167838095D01*
X204510853Y-167838095D02*
X204463234Y-167885714D01*
X204463234Y-167885714D02*
X204415615Y-167980952D01*
X204415615Y-167980952D02*
X204415615Y-168219047D01*
X204415615Y-168219047D02*
X204463234Y-168314285D01*
X204463234Y-168314285D02*
X204510853Y-168361904D01*
X204510853Y-168361904D02*
X204606091Y-168409523D01*
X204606091Y-168409523D02*
X204844186Y-168409523D01*
X204844186Y-168409523D02*
X204939424Y-168361904D01*
X204939424Y-168361904D02*
X204987044Y-168314285D01*
X204987044Y-168314285D02*
X205034663Y-168219047D01*
X205034663Y-168219047D02*
X205034663Y-167980952D01*
X205034663Y-167980952D02*
X204987044Y-167885714D01*
X204987044Y-167885714D02*
X204939424Y-167838095D01*
X204129901Y-168790476D02*
X204082282Y-168838095D01*
X204082282Y-168838095D02*
X204034663Y-168933333D01*
X204034663Y-168933333D02*
X204034663Y-169171428D01*
X204034663Y-169171428D02*
X204082282Y-169266666D01*
X204082282Y-169266666D02*
X204129901Y-169314285D01*
X204129901Y-169314285D02*
X204225139Y-169361904D01*
X204225139Y-169361904D02*
X204320377Y-169361904D01*
X204320377Y-169361904D02*
X204463234Y-169314285D01*
X204463234Y-169314285D02*
X205034663Y-168742857D01*
X205034663Y-168742857D02*
X205034663Y-169361904D01*
X147884663Y-109735714D02*
X146884663Y-109735714D01*
X146884663Y-109735714D02*
X146884663Y-109973809D01*
X146884663Y-109973809D02*
X146932282Y-110116666D01*
X146932282Y-110116666D02*
X147027520Y-110211904D01*
X147027520Y-110211904D02*
X147122758Y-110259523D01*
X147122758Y-110259523D02*
X147313234Y-110307142D01*
X147313234Y-110307142D02*
X147456091Y-110307142D01*
X147456091Y-110307142D02*
X147646567Y-110259523D01*
X147646567Y-110259523D02*
X147741805Y-110211904D01*
X147741805Y-110211904D02*
X147837044Y-110116666D01*
X147837044Y-110116666D02*
X147884663Y-109973809D01*
X147884663Y-109973809D02*
X147884663Y-109735714D01*
X146884663Y-110640476D02*
X146884663Y-111259523D01*
X146884663Y-111259523D02*
X147265615Y-110926190D01*
X147265615Y-110926190D02*
X147265615Y-111069047D01*
X147265615Y-111069047D02*
X147313234Y-111164285D01*
X147313234Y-111164285D02*
X147360853Y-111211904D01*
X147360853Y-111211904D02*
X147456091Y-111259523D01*
X147456091Y-111259523D02*
X147694186Y-111259523D01*
X147694186Y-111259523D02*
X147789424Y-111211904D01*
X147789424Y-111211904D02*
X147837044Y-111164285D01*
X147837044Y-111164285D02*
X147884663Y-111069047D01*
X147884663Y-111069047D02*
X147884663Y-110783333D01*
X147884663Y-110783333D02*
X147837044Y-110688095D01*
X147837044Y-110688095D02*
X147789424Y-110640476D01*
X147884663Y-112211904D02*
X147884663Y-111640476D01*
X147884663Y-111926190D02*
X146884663Y-111926190D01*
X146884663Y-111926190D02*
X147027520Y-111830952D01*
X147027520Y-111830952D02*
X147122758Y-111735714D01*
X147122758Y-111735714D02*
X147170377Y-111640476D01*
X147884663Y-128785714D02*
X146884663Y-128785714D01*
X146884663Y-128785714D02*
X146884663Y-129023809D01*
X146884663Y-129023809D02*
X146932282Y-129166666D01*
X146932282Y-129166666D02*
X147027520Y-129261904D01*
X147027520Y-129261904D02*
X147122758Y-129309523D01*
X147122758Y-129309523D02*
X147313234Y-129357142D01*
X147313234Y-129357142D02*
X147456091Y-129357142D01*
X147456091Y-129357142D02*
X147646567Y-129309523D01*
X147646567Y-129309523D02*
X147741805Y-129261904D01*
X147741805Y-129261904D02*
X147837044Y-129166666D01*
X147837044Y-129166666D02*
X147884663Y-129023809D01*
X147884663Y-129023809D02*
X147884663Y-128785714D01*
X146884663Y-129690476D02*
X146884663Y-130309523D01*
X146884663Y-130309523D02*
X147265615Y-129976190D01*
X147265615Y-129976190D02*
X147265615Y-130119047D01*
X147265615Y-130119047D02*
X147313234Y-130214285D01*
X147313234Y-130214285D02*
X147360853Y-130261904D01*
X147360853Y-130261904D02*
X147456091Y-130309523D01*
X147456091Y-130309523D02*
X147694186Y-130309523D01*
X147694186Y-130309523D02*
X147789424Y-130261904D01*
X147789424Y-130261904D02*
X147837044Y-130214285D01*
X147837044Y-130214285D02*
X147884663Y-130119047D01*
X147884663Y-130119047D02*
X147884663Y-129833333D01*
X147884663Y-129833333D02*
X147837044Y-129738095D01*
X147837044Y-129738095D02*
X147789424Y-129690476D01*
X146884663Y-130642857D02*
X146884663Y-131309523D01*
X146884663Y-131309523D02*
X147884663Y-130880952D01*
X257104663Y-110211905D02*
X256104663Y-110211905D01*
X256104663Y-110211905D02*
X256104663Y-110450000D01*
X256104663Y-110450000D02*
X256152282Y-110592857D01*
X256152282Y-110592857D02*
X256247520Y-110688095D01*
X256247520Y-110688095D02*
X256342758Y-110735714D01*
X256342758Y-110735714D02*
X256533234Y-110783333D01*
X256533234Y-110783333D02*
X256676091Y-110783333D01*
X256676091Y-110783333D02*
X256866567Y-110735714D01*
X256866567Y-110735714D02*
X256961805Y-110688095D01*
X256961805Y-110688095D02*
X257057044Y-110592857D01*
X257057044Y-110592857D02*
X257104663Y-110450000D01*
X257104663Y-110450000D02*
X257104663Y-110211905D01*
X256199901Y-111164286D02*
X256152282Y-111211905D01*
X256152282Y-111211905D02*
X256104663Y-111307143D01*
X256104663Y-111307143D02*
X256104663Y-111545238D01*
X256104663Y-111545238D02*
X256152282Y-111640476D01*
X256152282Y-111640476D02*
X256199901Y-111688095D01*
X256199901Y-111688095D02*
X256295139Y-111735714D01*
X256295139Y-111735714D02*
X256390377Y-111735714D01*
X256390377Y-111735714D02*
X256533234Y-111688095D01*
X256533234Y-111688095D02*
X257104663Y-111116667D01*
X257104663Y-111116667D02*
X257104663Y-111735714D01*
X147884663Y-166885714D02*
X146884663Y-166885714D01*
X146884663Y-166885714D02*
X146884663Y-167123809D01*
X146884663Y-167123809D02*
X146932282Y-167266666D01*
X146932282Y-167266666D02*
X147027520Y-167361904D01*
X147027520Y-167361904D02*
X147122758Y-167409523D01*
X147122758Y-167409523D02*
X147313234Y-167457142D01*
X147313234Y-167457142D02*
X147456091Y-167457142D01*
X147456091Y-167457142D02*
X147646567Y-167409523D01*
X147646567Y-167409523D02*
X147741805Y-167361904D01*
X147741805Y-167361904D02*
X147837044Y-167266666D01*
X147837044Y-167266666D02*
X147884663Y-167123809D01*
X147884663Y-167123809D02*
X147884663Y-166885714D01*
X147217996Y-168314285D02*
X147884663Y-168314285D01*
X146837044Y-168076190D02*
X147551329Y-167838095D01*
X147551329Y-167838095D02*
X147551329Y-168457142D01*
X147884663Y-168885714D02*
X147884663Y-169076190D01*
X147884663Y-169076190D02*
X147837044Y-169171428D01*
X147837044Y-169171428D02*
X147789424Y-169219047D01*
X147789424Y-169219047D02*
X147646567Y-169314285D01*
X147646567Y-169314285D02*
X147456091Y-169361904D01*
X147456091Y-169361904D02*
X147075139Y-169361904D01*
X147075139Y-169361904D02*
X146979901Y-169314285D01*
X146979901Y-169314285D02*
X146932282Y-169266666D01*
X146932282Y-169266666D02*
X146884663Y-169171428D01*
X146884663Y-169171428D02*
X146884663Y-168980952D01*
X146884663Y-168980952D02*
X146932282Y-168885714D01*
X146932282Y-168885714D02*
X146979901Y-168838095D01*
X146979901Y-168838095D02*
X147075139Y-168790476D01*
X147075139Y-168790476D02*
X147313234Y-168790476D01*
X147313234Y-168790476D02*
X147408472Y-168838095D01*
X147408472Y-168838095D02*
X147456091Y-168885714D01*
X147456091Y-168885714D02*
X147503710Y-168980952D01*
X147503710Y-168980952D02*
X147503710Y-169171428D01*
X147503710Y-169171428D02*
X147456091Y-169266666D01*
X147456091Y-169266666D02*
X147408472Y-169314285D01*
X147408472Y-169314285D02*
X147313234Y-169361904D01*
X166934663Y-128785714D02*
X165934663Y-128785714D01*
X165934663Y-128785714D02*
X165934663Y-129023809D01*
X165934663Y-129023809D02*
X165982282Y-129166666D01*
X165982282Y-129166666D02*
X166077520Y-129261904D01*
X166077520Y-129261904D02*
X166172758Y-129309523D01*
X166172758Y-129309523D02*
X166363234Y-129357142D01*
X166363234Y-129357142D02*
X166506091Y-129357142D01*
X166506091Y-129357142D02*
X166696567Y-129309523D01*
X166696567Y-129309523D02*
X166791805Y-129261904D01*
X166791805Y-129261904D02*
X166887044Y-129166666D01*
X166887044Y-129166666D02*
X166934663Y-129023809D01*
X166934663Y-129023809D02*
X166934663Y-128785714D01*
X165934663Y-129690476D02*
X165934663Y-130309523D01*
X165934663Y-130309523D02*
X166315615Y-129976190D01*
X166315615Y-129976190D02*
X166315615Y-130119047D01*
X166315615Y-130119047D02*
X166363234Y-130214285D01*
X166363234Y-130214285D02*
X166410853Y-130261904D01*
X166410853Y-130261904D02*
X166506091Y-130309523D01*
X166506091Y-130309523D02*
X166744186Y-130309523D01*
X166744186Y-130309523D02*
X166839424Y-130261904D01*
X166839424Y-130261904D02*
X166887044Y-130214285D01*
X166887044Y-130214285D02*
X166934663Y-130119047D01*
X166934663Y-130119047D02*
X166934663Y-129833333D01*
X166934663Y-129833333D02*
X166887044Y-129738095D01*
X166887044Y-129738095D02*
X166839424Y-129690476D01*
X166363234Y-130880952D02*
X166315615Y-130785714D01*
X166315615Y-130785714D02*
X166267996Y-130738095D01*
X166267996Y-130738095D02*
X166172758Y-130690476D01*
X166172758Y-130690476D02*
X166125139Y-130690476D01*
X166125139Y-130690476D02*
X166029901Y-130738095D01*
X166029901Y-130738095D02*
X165982282Y-130785714D01*
X165982282Y-130785714D02*
X165934663Y-130880952D01*
X165934663Y-130880952D02*
X165934663Y-131071428D01*
X165934663Y-131071428D02*
X165982282Y-131166666D01*
X165982282Y-131166666D02*
X166029901Y-131214285D01*
X166029901Y-131214285D02*
X166125139Y-131261904D01*
X166125139Y-131261904D02*
X166172758Y-131261904D01*
X166172758Y-131261904D02*
X166267996Y-131214285D01*
X166267996Y-131214285D02*
X166315615Y-131166666D01*
X166315615Y-131166666D02*
X166363234Y-131071428D01*
X166363234Y-131071428D02*
X166363234Y-130880952D01*
X166363234Y-130880952D02*
X166410853Y-130785714D01*
X166410853Y-130785714D02*
X166458472Y-130738095D01*
X166458472Y-130738095D02*
X166553710Y-130690476D01*
X166553710Y-130690476D02*
X166744186Y-130690476D01*
X166744186Y-130690476D02*
X166839424Y-130738095D01*
X166839424Y-130738095D02*
X166887044Y-130785714D01*
X166887044Y-130785714D02*
X166934663Y-130880952D01*
X166934663Y-130880952D02*
X166934663Y-131071428D01*
X166934663Y-131071428D02*
X166887044Y-131166666D01*
X166887044Y-131166666D02*
X166839424Y-131214285D01*
X166839424Y-131214285D02*
X166744186Y-131261904D01*
X166744186Y-131261904D02*
X166553710Y-131261904D01*
X166553710Y-131261904D02*
X166458472Y-131214285D01*
X166458472Y-131214285D02*
X166410853Y-131166666D01*
X166410853Y-131166666D02*
X166363234Y-131071428D01*
X276154663Y-166885714D02*
X275154663Y-166885714D01*
X275154663Y-166885714D02*
X275154663Y-167123809D01*
X275154663Y-167123809D02*
X275202282Y-167266666D01*
X275202282Y-167266666D02*
X275297520Y-167361904D01*
X275297520Y-167361904D02*
X275392758Y-167409523D01*
X275392758Y-167409523D02*
X275583234Y-167457142D01*
X275583234Y-167457142D02*
X275726091Y-167457142D01*
X275726091Y-167457142D02*
X275916567Y-167409523D01*
X275916567Y-167409523D02*
X276011805Y-167361904D01*
X276011805Y-167361904D02*
X276107044Y-167266666D01*
X276107044Y-167266666D02*
X276154663Y-167123809D01*
X276154663Y-167123809D02*
X276154663Y-166885714D01*
X275249901Y-167838095D02*
X275202282Y-167885714D01*
X275202282Y-167885714D02*
X275154663Y-167980952D01*
X275154663Y-167980952D02*
X275154663Y-168219047D01*
X275154663Y-168219047D02*
X275202282Y-168314285D01*
X275202282Y-168314285D02*
X275249901Y-168361904D01*
X275249901Y-168361904D02*
X275345139Y-168409523D01*
X275345139Y-168409523D02*
X275440377Y-168409523D01*
X275440377Y-168409523D02*
X275583234Y-168361904D01*
X275583234Y-168361904D02*
X276154663Y-167790476D01*
X276154663Y-167790476D02*
X276154663Y-168409523D01*
X276154663Y-169361904D02*
X276154663Y-168790476D01*
X276154663Y-169076190D02*
X275154663Y-169076190D01*
X275154663Y-169076190D02*
X275297520Y-168980952D01*
X275297520Y-168980952D02*
X275392758Y-168885714D01*
X275392758Y-168885714D02*
X275440377Y-168790476D01*
X128834663Y-109735714D02*
X127834663Y-109735714D01*
X127834663Y-109735714D02*
X127834663Y-109973809D01*
X127834663Y-109973809D02*
X127882282Y-110116666D01*
X127882282Y-110116666D02*
X127977520Y-110211904D01*
X127977520Y-110211904D02*
X128072758Y-110259523D01*
X128072758Y-110259523D02*
X128263234Y-110307142D01*
X128263234Y-110307142D02*
X128406091Y-110307142D01*
X128406091Y-110307142D02*
X128596567Y-110259523D01*
X128596567Y-110259523D02*
X128691805Y-110211904D01*
X128691805Y-110211904D02*
X128787044Y-110116666D01*
X128787044Y-110116666D02*
X128834663Y-109973809D01*
X128834663Y-109973809D02*
X128834663Y-109735714D01*
X127834663Y-110640476D02*
X127834663Y-111259523D01*
X127834663Y-111259523D02*
X128215615Y-110926190D01*
X128215615Y-110926190D02*
X128215615Y-111069047D01*
X128215615Y-111069047D02*
X128263234Y-111164285D01*
X128263234Y-111164285D02*
X128310853Y-111211904D01*
X128310853Y-111211904D02*
X128406091Y-111259523D01*
X128406091Y-111259523D02*
X128644186Y-111259523D01*
X128644186Y-111259523D02*
X128739424Y-111211904D01*
X128739424Y-111211904D02*
X128787044Y-111164285D01*
X128787044Y-111164285D02*
X128834663Y-111069047D01*
X128834663Y-111069047D02*
X128834663Y-110783333D01*
X128834663Y-110783333D02*
X128787044Y-110688095D01*
X128787044Y-110688095D02*
X128739424Y-110640476D01*
X127834663Y-111878571D02*
X127834663Y-111973809D01*
X127834663Y-111973809D02*
X127882282Y-112069047D01*
X127882282Y-112069047D02*
X127929901Y-112116666D01*
X127929901Y-112116666D02*
X128025139Y-112164285D01*
X128025139Y-112164285D02*
X128215615Y-112211904D01*
X128215615Y-112211904D02*
X128453710Y-112211904D01*
X128453710Y-112211904D02*
X128644186Y-112164285D01*
X128644186Y-112164285D02*
X128739424Y-112116666D01*
X128739424Y-112116666D02*
X128787044Y-112069047D01*
X128787044Y-112069047D02*
X128834663Y-111973809D01*
X128834663Y-111973809D02*
X128834663Y-111878571D01*
X128834663Y-111878571D02*
X128787044Y-111783333D01*
X128787044Y-111783333D02*
X128739424Y-111735714D01*
X128739424Y-111735714D02*
X128644186Y-111688095D01*
X128644186Y-111688095D02*
X128453710Y-111640476D01*
X128453710Y-111640476D02*
X128215615Y-111640476D01*
X128215615Y-111640476D02*
X128025139Y-111688095D01*
X128025139Y-111688095D02*
X127929901Y-111735714D01*
X127929901Y-111735714D02*
X127882282Y-111783333D01*
X127882282Y-111783333D02*
X127834663Y-111878571D01*
X185984663Y-128785714D02*
X184984663Y-128785714D01*
X184984663Y-128785714D02*
X184984663Y-129023809D01*
X184984663Y-129023809D02*
X185032282Y-129166666D01*
X185032282Y-129166666D02*
X185127520Y-129261904D01*
X185127520Y-129261904D02*
X185222758Y-129309523D01*
X185222758Y-129309523D02*
X185413234Y-129357142D01*
X185413234Y-129357142D02*
X185556091Y-129357142D01*
X185556091Y-129357142D02*
X185746567Y-129309523D01*
X185746567Y-129309523D02*
X185841805Y-129261904D01*
X185841805Y-129261904D02*
X185937044Y-129166666D01*
X185937044Y-129166666D02*
X185984663Y-129023809D01*
X185984663Y-129023809D02*
X185984663Y-128785714D01*
X184984663Y-129690476D02*
X184984663Y-130309523D01*
X184984663Y-130309523D02*
X185365615Y-129976190D01*
X185365615Y-129976190D02*
X185365615Y-130119047D01*
X185365615Y-130119047D02*
X185413234Y-130214285D01*
X185413234Y-130214285D02*
X185460853Y-130261904D01*
X185460853Y-130261904D02*
X185556091Y-130309523D01*
X185556091Y-130309523D02*
X185794186Y-130309523D01*
X185794186Y-130309523D02*
X185889424Y-130261904D01*
X185889424Y-130261904D02*
X185937044Y-130214285D01*
X185937044Y-130214285D02*
X185984663Y-130119047D01*
X185984663Y-130119047D02*
X185984663Y-129833333D01*
X185984663Y-129833333D02*
X185937044Y-129738095D01*
X185937044Y-129738095D02*
X185889424Y-129690476D01*
X185984663Y-130785714D02*
X185984663Y-130976190D01*
X185984663Y-130976190D02*
X185937044Y-131071428D01*
X185937044Y-131071428D02*
X185889424Y-131119047D01*
X185889424Y-131119047D02*
X185746567Y-131214285D01*
X185746567Y-131214285D02*
X185556091Y-131261904D01*
X185556091Y-131261904D02*
X185175139Y-131261904D01*
X185175139Y-131261904D02*
X185079901Y-131214285D01*
X185079901Y-131214285D02*
X185032282Y-131166666D01*
X185032282Y-131166666D02*
X184984663Y-131071428D01*
X184984663Y-131071428D02*
X184984663Y-130880952D01*
X184984663Y-130880952D02*
X185032282Y-130785714D01*
X185032282Y-130785714D02*
X185079901Y-130738095D01*
X185079901Y-130738095D02*
X185175139Y-130690476D01*
X185175139Y-130690476D02*
X185413234Y-130690476D01*
X185413234Y-130690476D02*
X185508472Y-130738095D01*
X185508472Y-130738095D02*
X185556091Y-130785714D01*
X185556091Y-130785714D02*
X185603710Y-130880952D01*
X185603710Y-130880952D02*
X185603710Y-131071428D01*
X185603710Y-131071428D02*
X185556091Y-131166666D01*
X185556091Y-131166666D02*
X185508472Y-131214285D01*
X185508472Y-131214285D02*
X185413234Y-131261904D01*
X314254663Y-126260714D02*
X313254663Y-126260714D01*
X313254663Y-126260714D02*
X313254663Y-126498809D01*
X313254663Y-126498809D02*
X313302282Y-126641666D01*
X313302282Y-126641666D02*
X313397520Y-126736904D01*
X313397520Y-126736904D02*
X313492758Y-126784523D01*
X313492758Y-126784523D02*
X313683234Y-126832142D01*
X313683234Y-126832142D02*
X313826091Y-126832142D01*
X313826091Y-126832142D02*
X314016567Y-126784523D01*
X314016567Y-126784523D02*
X314111805Y-126736904D01*
X314111805Y-126736904D02*
X314207044Y-126641666D01*
X314207044Y-126641666D02*
X314254663Y-126498809D01*
X314254663Y-126498809D02*
X314254663Y-126260714D01*
X314254663Y-127784523D02*
X314254663Y-127213095D01*
X314254663Y-127498809D02*
X313254663Y-127498809D01*
X313254663Y-127498809D02*
X313397520Y-127403571D01*
X313397520Y-127403571D02*
X313492758Y-127308333D01*
X313492758Y-127308333D02*
X313540377Y-127213095D01*
X314254663Y-128736904D02*
X314254663Y-128165476D01*
X314254663Y-128451190D02*
X313254663Y-128451190D01*
X313254663Y-128451190D02*
X313397520Y-128355952D01*
X313397520Y-128355952D02*
X313492758Y-128260714D01*
X313492758Y-128260714D02*
X313540377Y-128165476D01*
X276154663Y-147835714D02*
X275154663Y-147835714D01*
X275154663Y-147835714D02*
X275154663Y-148073809D01*
X275154663Y-148073809D02*
X275202282Y-148216666D01*
X275202282Y-148216666D02*
X275297520Y-148311904D01*
X275297520Y-148311904D02*
X275392758Y-148359523D01*
X275392758Y-148359523D02*
X275583234Y-148407142D01*
X275583234Y-148407142D02*
X275726091Y-148407142D01*
X275726091Y-148407142D02*
X275916567Y-148359523D01*
X275916567Y-148359523D02*
X276011805Y-148311904D01*
X276011805Y-148311904D02*
X276107044Y-148216666D01*
X276107044Y-148216666D02*
X276154663Y-148073809D01*
X276154663Y-148073809D02*
X276154663Y-147835714D01*
X276154663Y-149359523D02*
X276154663Y-148788095D01*
X276154663Y-149073809D02*
X275154663Y-149073809D01*
X275154663Y-149073809D02*
X275297520Y-148978571D01*
X275297520Y-148978571D02*
X275392758Y-148883333D01*
X275392758Y-148883333D02*
X275440377Y-148788095D01*
X275154663Y-150264285D02*
X275154663Y-149788095D01*
X275154663Y-149788095D02*
X275630853Y-149740476D01*
X275630853Y-149740476D02*
X275583234Y-149788095D01*
X275583234Y-149788095D02*
X275535615Y-149883333D01*
X275535615Y-149883333D02*
X275535615Y-150121428D01*
X275535615Y-150121428D02*
X275583234Y-150216666D01*
X275583234Y-150216666D02*
X275630853Y-150264285D01*
X275630853Y-150264285D02*
X275726091Y-150311904D01*
X275726091Y-150311904D02*
X275964186Y-150311904D01*
X275964186Y-150311904D02*
X276059424Y-150264285D01*
X276059424Y-150264285D02*
X276107044Y-150216666D01*
X276107044Y-150216666D02*
X276154663Y-150121428D01*
X276154663Y-150121428D02*
X276154663Y-149883333D01*
X276154663Y-149883333D02*
X276107044Y-149788095D01*
X276107044Y-149788095D02*
X276059424Y-149740476D01*
X185984663Y-109735714D02*
X184984663Y-109735714D01*
X184984663Y-109735714D02*
X184984663Y-109973809D01*
X184984663Y-109973809D02*
X185032282Y-110116666D01*
X185032282Y-110116666D02*
X185127520Y-110211904D01*
X185127520Y-110211904D02*
X185222758Y-110259523D01*
X185222758Y-110259523D02*
X185413234Y-110307142D01*
X185413234Y-110307142D02*
X185556091Y-110307142D01*
X185556091Y-110307142D02*
X185746567Y-110259523D01*
X185746567Y-110259523D02*
X185841805Y-110211904D01*
X185841805Y-110211904D02*
X185937044Y-110116666D01*
X185937044Y-110116666D02*
X185984663Y-109973809D01*
X185984663Y-109973809D02*
X185984663Y-109735714D01*
X184984663Y-110640476D02*
X184984663Y-111259523D01*
X184984663Y-111259523D02*
X185365615Y-110926190D01*
X185365615Y-110926190D02*
X185365615Y-111069047D01*
X185365615Y-111069047D02*
X185413234Y-111164285D01*
X185413234Y-111164285D02*
X185460853Y-111211904D01*
X185460853Y-111211904D02*
X185556091Y-111259523D01*
X185556091Y-111259523D02*
X185794186Y-111259523D01*
X185794186Y-111259523D02*
X185889424Y-111211904D01*
X185889424Y-111211904D02*
X185937044Y-111164285D01*
X185937044Y-111164285D02*
X185984663Y-111069047D01*
X185984663Y-111069047D02*
X185984663Y-110783333D01*
X185984663Y-110783333D02*
X185937044Y-110688095D01*
X185937044Y-110688095D02*
X185889424Y-110640476D01*
X184984663Y-111592857D02*
X184984663Y-112211904D01*
X184984663Y-112211904D02*
X185365615Y-111878571D01*
X185365615Y-111878571D02*
X185365615Y-112021428D01*
X185365615Y-112021428D02*
X185413234Y-112116666D01*
X185413234Y-112116666D02*
X185460853Y-112164285D01*
X185460853Y-112164285D02*
X185556091Y-112211904D01*
X185556091Y-112211904D02*
X185794186Y-112211904D01*
X185794186Y-112211904D02*
X185889424Y-112164285D01*
X185889424Y-112164285D02*
X185937044Y-112116666D01*
X185937044Y-112116666D02*
X185984663Y-112021428D01*
X185984663Y-112021428D02*
X185984663Y-111735714D01*
X185984663Y-111735714D02*
X185937044Y-111640476D01*
X185937044Y-111640476D02*
X185889424Y-111592857D01*
X166934663Y-147835714D02*
X165934663Y-147835714D01*
X165934663Y-147835714D02*
X165934663Y-148073809D01*
X165934663Y-148073809D02*
X165982282Y-148216666D01*
X165982282Y-148216666D02*
X166077520Y-148311904D01*
X166077520Y-148311904D02*
X166172758Y-148359523D01*
X166172758Y-148359523D02*
X166363234Y-148407142D01*
X166363234Y-148407142D02*
X166506091Y-148407142D01*
X166506091Y-148407142D02*
X166696567Y-148359523D01*
X166696567Y-148359523D02*
X166791805Y-148311904D01*
X166791805Y-148311904D02*
X166887044Y-148216666D01*
X166887044Y-148216666D02*
X166934663Y-148073809D01*
X166934663Y-148073809D02*
X166934663Y-147835714D01*
X166267996Y-149264285D02*
X166934663Y-149264285D01*
X165887044Y-149026190D02*
X166601329Y-148788095D01*
X166601329Y-148788095D02*
X166601329Y-149407142D01*
X166267996Y-150216666D02*
X166934663Y-150216666D01*
X165887044Y-149978571D02*
X166601329Y-149740476D01*
X166601329Y-149740476D02*
X166601329Y-150359523D01*
X349815853Y-132189285D02*
X349863472Y-132332142D01*
X349863472Y-132332142D02*
X349911091Y-132379761D01*
X349911091Y-132379761D02*
X350006329Y-132427380D01*
X350006329Y-132427380D02*
X350149186Y-132427380D01*
X350149186Y-132427380D02*
X350244424Y-132379761D01*
X350244424Y-132379761D02*
X350292044Y-132332142D01*
X350292044Y-132332142D02*
X350339663Y-132236904D01*
X350339663Y-132236904D02*
X350339663Y-131855952D01*
X350339663Y-131855952D02*
X349339663Y-131855952D01*
X349339663Y-131855952D02*
X349339663Y-132189285D01*
X349339663Y-132189285D02*
X349387282Y-132284523D01*
X349387282Y-132284523D02*
X349434901Y-132332142D01*
X349434901Y-132332142D02*
X349530139Y-132379761D01*
X349530139Y-132379761D02*
X349625377Y-132379761D01*
X349625377Y-132379761D02*
X349720615Y-132332142D01*
X349720615Y-132332142D02*
X349768234Y-132284523D01*
X349768234Y-132284523D02*
X349815853Y-132189285D01*
X349815853Y-132189285D02*
X349815853Y-131855952D01*
X349339663Y-132713095D02*
X349339663Y-133284523D01*
X350339663Y-132998809D02*
X349339663Y-132998809D01*
X350339663Y-134141666D02*
X350339663Y-133570238D01*
X350339663Y-133855952D02*
X349339663Y-133855952D01*
X349339663Y-133855952D02*
X349482520Y-133760714D01*
X349482520Y-133760714D02*
X349577758Y-133665476D01*
X349577758Y-133665476D02*
X349625377Y-133570238D01*
X128834663Y-190380714D02*
X127834663Y-190380714D01*
X127834663Y-190380714D02*
X127834663Y-190618809D01*
X127834663Y-190618809D02*
X127882282Y-190761666D01*
X127882282Y-190761666D02*
X127977520Y-190856904D01*
X127977520Y-190856904D02*
X128072758Y-190904523D01*
X128072758Y-190904523D02*
X128263234Y-190952142D01*
X128263234Y-190952142D02*
X128406091Y-190952142D01*
X128406091Y-190952142D02*
X128596567Y-190904523D01*
X128596567Y-190904523D02*
X128691805Y-190856904D01*
X128691805Y-190856904D02*
X128787044Y-190761666D01*
X128787044Y-190761666D02*
X128834663Y-190618809D01*
X128834663Y-190618809D02*
X128834663Y-190380714D01*
X127834663Y-191856904D02*
X127834663Y-191380714D01*
X127834663Y-191380714D02*
X128310853Y-191333095D01*
X128310853Y-191333095D02*
X128263234Y-191380714D01*
X128263234Y-191380714D02*
X128215615Y-191475952D01*
X128215615Y-191475952D02*
X128215615Y-191714047D01*
X128215615Y-191714047D02*
X128263234Y-191809285D01*
X128263234Y-191809285D02*
X128310853Y-191856904D01*
X128310853Y-191856904D02*
X128406091Y-191904523D01*
X128406091Y-191904523D02*
X128644186Y-191904523D01*
X128644186Y-191904523D02*
X128739424Y-191856904D01*
X128739424Y-191856904D02*
X128787044Y-191809285D01*
X128787044Y-191809285D02*
X128834663Y-191714047D01*
X128834663Y-191714047D02*
X128834663Y-191475952D01*
X128834663Y-191475952D02*
X128787044Y-191380714D01*
X128787044Y-191380714D02*
X128739424Y-191333095D01*
X127834663Y-192237857D02*
X127834663Y-192856904D01*
X127834663Y-192856904D02*
X128215615Y-192523571D01*
X128215615Y-192523571D02*
X128215615Y-192666428D01*
X128215615Y-192666428D02*
X128263234Y-192761666D01*
X128263234Y-192761666D02*
X128310853Y-192809285D01*
X128310853Y-192809285D02*
X128406091Y-192856904D01*
X128406091Y-192856904D02*
X128644186Y-192856904D01*
X128644186Y-192856904D02*
X128739424Y-192809285D01*
X128739424Y-192809285D02*
X128787044Y-192761666D01*
X128787044Y-192761666D02*
X128834663Y-192666428D01*
X128834663Y-192666428D02*
X128834663Y-192380714D01*
X128834663Y-192380714D02*
X128787044Y-192285476D01*
X128787044Y-192285476D02*
X128739424Y-192237857D01*
X147884663Y-147835714D02*
X146884663Y-147835714D01*
X146884663Y-147835714D02*
X146884663Y-148073809D01*
X146884663Y-148073809D02*
X146932282Y-148216666D01*
X146932282Y-148216666D02*
X147027520Y-148311904D01*
X147027520Y-148311904D02*
X147122758Y-148359523D01*
X147122758Y-148359523D02*
X147313234Y-148407142D01*
X147313234Y-148407142D02*
X147456091Y-148407142D01*
X147456091Y-148407142D02*
X147646567Y-148359523D01*
X147646567Y-148359523D02*
X147741805Y-148311904D01*
X147741805Y-148311904D02*
X147837044Y-148216666D01*
X147837044Y-148216666D02*
X147884663Y-148073809D01*
X147884663Y-148073809D02*
X147884663Y-147835714D01*
X147217996Y-149264285D02*
X147884663Y-149264285D01*
X146837044Y-149026190D02*
X147551329Y-148788095D01*
X147551329Y-148788095D02*
X147551329Y-149407142D01*
X146884663Y-149692857D02*
X146884663Y-150311904D01*
X146884663Y-150311904D02*
X147265615Y-149978571D01*
X147265615Y-149978571D02*
X147265615Y-150121428D01*
X147265615Y-150121428D02*
X147313234Y-150216666D01*
X147313234Y-150216666D02*
X147360853Y-150264285D01*
X147360853Y-150264285D02*
X147456091Y-150311904D01*
X147456091Y-150311904D02*
X147694186Y-150311904D01*
X147694186Y-150311904D02*
X147789424Y-150264285D01*
X147789424Y-150264285D02*
X147837044Y-150216666D01*
X147837044Y-150216666D02*
X147884663Y-150121428D01*
X147884663Y-150121428D02*
X147884663Y-149835714D01*
X147884663Y-149835714D02*
X147837044Y-149740476D01*
X147837044Y-149740476D02*
X147789424Y-149692857D01*
X295204663Y-110211905D02*
X294204663Y-110211905D01*
X294204663Y-110211905D02*
X294204663Y-110450000D01*
X294204663Y-110450000D02*
X294252282Y-110592857D01*
X294252282Y-110592857D02*
X294347520Y-110688095D01*
X294347520Y-110688095D02*
X294442758Y-110735714D01*
X294442758Y-110735714D02*
X294633234Y-110783333D01*
X294633234Y-110783333D02*
X294776091Y-110783333D01*
X294776091Y-110783333D02*
X294966567Y-110735714D01*
X294966567Y-110735714D02*
X295061805Y-110688095D01*
X295061805Y-110688095D02*
X295157044Y-110592857D01*
X295157044Y-110592857D02*
X295204663Y-110450000D01*
X295204663Y-110450000D02*
X295204663Y-110211905D01*
X294537996Y-111640476D02*
X295204663Y-111640476D01*
X294157044Y-111402381D02*
X294871329Y-111164286D01*
X294871329Y-111164286D02*
X294871329Y-111783333D01*
X109784663Y-125760714D02*
X108784663Y-125760714D01*
X108784663Y-125760714D02*
X108784663Y-125998809D01*
X108784663Y-125998809D02*
X108832282Y-126141666D01*
X108832282Y-126141666D02*
X108927520Y-126236904D01*
X108927520Y-126236904D02*
X109022758Y-126284523D01*
X109022758Y-126284523D02*
X109213234Y-126332142D01*
X109213234Y-126332142D02*
X109356091Y-126332142D01*
X109356091Y-126332142D02*
X109546567Y-126284523D01*
X109546567Y-126284523D02*
X109641805Y-126236904D01*
X109641805Y-126236904D02*
X109737044Y-126141666D01*
X109737044Y-126141666D02*
X109784663Y-125998809D01*
X109784663Y-125998809D02*
X109784663Y-125760714D01*
X108784663Y-126665476D02*
X108784663Y-127284523D01*
X108784663Y-127284523D02*
X109165615Y-126951190D01*
X109165615Y-126951190D02*
X109165615Y-127094047D01*
X109165615Y-127094047D02*
X109213234Y-127189285D01*
X109213234Y-127189285D02*
X109260853Y-127236904D01*
X109260853Y-127236904D02*
X109356091Y-127284523D01*
X109356091Y-127284523D02*
X109594186Y-127284523D01*
X109594186Y-127284523D02*
X109689424Y-127236904D01*
X109689424Y-127236904D02*
X109737044Y-127189285D01*
X109737044Y-127189285D02*
X109784663Y-127094047D01*
X109784663Y-127094047D02*
X109784663Y-126808333D01*
X109784663Y-126808333D02*
X109737044Y-126713095D01*
X109737044Y-126713095D02*
X109689424Y-126665476D01*
X108784663Y-128189285D02*
X108784663Y-127713095D01*
X108784663Y-127713095D02*
X109260853Y-127665476D01*
X109260853Y-127665476D02*
X109213234Y-127713095D01*
X109213234Y-127713095D02*
X109165615Y-127808333D01*
X109165615Y-127808333D02*
X109165615Y-128046428D01*
X109165615Y-128046428D02*
X109213234Y-128141666D01*
X109213234Y-128141666D02*
X109260853Y-128189285D01*
X109260853Y-128189285D02*
X109356091Y-128236904D01*
X109356091Y-128236904D02*
X109594186Y-128236904D01*
X109594186Y-128236904D02*
X109689424Y-128189285D01*
X109689424Y-128189285D02*
X109737044Y-128141666D01*
X109737044Y-128141666D02*
X109784663Y-128046428D01*
X109784663Y-128046428D02*
X109784663Y-127808333D01*
X109784663Y-127808333D02*
X109737044Y-127713095D01*
X109737044Y-127713095D02*
X109689424Y-127665476D01*
X109784663Y-109735714D02*
X108784663Y-109735714D01*
X108784663Y-109735714D02*
X108784663Y-109973809D01*
X108784663Y-109973809D02*
X108832282Y-110116666D01*
X108832282Y-110116666D02*
X108927520Y-110211904D01*
X108927520Y-110211904D02*
X109022758Y-110259523D01*
X109022758Y-110259523D02*
X109213234Y-110307142D01*
X109213234Y-110307142D02*
X109356091Y-110307142D01*
X109356091Y-110307142D02*
X109546567Y-110259523D01*
X109546567Y-110259523D02*
X109641805Y-110211904D01*
X109641805Y-110211904D02*
X109737044Y-110116666D01*
X109737044Y-110116666D02*
X109784663Y-109973809D01*
X109784663Y-109973809D02*
X109784663Y-109735714D01*
X108879901Y-110688095D02*
X108832282Y-110735714D01*
X108832282Y-110735714D02*
X108784663Y-110830952D01*
X108784663Y-110830952D02*
X108784663Y-111069047D01*
X108784663Y-111069047D02*
X108832282Y-111164285D01*
X108832282Y-111164285D02*
X108879901Y-111211904D01*
X108879901Y-111211904D02*
X108975139Y-111259523D01*
X108975139Y-111259523D02*
X109070377Y-111259523D01*
X109070377Y-111259523D02*
X109213234Y-111211904D01*
X109213234Y-111211904D02*
X109784663Y-110640476D01*
X109784663Y-110640476D02*
X109784663Y-111259523D01*
X109784663Y-111735714D02*
X109784663Y-111926190D01*
X109784663Y-111926190D02*
X109737044Y-112021428D01*
X109737044Y-112021428D02*
X109689424Y-112069047D01*
X109689424Y-112069047D02*
X109546567Y-112164285D01*
X109546567Y-112164285D02*
X109356091Y-112211904D01*
X109356091Y-112211904D02*
X108975139Y-112211904D01*
X108975139Y-112211904D02*
X108879901Y-112164285D01*
X108879901Y-112164285D02*
X108832282Y-112116666D01*
X108832282Y-112116666D02*
X108784663Y-112021428D01*
X108784663Y-112021428D02*
X108784663Y-111830952D01*
X108784663Y-111830952D02*
X108832282Y-111735714D01*
X108832282Y-111735714D02*
X108879901Y-111688095D01*
X108879901Y-111688095D02*
X108975139Y-111640476D01*
X108975139Y-111640476D02*
X109213234Y-111640476D01*
X109213234Y-111640476D02*
X109308472Y-111688095D01*
X109308472Y-111688095D02*
X109356091Y-111735714D01*
X109356091Y-111735714D02*
X109403710Y-111830952D01*
X109403710Y-111830952D02*
X109403710Y-112021428D01*
X109403710Y-112021428D02*
X109356091Y-112116666D01*
X109356091Y-112116666D02*
X109308472Y-112164285D01*
X109308472Y-112164285D02*
X109213234Y-112211904D01*
X295204663Y-166885714D02*
X294204663Y-166885714D01*
X294204663Y-166885714D02*
X294204663Y-167123809D01*
X294204663Y-167123809D02*
X294252282Y-167266666D01*
X294252282Y-167266666D02*
X294347520Y-167361904D01*
X294347520Y-167361904D02*
X294442758Y-167409523D01*
X294442758Y-167409523D02*
X294633234Y-167457142D01*
X294633234Y-167457142D02*
X294776091Y-167457142D01*
X294776091Y-167457142D02*
X294966567Y-167409523D01*
X294966567Y-167409523D02*
X295061805Y-167361904D01*
X295061805Y-167361904D02*
X295157044Y-167266666D01*
X295157044Y-167266666D02*
X295204663Y-167123809D01*
X295204663Y-167123809D02*
X295204663Y-166885714D01*
X294299901Y-167838095D02*
X294252282Y-167885714D01*
X294252282Y-167885714D02*
X294204663Y-167980952D01*
X294204663Y-167980952D02*
X294204663Y-168219047D01*
X294204663Y-168219047D02*
X294252282Y-168314285D01*
X294252282Y-168314285D02*
X294299901Y-168361904D01*
X294299901Y-168361904D02*
X294395139Y-168409523D01*
X294395139Y-168409523D02*
X294490377Y-168409523D01*
X294490377Y-168409523D02*
X294633234Y-168361904D01*
X294633234Y-168361904D02*
X295204663Y-167790476D01*
X295204663Y-167790476D02*
X295204663Y-168409523D01*
X294299901Y-168790476D02*
X294252282Y-168838095D01*
X294252282Y-168838095D02*
X294204663Y-168933333D01*
X294204663Y-168933333D02*
X294204663Y-169171428D01*
X294204663Y-169171428D02*
X294252282Y-169266666D01*
X294252282Y-169266666D02*
X294299901Y-169314285D01*
X294299901Y-169314285D02*
X294395139Y-169361904D01*
X294395139Y-169361904D02*
X294490377Y-169361904D01*
X294490377Y-169361904D02*
X294633234Y-169314285D01*
X294633234Y-169314285D02*
X295204663Y-168742857D01*
X295204663Y-168742857D02*
X295204663Y-169361904D01*
X333304663Y-110211905D02*
X332304663Y-110211905D01*
X332304663Y-110211905D02*
X332304663Y-110450000D01*
X332304663Y-110450000D02*
X332352282Y-110592857D01*
X332352282Y-110592857D02*
X332447520Y-110688095D01*
X332447520Y-110688095D02*
X332542758Y-110735714D01*
X332542758Y-110735714D02*
X332733234Y-110783333D01*
X332733234Y-110783333D02*
X332876091Y-110783333D01*
X332876091Y-110783333D02*
X333066567Y-110735714D01*
X333066567Y-110735714D02*
X333161805Y-110688095D01*
X333161805Y-110688095D02*
X333257044Y-110592857D01*
X333257044Y-110592857D02*
X333304663Y-110450000D01*
X333304663Y-110450000D02*
X333304663Y-110211905D01*
X332304663Y-111640476D02*
X332304663Y-111450000D01*
X332304663Y-111450000D02*
X332352282Y-111354762D01*
X332352282Y-111354762D02*
X332399901Y-111307143D01*
X332399901Y-111307143D02*
X332542758Y-111211905D01*
X332542758Y-111211905D02*
X332733234Y-111164286D01*
X332733234Y-111164286D02*
X333114186Y-111164286D01*
X333114186Y-111164286D02*
X333209424Y-111211905D01*
X333209424Y-111211905D02*
X333257044Y-111259524D01*
X333257044Y-111259524D02*
X333304663Y-111354762D01*
X333304663Y-111354762D02*
X333304663Y-111545238D01*
X333304663Y-111545238D02*
X333257044Y-111640476D01*
X333257044Y-111640476D02*
X333209424Y-111688095D01*
X333209424Y-111688095D02*
X333114186Y-111735714D01*
X333114186Y-111735714D02*
X332876091Y-111735714D01*
X332876091Y-111735714D02*
X332780853Y-111688095D01*
X332780853Y-111688095D02*
X332733234Y-111640476D01*
X332733234Y-111640476D02*
X332685615Y-111545238D01*
X332685615Y-111545238D02*
X332685615Y-111354762D01*
X332685615Y-111354762D02*
X332733234Y-111259524D01*
X332733234Y-111259524D02*
X332780853Y-111211905D01*
X332780853Y-111211905D02*
X332876091Y-111164286D01*
X295204663Y-190380714D02*
X294204663Y-190380714D01*
X294204663Y-190380714D02*
X294204663Y-190618809D01*
X294204663Y-190618809D02*
X294252282Y-190761666D01*
X294252282Y-190761666D02*
X294347520Y-190856904D01*
X294347520Y-190856904D02*
X294442758Y-190904523D01*
X294442758Y-190904523D02*
X294633234Y-190952142D01*
X294633234Y-190952142D02*
X294776091Y-190952142D01*
X294776091Y-190952142D02*
X294966567Y-190904523D01*
X294966567Y-190904523D02*
X295061805Y-190856904D01*
X295061805Y-190856904D02*
X295157044Y-190761666D01*
X295157044Y-190761666D02*
X295204663Y-190618809D01*
X295204663Y-190618809D02*
X295204663Y-190380714D01*
X294299901Y-191333095D02*
X294252282Y-191380714D01*
X294252282Y-191380714D02*
X294204663Y-191475952D01*
X294204663Y-191475952D02*
X294204663Y-191714047D01*
X294204663Y-191714047D02*
X294252282Y-191809285D01*
X294252282Y-191809285D02*
X294299901Y-191856904D01*
X294299901Y-191856904D02*
X294395139Y-191904523D01*
X294395139Y-191904523D02*
X294490377Y-191904523D01*
X294490377Y-191904523D02*
X294633234Y-191856904D01*
X294633234Y-191856904D02*
X295204663Y-191285476D01*
X295204663Y-191285476D02*
X295204663Y-191904523D01*
X294204663Y-192809285D02*
X294204663Y-192333095D01*
X294204663Y-192333095D02*
X294680853Y-192285476D01*
X294680853Y-192285476D02*
X294633234Y-192333095D01*
X294633234Y-192333095D02*
X294585615Y-192428333D01*
X294585615Y-192428333D02*
X294585615Y-192666428D01*
X294585615Y-192666428D02*
X294633234Y-192761666D01*
X294633234Y-192761666D02*
X294680853Y-192809285D01*
X294680853Y-192809285D02*
X294776091Y-192856904D01*
X294776091Y-192856904D02*
X295014186Y-192856904D01*
X295014186Y-192856904D02*
X295109424Y-192809285D01*
X295109424Y-192809285D02*
X295157044Y-192761666D01*
X295157044Y-192761666D02*
X295204663Y-192666428D01*
X295204663Y-192666428D02*
X295204663Y-192428333D01*
X295204663Y-192428333D02*
X295157044Y-192333095D01*
X295157044Y-192333095D02*
X295109424Y-192285476D01*
X295204663Y-128785714D02*
X294204663Y-128785714D01*
X294204663Y-128785714D02*
X294204663Y-129023809D01*
X294204663Y-129023809D02*
X294252282Y-129166666D01*
X294252282Y-129166666D02*
X294347520Y-129261904D01*
X294347520Y-129261904D02*
X294442758Y-129309523D01*
X294442758Y-129309523D02*
X294633234Y-129357142D01*
X294633234Y-129357142D02*
X294776091Y-129357142D01*
X294776091Y-129357142D02*
X294966567Y-129309523D01*
X294966567Y-129309523D02*
X295061805Y-129261904D01*
X295061805Y-129261904D02*
X295157044Y-129166666D01*
X295157044Y-129166666D02*
X295204663Y-129023809D01*
X295204663Y-129023809D02*
X295204663Y-128785714D01*
X295204663Y-130309523D02*
X295204663Y-129738095D01*
X295204663Y-130023809D02*
X294204663Y-130023809D01*
X294204663Y-130023809D02*
X294347520Y-129928571D01*
X294347520Y-129928571D02*
X294442758Y-129833333D01*
X294442758Y-129833333D02*
X294490377Y-129738095D01*
X294204663Y-130928571D02*
X294204663Y-131023809D01*
X294204663Y-131023809D02*
X294252282Y-131119047D01*
X294252282Y-131119047D02*
X294299901Y-131166666D01*
X294299901Y-131166666D02*
X294395139Y-131214285D01*
X294395139Y-131214285D02*
X294585615Y-131261904D01*
X294585615Y-131261904D02*
X294823710Y-131261904D01*
X294823710Y-131261904D02*
X295014186Y-131214285D01*
X295014186Y-131214285D02*
X295109424Y-131166666D01*
X295109424Y-131166666D02*
X295157044Y-131119047D01*
X295157044Y-131119047D02*
X295204663Y-131023809D01*
X295204663Y-131023809D02*
X295204663Y-130928571D01*
X295204663Y-130928571D02*
X295157044Y-130833333D01*
X295157044Y-130833333D02*
X295109424Y-130785714D01*
X295109424Y-130785714D02*
X295014186Y-130738095D01*
X295014186Y-130738095D02*
X294823710Y-130690476D01*
X294823710Y-130690476D02*
X294585615Y-130690476D01*
X294585615Y-130690476D02*
X294395139Y-130738095D01*
X294395139Y-130738095D02*
X294299901Y-130785714D01*
X294299901Y-130785714D02*
X294252282Y-130833333D01*
X294252282Y-130833333D02*
X294204663Y-130928571D01*
X185984663Y-147835714D02*
X184984663Y-147835714D01*
X184984663Y-147835714D02*
X184984663Y-148073809D01*
X184984663Y-148073809D02*
X185032282Y-148216666D01*
X185032282Y-148216666D02*
X185127520Y-148311904D01*
X185127520Y-148311904D02*
X185222758Y-148359523D01*
X185222758Y-148359523D02*
X185413234Y-148407142D01*
X185413234Y-148407142D02*
X185556091Y-148407142D01*
X185556091Y-148407142D02*
X185746567Y-148359523D01*
X185746567Y-148359523D02*
X185841805Y-148311904D01*
X185841805Y-148311904D02*
X185937044Y-148216666D01*
X185937044Y-148216666D02*
X185984663Y-148073809D01*
X185984663Y-148073809D02*
X185984663Y-147835714D01*
X185317996Y-149264285D02*
X185984663Y-149264285D01*
X184937044Y-149026190D02*
X185651329Y-148788095D01*
X185651329Y-148788095D02*
X185651329Y-149407142D01*
X184984663Y-150264285D02*
X184984663Y-149788095D01*
X184984663Y-149788095D02*
X185460853Y-149740476D01*
X185460853Y-149740476D02*
X185413234Y-149788095D01*
X185413234Y-149788095D02*
X185365615Y-149883333D01*
X185365615Y-149883333D02*
X185365615Y-150121428D01*
X185365615Y-150121428D02*
X185413234Y-150216666D01*
X185413234Y-150216666D02*
X185460853Y-150264285D01*
X185460853Y-150264285D02*
X185556091Y-150311904D01*
X185556091Y-150311904D02*
X185794186Y-150311904D01*
X185794186Y-150311904D02*
X185889424Y-150264285D01*
X185889424Y-150264285D02*
X185937044Y-150216666D01*
X185937044Y-150216666D02*
X185984663Y-150121428D01*
X185984663Y-150121428D02*
X185984663Y-149883333D01*
X185984663Y-149883333D02*
X185937044Y-149788095D01*
X185937044Y-149788095D02*
X185889424Y-149740476D01*
X128834663Y-147835714D02*
X127834663Y-147835714D01*
X127834663Y-147835714D02*
X127834663Y-148073809D01*
X127834663Y-148073809D02*
X127882282Y-148216666D01*
X127882282Y-148216666D02*
X127977520Y-148311904D01*
X127977520Y-148311904D02*
X128072758Y-148359523D01*
X128072758Y-148359523D02*
X128263234Y-148407142D01*
X128263234Y-148407142D02*
X128406091Y-148407142D01*
X128406091Y-148407142D02*
X128596567Y-148359523D01*
X128596567Y-148359523D02*
X128691805Y-148311904D01*
X128691805Y-148311904D02*
X128787044Y-148216666D01*
X128787044Y-148216666D02*
X128834663Y-148073809D01*
X128834663Y-148073809D02*
X128834663Y-147835714D01*
X128167996Y-149264285D02*
X128834663Y-149264285D01*
X127787044Y-149026190D02*
X128501329Y-148788095D01*
X128501329Y-148788095D02*
X128501329Y-149407142D01*
X127929901Y-149740476D02*
X127882282Y-149788095D01*
X127882282Y-149788095D02*
X127834663Y-149883333D01*
X127834663Y-149883333D02*
X127834663Y-150121428D01*
X127834663Y-150121428D02*
X127882282Y-150216666D01*
X127882282Y-150216666D02*
X127929901Y-150264285D01*
X127929901Y-150264285D02*
X128025139Y-150311904D01*
X128025139Y-150311904D02*
X128120377Y-150311904D01*
X128120377Y-150311904D02*
X128263234Y-150264285D01*
X128263234Y-150264285D02*
X128834663Y-149692857D01*
X128834663Y-149692857D02*
X128834663Y-150311904D01*
X205034663Y-109735714D02*
X204034663Y-109735714D01*
X204034663Y-109735714D02*
X204034663Y-109973809D01*
X204034663Y-109973809D02*
X204082282Y-110116666D01*
X204082282Y-110116666D02*
X204177520Y-110211904D01*
X204177520Y-110211904D02*
X204272758Y-110259523D01*
X204272758Y-110259523D02*
X204463234Y-110307142D01*
X204463234Y-110307142D02*
X204606091Y-110307142D01*
X204606091Y-110307142D02*
X204796567Y-110259523D01*
X204796567Y-110259523D02*
X204891805Y-110211904D01*
X204891805Y-110211904D02*
X204987044Y-110116666D01*
X204987044Y-110116666D02*
X205034663Y-109973809D01*
X205034663Y-109973809D02*
X205034663Y-109735714D01*
X204034663Y-110640476D02*
X204034663Y-111259523D01*
X204034663Y-111259523D02*
X204415615Y-110926190D01*
X204415615Y-110926190D02*
X204415615Y-111069047D01*
X204415615Y-111069047D02*
X204463234Y-111164285D01*
X204463234Y-111164285D02*
X204510853Y-111211904D01*
X204510853Y-111211904D02*
X204606091Y-111259523D01*
X204606091Y-111259523D02*
X204844186Y-111259523D01*
X204844186Y-111259523D02*
X204939424Y-111211904D01*
X204939424Y-111211904D02*
X204987044Y-111164285D01*
X204987044Y-111164285D02*
X205034663Y-111069047D01*
X205034663Y-111069047D02*
X205034663Y-110783333D01*
X205034663Y-110783333D02*
X204987044Y-110688095D01*
X204987044Y-110688095D02*
X204939424Y-110640476D01*
X204367996Y-112116666D02*
X205034663Y-112116666D01*
X203987044Y-111878571D02*
X204701329Y-111640476D01*
X204701329Y-111640476D02*
X204701329Y-112259523D01*
X295204663Y-147835714D02*
X294204663Y-147835714D01*
X294204663Y-147835714D02*
X294204663Y-148073809D01*
X294204663Y-148073809D02*
X294252282Y-148216666D01*
X294252282Y-148216666D02*
X294347520Y-148311904D01*
X294347520Y-148311904D02*
X294442758Y-148359523D01*
X294442758Y-148359523D02*
X294633234Y-148407142D01*
X294633234Y-148407142D02*
X294776091Y-148407142D01*
X294776091Y-148407142D02*
X294966567Y-148359523D01*
X294966567Y-148359523D02*
X295061805Y-148311904D01*
X295061805Y-148311904D02*
X295157044Y-148216666D01*
X295157044Y-148216666D02*
X295204663Y-148073809D01*
X295204663Y-148073809D02*
X295204663Y-147835714D01*
X295204663Y-149359523D02*
X295204663Y-148788095D01*
X295204663Y-149073809D02*
X294204663Y-149073809D01*
X294204663Y-149073809D02*
X294347520Y-148978571D01*
X294347520Y-148978571D02*
X294442758Y-148883333D01*
X294442758Y-148883333D02*
X294490377Y-148788095D01*
X294204663Y-150216666D02*
X294204663Y-150026190D01*
X294204663Y-150026190D02*
X294252282Y-149930952D01*
X294252282Y-149930952D02*
X294299901Y-149883333D01*
X294299901Y-149883333D02*
X294442758Y-149788095D01*
X294442758Y-149788095D02*
X294633234Y-149740476D01*
X294633234Y-149740476D02*
X295014186Y-149740476D01*
X295014186Y-149740476D02*
X295109424Y-149788095D01*
X295109424Y-149788095D02*
X295157044Y-149835714D01*
X295157044Y-149835714D02*
X295204663Y-149930952D01*
X295204663Y-149930952D02*
X295204663Y-150121428D01*
X295204663Y-150121428D02*
X295157044Y-150216666D01*
X295157044Y-150216666D02*
X295109424Y-150264285D01*
X295109424Y-150264285D02*
X295014186Y-150311904D01*
X295014186Y-150311904D02*
X294776091Y-150311904D01*
X294776091Y-150311904D02*
X294680853Y-150264285D01*
X294680853Y-150264285D02*
X294633234Y-150216666D01*
X294633234Y-150216666D02*
X294585615Y-150121428D01*
X294585615Y-150121428D02*
X294585615Y-149930952D01*
X294585615Y-149930952D02*
X294633234Y-149835714D01*
X294633234Y-149835714D02*
X294680853Y-149788095D01*
X294680853Y-149788095D02*
X294776091Y-149740476D01*
X238054663Y-110211905D02*
X237054663Y-110211905D01*
X237054663Y-110211905D02*
X237054663Y-110450000D01*
X237054663Y-110450000D02*
X237102282Y-110592857D01*
X237102282Y-110592857D02*
X237197520Y-110688095D01*
X237197520Y-110688095D02*
X237292758Y-110735714D01*
X237292758Y-110735714D02*
X237483234Y-110783333D01*
X237483234Y-110783333D02*
X237626091Y-110783333D01*
X237626091Y-110783333D02*
X237816567Y-110735714D01*
X237816567Y-110735714D02*
X237911805Y-110688095D01*
X237911805Y-110688095D02*
X238007044Y-110592857D01*
X238007044Y-110592857D02*
X238054663Y-110450000D01*
X238054663Y-110450000D02*
X238054663Y-110211905D01*
X238054663Y-111735714D02*
X238054663Y-111164286D01*
X238054663Y-111450000D02*
X237054663Y-111450000D01*
X237054663Y-111450000D02*
X237197520Y-111354762D01*
X237197520Y-111354762D02*
X237292758Y-111259524D01*
X237292758Y-111259524D02*
X237340377Y-111164286D01*
X257104663Y-166885714D02*
X256104663Y-166885714D01*
X256104663Y-166885714D02*
X256104663Y-167123809D01*
X256104663Y-167123809D02*
X256152282Y-167266666D01*
X256152282Y-167266666D02*
X256247520Y-167361904D01*
X256247520Y-167361904D02*
X256342758Y-167409523D01*
X256342758Y-167409523D02*
X256533234Y-167457142D01*
X256533234Y-167457142D02*
X256676091Y-167457142D01*
X256676091Y-167457142D02*
X256866567Y-167409523D01*
X256866567Y-167409523D02*
X256961805Y-167361904D01*
X256961805Y-167361904D02*
X257057044Y-167266666D01*
X257057044Y-167266666D02*
X257104663Y-167123809D01*
X257104663Y-167123809D02*
X257104663Y-166885714D01*
X256199901Y-167838095D02*
X256152282Y-167885714D01*
X256152282Y-167885714D02*
X256104663Y-167980952D01*
X256104663Y-167980952D02*
X256104663Y-168219047D01*
X256104663Y-168219047D02*
X256152282Y-168314285D01*
X256152282Y-168314285D02*
X256199901Y-168361904D01*
X256199901Y-168361904D02*
X256295139Y-168409523D01*
X256295139Y-168409523D02*
X256390377Y-168409523D01*
X256390377Y-168409523D02*
X256533234Y-168361904D01*
X256533234Y-168361904D02*
X257104663Y-167790476D01*
X257104663Y-167790476D02*
X257104663Y-168409523D01*
X256104663Y-169028571D02*
X256104663Y-169123809D01*
X256104663Y-169123809D02*
X256152282Y-169219047D01*
X256152282Y-169219047D02*
X256199901Y-169266666D01*
X256199901Y-169266666D02*
X256295139Y-169314285D01*
X256295139Y-169314285D02*
X256485615Y-169361904D01*
X256485615Y-169361904D02*
X256723710Y-169361904D01*
X256723710Y-169361904D02*
X256914186Y-169314285D01*
X256914186Y-169314285D02*
X257009424Y-169266666D01*
X257009424Y-169266666D02*
X257057044Y-169219047D01*
X257057044Y-169219047D02*
X257104663Y-169123809D01*
X257104663Y-169123809D02*
X257104663Y-169028571D01*
X257104663Y-169028571D02*
X257057044Y-168933333D01*
X257057044Y-168933333D02*
X257009424Y-168885714D01*
X257009424Y-168885714D02*
X256914186Y-168838095D01*
X256914186Y-168838095D02*
X256723710Y-168790476D01*
X256723710Y-168790476D02*
X256485615Y-168790476D01*
X256485615Y-168790476D02*
X256295139Y-168838095D01*
X256295139Y-168838095D02*
X256199901Y-168885714D01*
X256199901Y-168885714D02*
X256152282Y-168933333D01*
X256152282Y-168933333D02*
X256104663Y-169028571D01*
X108659663Y-133041666D02*
X109373948Y-133041666D01*
X109373948Y-133041666D02*
X109516805Y-132994047D01*
X109516805Y-132994047D02*
X109612044Y-132898809D01*
X109612044Y-132898809D02*
X109659663Y-132755952D01*
X109659663Y-132755952D02*
X109659663Y-132660714D01*
X108754901Y-133470238D02*
X108707282Y-133517857D01*
X108707282Y-133517857D02*
X108659663Y-133613095D01*
X108659663Y-133613095D02*
X108659663Y-133851190D01*
X108659663Y-133851190D02*
X108707282Y-133946428D01*
X108707282Y-133946428D02*
X108754901Y-133994047D01*
X108754901Y-133994047D02*
X108850139Y-134041666D01*
X108850139Y-134041666D02*
X108945377Y-134041666D01*
X108945377Y-134041666D02*
X109088234Y-133994047D01*
X109088234Y-133994047D02*
X109659663Y-133422619D01*
X109659663Y-133422619D02*
X109659663Y-134041666D01*
X257104663Y-147835714D02*
X256104663Y-147835714D01*
X256104663Y-147835714D02*
X256104663Y-148073809D01*
X256104663Y-148073809D02*
X256152282Y-148216666D01*
X256152282Y-148216666D02*
X256247520Y-148311904D01*
X256247520Y-148311904D02*
X256342758Y-148359523D01*
X256342758Y-148359523D02*
X256533234Y-148407142D01*
X256533234Y-148407142D02*
X256676091Y-148407142D01*
X256676091Y-148407142D02*
X256866567Y-148359523D01*
X256866567Y-148359523D02*
X256961805Y-148311904D01*
X256961805Y-148311904D02*
X257057044Y-148216666D01*
X257057044Y-148216666D02*
X257104663Y-148073809D01*
X257104663Y-148073809D02*
X257104663Y-147835714D01*
X257104663Y-149359523D02*
X257104663Y-148788095D01*
X257104663Y-149073809D02*
X256104663Y-149073809D01*
X256104663Y-149073809D02*
X256247520Y-148978571D01*
X256247520Y-148978571D02*
X256342758Y-148883333D01*
X256342758Y-148883333D02*
X256390377Y-148788095D01*
X256437996Y-150216666D02*
X257104663Y-150216666D01*
X256057044Y-149978571D02*
X256771329Y-149740476D01*
X256771329Y-149740476D02*
X256771329Y-150359523D01*
X185984663Y-166885714D02*
X184984663Y-166885714D01*
X184984663Y-166885714D02*
X184984663Y-167123809D01*
X184984663Y-167123809D02*
X185032282Y-167266666D01*
X185032282Y-167266666D02*
X185127520Y-167361904D01*
X185127520Y-167361904D02*
X185222758Y-167409523D01*
X185222758Y-167409523D02*
X185413234Y-167457142D01*
X185413234Y-167457142D02*
X185556091Y-167457142D01*
X185556091Y-167457142D02*
X185746567Y-167409523D01*
X185746567Y-167409523D02*
X185841805Y-167361904D01*
X185841805Y-167361904D02*
X185937044Y-167266666D01*
X185937044Y-167266666D02*
X185984663Y-167123809D01*
X185984663Y-167123809D02*
X185984663Y-166885714D01*
X184984663Y-168361904D02*
X184984663Y-167885714D01*
X184984663Y-167885714D02*
X185460853Y-167838095D01*
X185460853Y-167838095D02*
X185413234Y-167885714D01*
X185413234Y-167885714D02*
X185365615Y-167980952D01*
X185365615Y-167980952D02*
X185365615Y-168219047D01*
X185365615Y-168219047D02*
X185413234Y-168314285D01*
X185413234Y-168314285D02*
X185460853Y-168361904D01*
X185460853Y-168361904D02*
X185556091Y-168409523D01*
X185556091Y-168409523D02*
X185794186Y-168409523D01*
X185794186Y-168409523D02*
X185889424Y-168361904D01*
X185889424Y-168361904D02*
X185937044Y-168314285D01*
X185937044Y-168314285D02*
X185984663Y-168219047D01*
X185984663Y-168219047D02*
X185984663Y-167980952D01*
X185984663Y-167980952D02*
X185937044Y-167885714D01*
X185937044Y-167885714D02*
X185889424Y-167838095D01*
X185984663Y-169361904D02*
X185984663Y-168790476D01*
X185984663Y-169076190D02*
X184984663Y-169076190D01*
X184984663Y-169076190D02*
X185127520Y-168980952D01*
X185127520Y-168980952D02*
X185222758Y-168885714D01*
X185222758Y-168885714D02*
X185270377Y-168790476D01*
X205034663Y-128785714D02*
X204034663Y-128785714D01*
X204034663Y-128785714D02*
X204034663Y-129023809D01*
X204034663Y-129023809D02*
X204082282Y-129166666D01*
X204082282Y-129166666D02*
X204177520Y-129261904D01*
X204177520Y-129261904D02*
X204272758Y-129309523D01*
X204272758Y-129309523D02*
X204463234Y-129357142D01*
X204463234Y-129357142D02*
X204606091Y-129357142D01*
X204606091Y-129357142D02*
X204796567Y-129309523D01*
X204796567Y-129309523D02*
X204891805Y-129261904D01*
X204891805Y-129261904D02*
X204987044Y-129166666D01*
X204987044Y-129166666D02*
X205034663Y-129023809D01*
X205034663Y-129023809D02*
X205034663Y-128785714D01*
X204367996Y-130214285D02*
X205034663Y-130214285D01*
X203987044Y-129976190D02*
X204701329Y-129738095D01*
X204701329Y-129738095D02*
X204701329Y-130357142D01*
X204034663Y-130928571D02*
X204034663Y-131023809D01*
X204034663Y-131023809D02*
X204082282Y-131119047D01*
X204082282Y-131119047D02*
X204129901Y-131166666D01*
X204129901Y-131166666D02*
X204225139Y-131214285D01*
X204225139Y-131214285D02*
X204415615Y-131261904D01*
X204415615Y-131261904D02*
X204653710Y-131261904D01*
X204653710Y-131261904D02*
X204844186Y-131214285D01*
X204844186Y-131214285D02*
X204939424Y-131166666D01*
X204939424Y-131166666D02*
X204987044Y-131119047D01*
X204987044Y-131119047D02*
X205034663Y-131023809D01*
X205034663Y-131023809D02*
X205034663Y-130928571D01*
X205034663Y-130928571D02*
X204987044Y-130833333D01*
X204987044Y-130833333D02*
X204939424Y-130785714D01*
X204939424Y-130785714D02*
X204844186Y-130738095D01*
X204844186Y-130738095D02*
X204653710Y-130690476D01*
X204653710Y-130690476D02*
X204415615Y-130690476D01*
X204415615Y-130690476D02*
X204225139Y-130738095D01*
X204225139Y-130738095D02*
X204129901Y-130785714D01*
X204129901Y-130785714D02*
X204082282Y-130833333D01*
X204082282Y-130833333D02*
X204034663Y-130928571D01*
X314254663Y-190380714D02*
X313254663Y-190380714D01*
X313254663Y-190380714D02*
X313254663Y-190618809D01*
X313254663Y-190618809D02*
X313302282Y-190761666D01*
X313302282Y-190761666D02*
X313397520Y-190856904D01*
X313397520Y-190856904D02*
X313492758Y-190904523D01*
X313492758Y-190904523D02*
X313683234Y-190952142D01*
X313683234Y-190952142D02*
X313826091Y-190952142D01*
X313826091Y-190952142D02*
X314016567Y-190904523D01*
X314016567Y-190904523D02*
X314111805Y-190856904D01*
X314111805Y-190856904D02*
X314207044Y-190761666D01*
X314207044Y-190761666D02*
X314254663Y-190618809D01*
X314254663Y-190618809D02*
X314254663Y-190380714D01*
X313349901Y-191333095D02*
X313302282Y-191380714D01*
X313302282Y-191380714D02*
X313254663Y-191475952D01*
X313254663Y-191475952D02*
X313254663Y-191714047D01*
X313254663Y-191714047D02*
X313302282Y-191809285D01*
X313302282Y-191809285D02*
X313349901Y-191856904D01*
X313349901Y-191856904D02*
X313445139Y-191904523D01*
X313445139Y-191904523D02*
X313540377Y-191904523D01*
X313540377Y-191904523D02*
X313683234Y-191856904D01*
X313683234Y-191856904D02*
X314254663Y-191285476D01*
X314254663Y-191285476D02*
X314254663Y-191904523D01*
X313254663Y-192761666D02*
X313254663Y-192571190D01*
X313254663Y-192571190D02*
X313302282Y-192475952D01*
X313302282Y-192475952D02*
X313349901Y-192428333D01*
X313349901Y-192428333D02*
X313492758Y-192333095D01*
X313492758Y-192333095D02*
X313683234Y-192285476D01*
X313683234Y-192285476D02*
X314064186Y-192285476D01*
X314064186Y-192285476D02*
X314159424Y-192333095D01*
X314159424Y-192333095D02*
X314207044Y-192380714D01*
X314207044Y-192380714D02*
X314254663Y-192475952D01*
X314254663Y-192475952D02*
X314254663Y-192666428D01*
X314254663Y-192666428D02*
X314207044Y-192761666D01*
X314207044Y-192761666D02*
X314159424Y-192809285D01*
X314159424Y-192809285D02*
X314064186Y-192856904D01*
X314064186Y-192856904D02*
X313826091Y-192856904D01*
X313826091Y-192856904D02*
X313730853Y-192809285D01*
X313730853Y-192809285D02*
X313683234Y-192761666D01*
X313683234Y-192761666D02*
X313635615Y-192666428D01*
X313635615Y-192666428D02*
X313635615Y-192475952D01*
X313635615Y-192475952D02*
X313683234Y-192380714D01*
X313683234Y-192380714D02*
X313730853Y-192333095D01*
X313730853Y-192333095D02*
X313826091Y-192285476D01*
X332559663Y-166885714D02*
X331559663Y-166885714D01*
X331559663Y-166885714D02*
X331559663Y-167123809D01*
X331559663Y-167123809D02*
X331607282Y-167266666D01*
X331607282Y-167266666D02*
X331702520Y-167361904D01*
X331702520Y-167361904D02*
X331797758Y-167409523D01*
X331797758Y-167409523D02*
X331988234Y-167457142D01*
X331988234Y-167457142D02*
X332131091Y-167457142D01*
X332131091Y-167457142D02*
X332321567Y-167409523D01*
X332321567Y-167409523D02*
X332416805Y-167361904D01*
X332416805Y-167361904D02*
X332512044Y-167266666D01*
X332512044Y-167266666D02*
X332559663Y-167123809D01*
X332559663Y-167123809D02*
X332559663Y-166885714D01*
X331654901Y-167838095D02*
X331607282Y-167885714D01*
X331607282Y-167885714D02*
X331559663Y-167980952D01*
X331559663Y-167980952D02*
X331559663Y-168219047D01*
X331559663Y-168219047D02*
X331607282Y-168314285D01*
X331607282Y-168314285D02*
X331654901Y-168361904D01*
X331654901Y-168361904D02*
X331750139Y-168409523D01*
X331750139Y-168409523D02*
X331845377Y-168409523D01*
X331845377Y-168409523D02*
X331988234Y-168361904D01*
X331988234Y-168361904D02*
X332559663Y-167790476D01*
X332559663Y-167790476D02*
X332559663Y-168409523D01*
X331892996Y-169266666D02*
X332559663Y-169266666D01*
X331512044Y-169028571D02*
X332226329Y-168790476D01*
X332226329Y-168790476D02*
X332226329Y-169409523D01*
X128834663Y-166885714D02*
X127834663Y-166885714D01*
X127834663Y-166885714D02*
X127834663Y-167123809D01*
X127834663Y-167123809D02*
X127882282Y-167266666D01*
X127882282Y-167266666D02*
X127977520Y-167361904D01*
X127977520Y-167361904D02*
X128072758Y-167409523D01*
X128072758Y-167409523D02*
X128263234Y-167457142D01*
X128263234Y-167457142D02*
X128406091Y-167457142D01*
X128406091Y-167457142D02*
X128596567Y-167409523D01*
X128596567Y-167409523D02*
X128691805Y-167361904D01*
X128691805Y-167361904D02*
X128787044Y-167266666D01*
X128787044Y-167266666D02*
X128834663Y-167123809D01*
X128834663Y-167123809D02*
X128834663Y-166885714D01*
X128167996Y-168314285D02*
X128834663Y-168314285D01*
X127787044Y-168076190D02*
X128501329Y-167838095D01*
X128501329Y-167838095D02*
X128501329Y-168457142D01*
X128263234Y-168980952D02*
X128215615Y-168885714D01*
X128215615Y-168885714D02*
X128167996Y-168838095D01*
X128167996Y-168838095D02*
X128072758Y-168790476D01*
X128072758Y-168790476D02*
X128025139Y-168790476D01*
X128025139Y-168790476D02*
X127929901Y-168838095D01*
X127929901Y-168838095D02*
X127882282Y-168885714D01*
X127882282Y-168885714D02*
X127834663Y-168980952D01*
X127834663Y-168980952D02*
X127834663Y-169171428D01*
X127834663Y-169171428D02*
X127882282Y-169266666D01*
X127882282Y-169266666D02*
X127929901Y-169314285D01*
X127929901Y-169314285D02*
X128025139Y-169361904D01*
X128025139Y-169361904D02*
X128072758Y-169361904D01*
X128072758Y-169361904D02*
X128167996Y-169314285D01*
X128167996Y-169314285D02*
X128215615Y-169266666D01*
X128215615Y-169266666D02*
X128263234Y-169171428D01*
X128263234Y-169171428D02*
X128263234Y-168980952D01*
X128263234Y-168980952D02*
X128310853Y-168885714D01*
X128310853Y-168885714D02*
X128358472Y-168838095D01*
X128358472Y-168838095D02*
X128453710Y-168790476D01*
X128453710Y-168790476D02*
X128644186Y-168790476D01*
X128644186Y-168790476D02*
X128739424Y-168838095D01*
X128739424Y-168838095D02*
X128787044Y-168885714D01*
X128787044Y-168885714D02*
X128834663Y-168980952D01*
X128834663Y-168980952D02*
X128834663Y-169171428D01*
X128834663Y-169171428D02*
X128787044Y-169266666D01*
X128787044Y-169266666D02*
X128739424Y-169314285D01*
X128739424Y-169314285D02*
X128644186Y-169361904D01*
X128644186Y-169361904D02*
X128453710Y-169361904D01*
X128453710Y-169361904D02*
X128358472Y-169314285D01*
X128358472Y-169314285D02*
X128310853Y-169266666D01*
X128310853Y-169266666D02*
X128263234Y-169171428D01*
X324679663Y-133041666D02*
X325393948Y-133041666D01*
X325393948Y-133041666D02*
X325536805Y-132994047D01*
X325536805Y-132994047D02*
X325632044Y-132898809D01*
X325632044Y-132898809D02*
X325679663Y-132755952D01*
X325679663Y-132755952D02*
X325679663Y-132660714D01*
X325679663Y-134041666D02*
X325679663Y-133470238D01*
X325679663Y-133755952D02*
X324679663Y-133755952D01*
X324679663Y-133755952D02*
X324822520Y-133660714D01*
X324822520Y-133660714D02*
X324917758Y-133565476D01*
X324917758Y-133565476D02*
X324965377Y-133470238D01*
X238054663Y-166885714D02*
X237054663Y-166885714D01*
X237054663Y-166885714D02*
X237054663Y-167123809D01*
X237054663Y-167123809D02*
X237102282Y-167266666D01*
X237102282Y-167266666D02*
X237197520Y-167361904D01*
X237197520Y-167361904D02*
X237292758Y-167409523D01*
X237292758Y-167409523D02*
X237483234Y-167457142D01*
X237483234Y-167457142D02*
X237626091Y-167457142D01*
X237626091Y-167457142D02*
X237816567Y-167409523D01*
X237816567Y-167409523D02*
X237911805Y-167361904D01*
X237911805Y-167361904D02*
X238007044Y-167266666D01*
X238007044Y-167266666D02*
X238054663Y-167123809D01*
X238054663Y-167123809D02*
X238054663Y-166885714D01*
X238054663Y-168409523D02*
X238054663Y-167838095D01*
X238054663Y-168123809D02*
X237054663Y-168123809D01*
X237054663Y-168123809D02*
X237197520Y-168028571D01*
X237197520Y-168028571D02*
X237292758Y-167933333D01*
X237292758Y-167933333D02*
X237340377Y-167838095D01*
X238054663Y-168885714D02*
X238054663Y-169076190D01*
X238054663Y-169076190D02*
X238007044Y-169171428D01*
X238007044Y-169171428D02*
X237959424Y-169219047D01*
X237959424Y-169219047D02*
X237816567Y-169314285D01*
X237816567Y-169314285D02*
X237626091Y-169361904D01*
X237626091Y-169361904D02*
X237245139Y-169361904D01*
X237245139Y-169361904D02*
X237149901Y-169314285D01*
X237149901Y-169314285D02*
X237102282Y-169266666D01*
X237102282Y-169266666D02*
X237054663Y-169171428D01*
X237054663Y-169171428D02*
X237054663Y-168980952D01*
X237054663Y-168980952D02*
X237102282Y-168885714D01*
X237102282Y-168885714D02*
X237149901Y-168838095D01*
X237149901Y-168838095D02*
X237245139Y-168790476D01*
X237245139Y-168790476D02*
X237483234Y-168790476D01*
X237483234Y-168790476D02*
X237578472Y-168838095D01*
X237578472Y-168838095D02*
X237626091Y-168885714D01*
X237626091Y-168885714D02*
X237673710Y-168980952D01*
X237673710Y-168980952D02*
X237673710Y-169171428D01*
X237673710Y-169171428D02*
X237626091Y-169266666D01*
X237626091Y-169266666D02*
X237578472Y-169314285D01*
X237578472Y-169314285D02*
X237483234Y-169361904D01*
X238054663Y-129261905D02*
X237054663Y-129261905D01*
X237054663Y-129261905D02*
X237054663Y-129500000D01*
X237054663Y-129500000D02*
X237102282Y-129642857D01*
X237102282Y-129642857D02*
X237197520Y-129738095D01*
X237197520Y-129738095D02*
X237292758Y-129785714D01*
X237292758Y-129785714D02*
X237483234Y-129833333D01*
X237483234Y-129833333D02*
X237626091Y-129833333D01*
X237626091Y-129833333D02*
X237816567Y-129785714D01*
X237816567Y-129785714D02*
X237911805Y-129738095D01*
X237911805Y-129738095D02*
X238007044Y-129642857D01*
X238007044Y-129642857D02*
X238054663Y-129500000D01*
X238054663Y-129500000D02*
X238054663Y-129261905D01*
X237054663Y-130166667D02*
X237054663Y-130833333D01*
X237054663Y-130833333D02*
X238054663Y-130404762D01*
X80575853Y-132189285D02*
X80623472Y-132332142D01*
X80623472Y-132332142D02*
X80671091Y-132379761D01*
X80671091Y-132379761D02*
X80766329Y-132427380D01*
X80766329Y-132427380D02*
X80909186Y-132427380D01*
X80909186Y-132427380D02*
X81004424Y-132379761D01*
X81004424Y-132379761D02*
X81052044Y-132332142D01*
X81052044Y-132332142D02*
X81099663Y-132236904D01*
X81099663Y-132236904D02*
X81099663Y-131855952D01*
X81099663Y-131855952D02*
X80099663Y-131855952D01*
X80099663Y-131855952D02*
X80099663Y-132189285D01*
X80099663Y-132189285D02*
X80147282Y-132284523D01*
X80147282Y-132284523D02*
X80194901Y-132332142D01*
X80194901Y-132332142D02*
X80290139Y-132379761D01*
X80290139Y-132379761D02*
X80385377Y-132379761D01*
X80385377Y-132379761D02*
X80480615Y-132332142D01*
X80480615Y-132332142D02*
X80528234Y-132284523D01*
X80528234Y-132284523D02*
X80575853Y-132189285D01*
X80575853Y-132189285D02*
X80575853Y-131855952D01*
X80099663Y-132713095D02*
X80099663Y-133284523D01*
X81099663Y-132998809D02*
X80099663Y-132998809D01*
X80099663Y-133522619D02*
X80099663Y-134141666D01*
X80099663Y-134141666D02*
X80480615Y-133808333D01*
X80480615Y-133808333D02*
X80480615Y-133951190D01*
X80480615Y-133951190D02*
X80528234Y-134046428D01*
X80528234Y-134046428D02*
X80575853Y-134094047D01*
X80575853Y-134094047D02*
X80671091Y-134141666D01*
X80671091Y-134141666D02*
X80909186Y-134141666D01*
X80909186Y-134141666D02*
X81004424Y-134094047D01*
X81004424Y-134094047D02*
X81052044Y-134046428D01*
X81052044Y-134046428D02*
X81099663Y-133951190D01*
X81099663Y-133951190D02*
X81099663Y-133665476D01*
X81099663Y-133665476D02*
X81052044Y-133570238D01*
X81052044Y-133570238D02*
X81004424Y-133522619D01*
X147884663Y-190380714D02*
X146884663Y-190380714D01*
X146884663Y-190380714D02*
X146884663Y-190618809D01*
X146884663Y-190618809D02*
X146932282Y-190761666D01*
X146932282Y-190761666D02*
X147027520Y-190856904D01*
X147027520Y-190856904D02*
X147122758Y-190904523D01*
X147122758Y-190904523D02*
X147313234Y-190952142D01*
X147313234Y-190952142D02*
X147456091Y-190952142D01*
X147456091Y-190952142D02*
X147646567Y-190904523D01*
X147646567Y-190904523D02*
X147741805Y-190856904D01*
X147741805Y-190856904D02*
X147837044Y-190761666D01*
X147837044Y-190761666D02*
X147884663Y-190618809D01*
X147884663Y-190618809D02*
X147884663Y-190380714D01*
X146884663Y-191856904D02*
X146884663Y-191380714D01*
X146884663Y-191380714D02*
X147360853Y-191333095D01*
X147360853Y-191333095D02*
X147313234Y-191380714D01*
X147313234Y-191380714D02*
X147265615Y-191475952D01*
X147265615Y-191475952D02*
X147265615Y-191714047D01*
X147265615Y-191714047D02*
X147313234Y-191809285D01*
X147313234Y-191809285D02*
X147360853Y-191856904D01*
X147360853Y-191856904D02*
X147456091Y-191904523D01*
X147456091Y-191904523D02*
X147694186Y-191904523D01*
X147694186Y-191904523D02*
X147789424Y-191856904D01*
X147789424Y-191856904D02*
X147837044Y-191809285D01*
X147837044Y-191809285D02*
X147884663Y-191714047D01*
X147884663Y-191714047D02*
X147884663Y-191475952D01*
X147884663Y-191475952D02*
X147837044Y-191380714D01*
X147837044Y-191380714D02*
X147789424Y-191333095D01*
X147217996Y-192761666D02*
X147884663Y-192761666D01*
X146837044Y-192523571D02*
X147551329Y-192285476D01*
X147551329Y-192285476D02*
X147551329Y-192904523D01*
X314254663Y-166885714D02*
X313254663Y-166885714D01*
X313254663Y-166885714D02*
X313254663Y-167123809D01*
X313254663Y-167123809D02*
X313302282Y-167266666D01*
X313302282Y-167266666D02*
X313397520Y-167361904D01*
X313397520Y-167361904D02*
X313492758Y-167409523D01*
X313492758Y-167409523D02*
X313683234Y-167457142D01*
X313683234Y-167457142D02*
X313826091Y-167457142D01*
X313826091Y-167457142D02*
X314016567Y-167409523D01*
X314016567Y-167409523D02*
X314111805Y-167361904D01*
X314111805Y-167361904D02*
X314207044Y-167266666D01*
X314207044Y-167266666D02*
X314254663Y-167123809D01*
X314254663Y-167123809D02*
X314254663Y-166885714D01*
X313349901Y-167838095D02*
X313302282Y-167885714D01*
X313302282Y-167885714D02*
X313254663Y-167980952D01*
X313254663Y-167980952D02*
X313254663Y-168219047D01*
X313254663Y-168219047D02*
X313302282Y-168314285D01*
X313302282Y-168314285D02*
X313349901Y-168361904D01*
X313349901Y-168361904D02*
X313445139Y-168409523D01*
X313445139Y-168409523D02*
X313540377Y-168409523D01*
X313540377Y-168409523D02*
X313683234Y-168361904D01*
X313683234Y-168361904D02*
X314254663Y-167790476D01*
X314254663Y-167790476D02*
X314254663Y-168409523D01*
X313254663Y-168742857D02*
X313254663Y-169361904D01*
X313254663Y-169361904D02*
X313635615Y-169028571D01*
X313635615Y-169028571D02*
X313635615Y-169171428D01*
X313635615Y-169171428D02*
X313683234Y-169266666D01*
X313683234Y-169266666D02*
X313730853Y-169314285D01*
X313730853Y-169314285D02*
X313826091Y-169361904D01*
X313826091Y-169361904D02*
X314064186Y-169361904D01*
X314064186Y-169361904D02*
X314159424Y-169314285D01*
X314159424Y-169314285D02*
X314207044Y-169266666D01*
X314207044Y-169266666D02*
X314254663Y-169171428D01*
X314254663Y-169171428D02*
X314254663Y-168885714D01*
X314254663Y-168885714D02*
X314207044Y-168790476D01*
X314207044Y-168790476D02*
X314159424Y-168742857D01*
X166934663Y-109735714D02*
X165934663Y-109735714D01*
X165934663Y-109735714D02*
X165934663Y-109973809D01*
X165934663Y-109973809D02*
X165982282Y-110116666D01*
X165982282Y-110116666D02*
X166077520Y-110211904D01*
X166077520Y-110211904D02*
X166172758Y-110259523D01*
X166172758Y-110259523D02*
X166363234Y-110307142D01*
X166363234Y-110307142D02*
X166506091Y-110307142D01*
X166506091Y-110307142D02*
X166696567Y-110259523D01*
X166696567Y-110259523D02*
X166791805Y-110211904D01*
X166791805Y-110211904D02*
X166887044Y-110116666D01*
X166887044Y-110116666D02*
X166934663Y-109973809D01*
X166934663Y-109973809D02*
X166934663Y-109735714D01*
X165934663Y-110640476D02*
X165934663Y-111259523D01*
X165934663Y-111259523D02*
X166315615Y-110926190D01*
X166315615Y-110926190D02*
X166315615Y-111069047D01*
X166315615Y-111069047D02*
X166363234Y-111164285D01*
X166363234Y-111164285D02*
X166410853Y-111211904D01*
X166410853Y-111211904D02*
X166506091Y-111259523D01*
X166506091Y-111259523D02*
X166744186Y-111259523D01*
X166744186Y-111259523D02*
X166839424Y-111211904D01*
X166839424Y-111211904D02*
X166887044Y-111164285D01*
X166887044Y-111164285D02*
X166934663Y-111069047D01*
X166934663Y-111069047D02*
X166934663Y-110783333D01*
X166934663Y-110783333D02*
X166887044Y-110688095D01*
X166887044Y-110688095D02*
X166839424Y-110640476D01*
X166029901Y-111640476D02*
X165982282Y-111688095D01*
X165982282Y-111688095D02*
X165934663Y-111783333D01*
X165934663Y-111783333D02*
X165934663Y-112021428D01*
X165934663Y-112021428D02*
X165982282Y-112116666D01*
X165982282Y-112116666D02*
X166029901Y-112164285D01*
X166029901Y-112164285D02*
X166125139Y-112211904D01*
X166125139Y-112211904D02*
X166220377Y-112211904D01*
X166220377Y-112211904D02*
X166363234Y-112164285D01*
X166363234Y-112164285D02*
X166934663Y-111592857D01*
X166934663Y-111592857D02*
X166934663Y-112211904D01*
X276154663Y-129261905D02*
X275154663Y-129261905D01*
X275154663Y-129261905D02*
X275154663Y-129500000D01*
X275154663Y-129500000D02*
X275202282Y-129642857D01*
X275202282Y-129642857D02*
X275297520Y-129738095D01*
X275297520Y-129738095D02*
X275392758Y-129785714D01*
X275392758Y-129785714D02*
X275583234Y-129833333D01*
X275583234Y-129833333D02*
X275726091Y-129833333D01*
X275726091Y-129833333D02*
X275916567Y-129785714D01*
X275916567Y-129785714D02*
X276011805Y-129738095D01*
X276011805Y-129738095D02*
X276107044Y-129642857D01*
X276107044Y-129642857D02*
X276154663Y-129500000D01*
X276154663Y-129500000D02*
X276154663Y-129261905D01*
X276154663Y-130309524D02*
X276154663Y-130500000D01*
X276154663Y-130500000D02*
X276107044Y-130595238D01*
X276107044Y-130595238D02*
X276059424Y-130642857D01*
X276059424Y-130642857D02*
X275916567Y-130738095D01*
X275916567Y-130738095D02*
X275726091Y-130785714D01*
X275726091Y-130785714D02*
X275345139Y-130785714D01*
X275345139Y-130785714D02*
X275249901Y-130738095D01*
X275249901Y-130738095D02*
X275202282Y-130690476D01*
X275202282Y-130690476D02*
X275154663Y-130595238D01*
X275154663Y-130595238D02*
X275154663Y-130404762D01*
X275154663Y-130404762D02*
X275202282Y-130309524D01*
X275202282Y-130309524D02*
X275249901Y-130261905D01*
X275249901Y-130261905D02*
X275345139Y-130214286D01*
X275345139Y-130214286D02*
X275583234Y-130214286D01*
X275583234Y-130214286D02*
X275678472Y-130261905D01*
X275678472Y-130261905D02*
X275726091Y-130309524D01*
X275726091Y-130309524D02*
X275773710Y-130404762D01*
X275773710Y-130404762D02*
X275773710Y-130595238D01*
X275773710Y-130595238D02*
X275726091Y-130690476D01*
X275726091Y-130690476D02*
X275678472Y-130738095D01*
X275678472Y-130738095D02*
X275583234Y-130785714D01*
X276154663Y-110211905D02*
X275154663Y-110211905D01*
X275154663Y-110211905D02*
X275154663Y-110450000D01*
X275154663Y-110450000D02*
X275202282Y-110592857D01*
X275202282Y-110592857D02*
X275297520Y-110688095D01*
X275297520Y-110688095D02*
X275392758Y-110735714D01*
X275392758Y-110735714D02*
X275583234Y-110783333D01*
X275583234Y-110783333D02*
X275726091Y-110783333D01*
X275726091Y-110783333D02*
X275916567Y-110735714D01*
X275916567Y-110735714D02*
X276011805Y-110688095D01*
X276011805Y-110688095D02*
X276107044Y-110592857D01*
X276107044Y-110592857D02*
X276154663Y-110450000D01*
X276154663Y-110450000D02*
X276154663Y-110211905D01*
X275154663Y-111116667D02*
X275154663Y-111735714D01*
X275154663Y-111735714D02*
X275535615Y-111402381D01*
X275535615Y-111402381D02*
X275535615Y-111545238D01*
X275535615Y-111545238D02*
X275583234Y-111640476D01*
X275583234Y-111640476D02*
X275630853Y-111688095D01*
X275630853Y-111688095D02*
X275726091Y-111735714D01*
X275726091Y-111735714D02*
X275964186Y-111735714D01*
X275964186Y-111735714D02*
X276059424Y-111688095D01*
X276059424Y-111688095D02*
X276107044Y-111640476D01*
X276107044Y-111640476D02*
X276154663Y-111545238D01*
X276154663Y-111545238D02*
X276154663Y-111259524D01*
X276154663Y-111259524D02*
X276107044Y-111164286D01*
X276107044Y-111164286D02*
X276059424Y-111116667D01*
X257104663Y-129261905D02*
X256104663Y-129261905D01*
X256104663Y-129261905D02*
X256104663Y-129500000D01*
X256104663Y-129500000D02*
X256152282Y-129642857D01*
X256152282Y-129642857D02*
X256247520Y-129738095D01*
X256247520Y-129738095D02*
X256342758Y-129785714D01*
X256342758Y-129785714D02*
X256533234Y-129833333D01*
X256533234Y-129833333D02*
X256676091Y-129833333D01*
X256676091Y-129833333D02*
X256866567Y-129785714D01*
X256866567Y-129785714D02*
X256961805Y-129738095D01*
X256961805Y-129738095D02*
X257057044Y-129642857D01*
X257057044Y-129642857D02*
X257104663Y-129500000D01*
X257104663Y-129500000D02*
X257104663Y-129261905D01*
X256533234Y-130404762D02*
X256485615Y-130309524D01*
X256485615Y-130309524D02*
X256437996Y-130261905D01*
X256437996Y-130261905D02*
X256342758Y-130214286D01*
X256342758Y-130214286D02*
X256295139Y-130214286D01*
X256295139Y-130214286D02*
X256199901Y-130261905D01*
X256199901Y-130261905D02*
X256152282Y-130309524D01*
X256152282Y-130309524D02*
X256104663Y-130404762D01*
X256104663Y-130404762D02*
X256104663Y-130595238D01*
X256104663Y-130595238D02*
X256152282Y-130690476D01*
X256152282Y-130690476D02*
X256199901Y-130738095D01*
X256199901Y-130738095D02*
X256295139Y-130785714D01*
X256295139Y-130785714D02*
X256342758Y-130785714D01*
X256342758Y-130785714D02*
X256437996Y-130738095D01*
X256437996Y-130738095D02*
X256485615Y-130690476D01*
X256485615Y-130690476D02*
X256533234Y-130595238D01*
X256533234Y-130595238D02*
X256533234Y-130404762D01*
X256533234Y-130404762D02*
X256580853Y-130309524D01*
X256580853Y-130309524D02*
X256628472Y-130261905D01*
X256628472Y-130261905D02*
X256723710Y-130214286D01*
X256723710Y-130214286D02*
X256914186Y-130214286D01*
X256914186Y-130214286D02*
X257009424Y-130261905D01*
X257009424Y-130261905D02*
X257057044Y-130309524D01*
X257057044Y-130309524D02*
X257104663Y-130404762D01*
X257104663Y-130404762D02*
X257104663Y-130595238D01*
X257104663Y-130595238D02*
X257057044Y-130690476D01*
X257057044Y-130690476D02*
X257009424Y-130738095D01*
X257009424Y-130738095D02*
X256914186Y-130785714D01*
X256914186Y-130785714D02*
X256723710Y-130785714D01*
X256723710Y-130785714D02*
X256628472Y-130738095D01*
X256628472Y-130738095D02*
X256580853Y-130690476D01*
X256580853Y-130690476D02*
X256533234Y-130595238D01*
X205034663Y-147835714D02*
X204034663Y-147835714D01*
X204034663Y-147835714D02*
X204034663Y-148073809D01*
X204034663Y-148073809D02*
X204082282Y-148216666D01*
X204082282Y-148216666D02*
X204177520Y-148311904D01*
X204177520Y-148311904D02*
X204272758Y-148359523D01*
X204272758Y-148359523D02*
X204463234Y-148407142D01*
X204463234Y-148407142D02*
X204606091Y-148407142D01*
X204606091Y-148407142D02*
X204796567Y-148359523D01*
X204796567Y-148359523D02*
X204891805Y-148311904D01*
X204891805Y-148311904D02*
X204987044Y-148216666D01*
X204987044Y-148216666D02*
X205034663Y-148073809D01*
X205034663Y-148073809D02*
X205034663Y-147835714D01*
X204367996Y-149264285D02*
X205034663Y-149264285D01*
X203987044Y-149026190D02*
X204701329Y-148788095D01*
X204701329Y-148788095D02*
X204701329Y-149407142D01*
X204034663Y-150216666D02*
X204034663Y-150026190D01*
X204034663Y-150026190D02*
X204082282Y-149930952D01*
X204082282Y-149930952D02*
X204129901Y-149883333D01*
X204129901Y-149883333D02*
X204272758Y-149788095D01*
X204272758Y-149788095D02*
X204463234Y-149740476D01*
X204463234Y-149740476D02*
X204844186Y-149740476D01*
X204844186Y-149740476D02*
X204939424Y-149788095D01*
X204939424Y-149788095D02*
X204987044Y-149835714D01*
X204987044Y-149835714D02*
X205034663Y-149930952D01*
X205034663Y-149930952D02*
X205034663Y-150121428D01*
X205034663Y-150121428D02*
X204987044Y-150216666D01*
X204987044Y-150216666D02*
X204939424Y-150264285D01*
X204939424Y-150264285D02*
X204844186Y-150311904D01*
X204844186Y-150311904D02*
X204606091Y-150311904D01*
X204606091Y-150311904D02*
X204510853Y-150264285D01*
X204510853Y-150264285D02*
X204463234Y-150216666D01*
X204463234Y-150216666D02*
X204415615Y-150121428D01*
X204415615Y-150121428D02*
X204415615Y-149930952D01*
X204415615Y-149930952D02*
X204463234Y-149835714D01*
X204463234Y-149835714D02*
X204510853Y-149788095D01*
X204510853Y-149788095D02*
X204606091Y-149740476D01*
X109784663Y-166885714D02*
X108784663Y-166885714D01*
X108784663Y-166885714D02*
X108784663Y-167123809D01*
X108784663Y-167123809D02*
X108832282Y-167266666D01*
X108832282Y-167266666D02*
X108927520Y-167361904D01*
X108927520Y-167361904D02*
X109022758Y-167409523D01*
X109022758Y-167409523D02*
X109213234Y-167457142D01*
X109213234Y-167457142D02*
X109356091Y-167457142D01*
X109356091Y-167457142D02*
X109546567Y-167409523D01*
X109546567Y-167409523D02*
X109641805Y-167361904D01*
X109641805Y-167361904D02*
X109737044Y-167266666D01*
X109737044Y-167266666D02*
X109784663Y-167123809D01*
X109784663Y-167123809D02*
X109784663Y-166885714D01*
X109117996Y-168314285D02*
X109784663Y-168314285D01*
X108737044Y-168076190D02*
X109451329Y-167838095D01*
X109451329Y-167838095D02*
X109451329Y-168457142D01*
X108784663Y-168742857D02*
X108784663Y-169409523D01*
X108784663Y-169409523D02*
X109784663Y-168980952D01*
X314254663Y-147835714D02*
X313254663Y-147835714D01*
X313254663Y-147835714D02*
X313254663Y-148073809D01*
X313254663Y-148073809D02*
X313302282Y-148216666D01*
X313302282Y-148216666D02*
X313397520Y-148311904D01*
X313397520Y-148311904D02*
X313492758Y-148359523D01*
X313492758Y-148359523D02*
X313683234Y-148407142D01*
X313683234Y-148407142D02*
X313826091Y-148407142D01*
X313826091Y-148407142D02*
X314016567Y-148359523D01*
X314016567Y-148359523D02*
X314111805Y-148311904D01*
X314111805Y-148311904D02*
X314207044Y-148216666D01*
X314207044Y-148216666D02*
X314254663Y-148073809D01*
X314254663Y-148073809D02*
X314254663Y-147835714D01*
X314254663Y-149359523D02*
X314254663Y-148788095D01*
X314254663Y-149073809D02*
X313254663Y-149073809D01*
X313254663Y-149073809D02*
X313397520Y-148978571D01*
X313397520Y-148978571D02*
X313492758Y-148883333D01*
X313492758Y-148883333D02*
X313540377Y-148788095D01*
X313254663Y-149692857D02*
X313254663Y-150359523D01*
X313254663Y-150359523D02*
X314254663Y-149930952D01*
X314254663Y-110211905D02*
X313254663Y-110211905D01*
X313254663Y-110211905D02*
X313254663Y-110450000D01*
X313254663Y-110450000D02*
X313302282Y-110592857D01*
X313302282Y-110592857D02*
X313397520Y-110688095D01*
X313397520Y-110688095D02*
X313492758Y-110735714D01*
X313492758Y-110735714D02*
X313683234Y-110783333D01*
X313683234Y-110783333D02*
X313826091Y-110783333D01*
X313826091Y-110783333D02*
X314016567Y-110735714D01*
X314016567Y-110735714D02*
X314111805Y-110688095D01*
X314111805Y-110688095D02*
X314207044Y-110592857D01*
X314207044Y-110592857D02*
X314254663Y-110450000D01*
X314254663Y-110450000D02*
X314254663Y-110211905D01*
X313254663Y-111688095D02*
X313254663Y-111211905D01*
X313254663Y-111211905D02*
X313730853Y-111164286D01*
X313730853Y-111164286D02*
X313683234Y-111211905D01*
X313683234Y-111211905D02*
X313635615Y-111307143D01*
X313635615Y-111307143D02*
X313635615Y-111545238D01*
X313635615Y-111545238D02*
X313683234Y-111640476D01*
X313683234Y-111640476D02*
X313730853Y-111688095D01*
X313730853Y-111688095D02*
X313826091Y-111735714D01*
X313826091Y-111735714D02*
X314064186Y-111735714D01*
X314064186Y-111735714D02*
X314159424Y-111688095D01*
X314159424Y-111688095D02*
X314207044Y-111640476D01*
X314207044Y-111640476D02*
X314254663Y-111545238D01*
X314254663Y-111545238D02*
X314254663Y-111307143D01*
X314254663Y-111307143D02*
X314207044Y-111211905D01*
X314207044Y-111211905D02*
X314159424Y-111164286D01*
X238054663Y-147835714D02*
X237054663Y-147835714D01*
X237054663Y-147835714D02*
X237054663Y-148073809D01*
X237054663Y-148073809D02*
X237102282Y-148216666D01*
X237102282Y-148216666D02*
X237197520Y-148311904D01*
X237197520Y-148311904D02*
X237292758Y-148359523D01*
X237292758Y-148359523D02*
X237483234Y-148407142D01*
X237483234Y-148407142D02*
X237626091Y-148407142D01*
X237626091Y-148407142D02*
X237816567Y-148359523D01*
X237816567Y-148359523D02*
X237911805Y-148311904D01*
X237911805Y-148311904D02*
X238007044Y-148216666D01*
X238007044Y-148216666D02*
X238054663Y-148073809D01*
X238054663Y-148073809D02*
X238054663Y-147835714D01*
X238054663Y-149359523D02*
X238054663Y-148788095D01*
X238054663Y-149073809D02*
X237054663Y-149073809D01*
X237054663Y-149073809D02*
X237197520Y-148978571D01*
X237197520Y-148978571D02*
X237292758Y-148883333D01*
X237292758Y-148883333D02*
X237340377Y-148788095D01*
X237054663Y-149692857D02*
X237054663Y-150311904D01*
X237054663Y-150311904D02*
X237435615Y-149978571D01*
X237435615Y-149978571D02*
X237435615Y-150121428D01*
X237435615Y-150121428D02*
X237483234Y-150216666D01*
X237483234Y-150216666D02*
X237530853Y-150264285D01*
X237530853Y-150264285D02*
X237626091Y-150311904D01*
X237626091Y-150311904D02*
X237864186Y-150311904D01*
X237864186Y-150311904D02*
X237959424Y-150264285D01*
X237959424Y-150264285D02*
X238007044Y-150216666D01*
X238007044Y-150216666D02*
X238054663Y-150121428D01*
X238054663Y-150121428D02*
X238054663Y-149835714D01*
X238054663Y-149835714D02*
X238007044Y-149740476D01*
X238007044Y-149740476D02*
X237959424Y-149692857D01*
D12*
%TO.C,D41*%
X112330000Y-146690000D02*
X112330000Y-150700000D01*
X110330000Y-146690000D02*
X112330000Y-146690000D01*
X110330000Y-146690000D02*
X110330000Y-150700000D01*
%TO.C,D50*%
X169480000Y-165740000D02*
X169480000Y-169750000D01*
X167480000Y-165740000D02*
X169480000Y-165740000D01*
X167480000Y-165740000D02*
X167480000Y-169750000D01*
%TO.C,D36*%
X131380000Y-127640000D02*
X131380000Y-131650000D01*
X129380000Y-127640000D02*
X131380000Y-127640000D01*
X129380000Y-127640000D02*
X129380000Y-131650000D01*
%TO.C,D18*%
X335850000Y-146690000D02*
X335850000Y-150700000D01*
X333850000Y-146690000D02*
X335850000Y-146690000D01*
X333850000Y-146690000D02*
X333850000Y-150700000D01*
%TO.C,D12*%
X335850000Y-127640000D02*
X335850000Y-131650000D01*
X333850000Y-127640000D02*
X335850000Y-127640000D01*
X333850000Y-127640000D02*
X333850000Y-131650000D01*
%TO.C,D52*%
X207580000Y-165740000D02*
X207580000Y-169750000D01*
X205580000Y-165740000D02*
X207580000Y-165740000D01*
X205580000Y-165740000D02*
X205580000Y-169750000D01*
%TO.C,D31*%
X150430000Y-108590000D02*
X150430000Y-112600000D01*
X148430000Y-108590000D02*
X150430000Y-108590000D01*
X148430000Y-108590000D02*
X148430000Y-112600000D01*
%TO.C,D37*%
X150430000Y-127640000D02*
X150430000Y-131650000D01*
X148430000Y-127640000D02*
X150430000Y-127640000D01*
X148430000Y-127640000D02*
X148430000Y-131650000D01*
%TO.C,D2*%
X259650000Y-108590000D02*
X259650000Y-112600000D01*
X257650000Y-108590000D02*
X259650000Y-108590000D01*
X257650000Y-108590000D02*
X257650000Y-112600000D01*
%TO.C,D49*%
X150430000Y-165740000D02*
X150430000Y-169750000D01*
X148430000Y-165740000D02*
X150430000Y-165740000D01*
X148430000Y-165740000D02*
X148430000Y-169750000D01*
%TO.C,D38*%
X169480000Y-127640000D02*
X169480000Y-131650000D01*
X167480000Y-127640000D02*
X169480000Y-127640000D01*
X167480000Y-127640000D02*
X167480000Y-131650000D01*
%TO.C,D21*%
X278700000Y-165740000D02*
X278700000Y-169750000D01*
X276700000Y-165740000D02*
X278700000Y-165740000D01*
X276700000Y-165740000D02*
X276700000Y-169750000D01*
%TO.C,D30*%
X131380000Y-108590000D02*
X131380000Y-112600000D01*
X129380000Y-108590000D02*
X131380000Y-108590000D01*
X129380000Y-108590000D02*
X129380000Y-112600000D01*
%TO.C,D39*%
X188530000Y-127640000D02*
X188530000Y-131650000D01*
X186530000Y-127640000D02*
X188530000Y-127640000D01*
X186530000Y-127640000D02*
X186530000Y-131650000D01*
%TO.C,D11*%
X316800000Y-125115000D02*
X316800000Y-129125000D01*
X314800000Y-125115000D02*
X316800000Y-125115000D01*
X314800000Y-125115000D02*
X314800000Y-129125000D01*
%TO.C,D15*%
X278700000Y-146690000D02*
X278700000Y-150700000D01*
X276700000Y-146690000D02*
X278700000Y-146690000D01*
X276700000Y-146690000D02*
X276700000Y-150700000D01*
%TO.C,D33*%
X188530000Y-108590000D02*
X188530000Y-112600000D01*
X186530000Y-108590000D02*
X188530000Y-108590000D01*
X186530000Y-108590000D02*
X186530000Y-112600000D01*
%TO.C,G\u002A\u002A\u002A*%
G36*
X83793894Y-156144844D02*
G01*
X83805333Y-156213755D01*
X83817374Y-156288352D01*
X83825600Y-156343914D01*
X83830288Y-156383863D01*
X83831718Y-156411621D01*
X83830169Y-156430609D01*
X83825918Y-156444248D01*
X83819246Y-156455961D01*
X83793502Y-156484433D01*
X83750076Y-156504872D01*
X83702787Y-156503022D01*
X83657701Y-156478053D01*
X83643520Y-156468140D01*
X83635325Y-156474355D01*
X83629363Y-156501721D01*
X83622867Y-156540988D01*
X83592928Y-156714955D01*
X83564353Y-156868069D01*
X83536315Y-157003945D01*
X83507986Y-157126203D01*
X83478538Y-157238460D01*
X83447143Y-157344332D01*
X83412975Y-157447437D01*
X83392024Y-157505636D01*
X83366893Y-157566962D01*
X83344099Y-157609165D01*
X83321404Y-157635403D01*
X83296565Y-157648832D01*
X83267344Y-157652606D01*
X83259491Y-157652337D01*
X83215498Y-157637662D01*
X83182793Y-157600471D01*
X83161226Y-157540609D01*
X83146195Y-157473867D01*
X83095010Y-157553735D01*
X83066840Y-157595943D01*
X82990834Y-157697445D01*
X82903442Y-157800195D01*
X82807815Y-157901381D01*
X82707104Y-157998195D01*
X82604460Y-158087825D01*
X82503036Y-158167463D01*
X82405981Y-158234298D01*
X82316447Y-158285519D01*
X82237586Y-158318317D01*
X82206823Y-158325508D01*
X82154392Y-158332720D01*
X82100654Y-158335849D01*
X82079254Y-158335865D01*
X82038194Y-158333335D01*
X82012299Y-158325775D01*
X81994331Y-158311529D01*
X81985115Y-158299840D01*
X81976796Y-158282075D01*
X81972917Y-158258160D01*
X81973612Y-158224360D01*
X81979013Y-158176942D01*
X81989252Y-158112174D01*
X82004462Y-158026322D01*
X82010057Y-157995488D01*
X82022224Y-157928190D01*
X82032777Y-157869486D01*
X82040739Y-157824820D01*
X82045134Y-157799635D01*
X82051280Y-157762974D01*
X81959387Y-157771663D01*
X81479655Y-157809376D01*
X80930449Y-157832970D01*
X80391215Y-157834586D01*
X79860536Y-157814224D01*
X79336995Y-157771884D01*
X79329805Y-157771154D01*
X79287313Y-157767605D01*
X79263749Y-157768422D01*
X79253628Y-157774577D01*
X79251464Y-157787041D01*
X79253145Y-157803364D01*
X79258698Y-157841420D01*
X79267432Y-157895934D01*
X79278625Y-157962409D01*
X79291553Y-158036345D01*
X79331661Y-158261730D01*
X79305853Y-158296046D01*
X79294895Y-158309554D01*
X79280147Y-158321071D01*
X79258992Y-158327263D01*
X79225122Y-158329735D01*
X79172228Y-158330095D01*
X79144247Y-158329871D01*
X79096197Y-158327445D01*
X79058137Y-158320304D01*
X79019530Y-158305935D01*
X78969839Y-158281826D01*
X78930688Y-158260708D01*
X78830545Y-158197507D01*
X78723228Y-158118410D01*
X78613530Y-158027084D01*
X78506243Y-157927196D01*
X78478801Y-157899547D01*
X78416143Y-157832582D01*
X78352696Y-157760243D01*
X78292227Y-157687158D01*
X78238506Y-157617959D01*
X78195303Y-157557275D01*
X78166387Y-157509735D01*
X78145143Y-157468915D01*
X78129443Y-157538133D01*
X78124611Y-157556979D01*
X78100812Y-157610786D01*
X78066490Y-157642322D01*
X78020676Y-157652606D01*
X78009430Y-157652089D01*
X77983696Y-157645170D01*
X77960768Y-157627930D01*
X77938856Y-157597518D01*
X77916172Y-157551080D01*
X77890923Y-157485766D01*
X77861321Y-157398724D01*
X77824273Y-157279366D01*
X77750872Y-156993843D01*
X77693029Y-156689813D01*
X77692290Y-156685195D01*
X77679410Y-156604423D01*
X77669819Y-156545431D01*
X77662644Y-156505166D01*
X77657015Y-156480574D01*
X77652058Y-156468602D01*
X77646903Y-156466196D01*
X77640676Y-156470301D01*
X77632506Y-156477865D01*
X77599956Y-156498513D01*
X77552627Y-156506612D01*
X77507555Y-156492156D01*
X77470754Y-156455961D01*
X77465628Y-156447404D01*
X77460707Y-156434610D01*
X77458414Y-156417375D01*
X77459026Y-156392278D01*
X77462822Y-156355898D01*
X77470082Y-156304813D01*
X77481083Y-156235602D01*
X77496106Y-156144844D01*
X77501529Y-156114242D01*
X77705947Y-156114242D01*
X77716141Y-156118063D01*
X77741989Y-156119738D01*
X77761352Y-156120948D01*
X77780418Y-156127195D01*
X77795986Y-156141383D01*
X77809131Y-156166384D01*
X77820930Y-156205067D01*
X77832459Y-156260303D01*
X77844792Y-156334962D01*
X77859007Y-156431914D01*
X77863485Y-156462870D01*
X77878519Y-156560991D01*
X77895087Y-156661856D01*
X77912442Y-156761492D01*
X77929836Y-156855925D01*
X77946526Y-156941185D01*
X77961763Y-157013296D01*
X77974803Y-157068287D01*
X77984898Y-157102184D01*
X77996547Y-157132825D01*
X78028028Y-157101344D01*
X78055243Y-157081422D01*
X78102192Y-157070380D01*
X78150304Y-157083048D01*
X78158461Y-157090127D01*
X78179016Y-157117319D01*
X78204420Y-157158448D01*
X78230960Y-157207774D01*
X78233427Y-157212673D01*
X78316010Y-157361677D01*
X78408584Y-157499487D01*
X78515840Y-157632479D01*
X78642467Y-157767029D01*
X78692429Y-157815688D01*
X78755455Y-157874316D01*
X78815972Y-157927908D01*
X78868970Y-157972049D01*
X78909439Y-158002323D01*
X78923591Y-158011800D01*
X78973787Y-158044935D01*
X79020055Y-158074836D01*
X79053890Y-158095988D01*
X79103328Y-158125789D01*
X79094494Y-158090590D01*
X79093077Y-158084705D01*
X79083951Y-158039268D01*
X79072749Y-157973793D01*
X79060090Y-157892617D01*
X79046590Y-157800077D01*
X79032868Y-157700509D01*
X79019542Y-157598251D01*
X79007229Y-157497639D01*
X78996547Y-157403011D01*
X78993409Y-157373233D01*
X78986255Y-157299755D01*
X78980535Y-157229730D01*
X78976089Y-157159047D01*
X78972758Y-157083593D01*
X78970382Y-156999254D01*
X78968801Y-156901919D01*
X78967855Y-156787475D01*
X78967386Y-156651808D01*
X78966597Y-156242477D01*
X79162805Y-156242477D01*
X79162916Y-156583327D01*
X79162920Y-156590146D01*
X79164403Y-156778526D01*
X79168753Y-156948533D01*
X79176283Y-157106777D01*
X79187305Y-157259867D01*
X79202130Y-157414413D01*
X79205672Y-157447111D01*
X79211685Y-157496142D01*
X79217548Y-157526949D01*
X79224824Y-157544200D01*
X79235081Y-157552557D01*
X79249885Y-157556688D01*
X79274322Y-157560325D01*
X79321655Y-157565705D01*
X79386408Y-157572181D01*
X79464464Y-157579395D01*
X79551707Y-157586990D01*
X79644023Y-157594609D01*
X79737293Y-157601894D01*
X79827403Y-157608487D01*
X79910237Y-157614032D01*
X79968439Y-157617143D01*
X80056817Y-157620705D01*
X80161113Y-157624008D01*
X80276746Y-157626978D01*
X80399134Y-157629541D01*
X80523695Y-157631621D01*
X80645846Y-157633143D01*
X80761005Y-157634033D01*
X80864592Y-157634216D01*
X80952022Y-157633615D01*
X81018715Y-157632158D01*
X81051404Y-157630938D01*
X81144897Y-157626751D01*
X81247003Y-157621326D01*
X81354638Y-157614904D01*
X81464721Y-157607721D01*
X81574168Y-157600015D01*
X81679896Y-157592026D01*
X81778822Y-157583991D01*
X81867864Y-157576148D01*
X81943939Y-157568735D01*
X82003963Y-157561991D01*
X82044854Y-157556153D01*
X82063529Y-157551460D01*
X82066583Y-157547544D01*
X82074274Y-157521220D01*
X82082030Y-157473372D01*
X82089684Y-157406713D01*
X82097068Y-157323956D01*
X82104015Y-157227815D01*
X82110358Y-157121003D01*
X82115927Y-157006232D01*
X82120557Y-156886217D01*
X82124079Y-156763670D01*
X82126325Y-156641305D01*
X82127129Y-156521835D01*
X82127194Y-156233508D01*
X82073354Y-156151550D01*
X82067488Y-156142704D01*
X82041484Y-156105501D01*
X82020988Y-156079307D01*
X82010012Y-156069329D01*
X82009900Y-156069349D01*
X82007407Y-156082431D01*
X82005166Y-156117449D01*
X82003265Y-156171147D01*
X82001795Y-156240266D01*
X82000847Y-156321549D01*
X82000511Y-156411739D01*
X82000508Y-156425211D01*
X82000224Y-156529015D01*
X81999367Y-156610764D01*
X81998015Y-156664477D01*
X81997790Y-156673398D01*
X81995342Y-156719855D01*
X81991876Y-156753077D01*
X81987243Y-156776004D01*
X81981294Y-156791575D01*
X81973968Y-156804813D01*
X81958246Y-156825909D01*
X81937630Y-156841677D01*
X81908716Y-156852877D01*
X81868098Y-156860268D01*
X81812370Y-156864608D01*
X81738128Y-156866656D01*
X81641966Y-156867170D01*
X81617950Y-156867164D01*
X81538643Y-156866925D01*
X81479727Y-156866046D01*
X81437261Y-156864132D01*
X81407309Y-156860787D01*
X81385929Y-156855618D01*
X81369183Y-156848230D01*
X81353133Y-156838227D01*
X81353090Y-156838199D01*
X81331044Y-156821309D01*
X81313874Y-156801694D01*
X81300971Y-156776125D01*
X81291725Y-156741373D01*
X81285527Y-156694208D01*
X81283748Y-156664477D01*
X81481109Y-156664477D01*
X81639464Y-156664477D01*
X81797818Y-156664477D01*
X81797818Y-156385773D01*
X81797805Y-156362961D01*
X81797375Y-156273797D01*
X81796223Y-156206751D01*
X81794192Y-156159189D01*
X81791125Y-156128478D01*
X81786866Y-156111983D01*
X81781259Y-156107070D01*
X81767674Y-156108545D01*
X81733062Y-156113858D01*
X81684155Y-156122131D01*
X81626795Y-156132407D01*
X81578700Y-156141199D01*
X81531223Y-156149770D01*
X81498256Y-156155595D01*
X81485000Y-156157743D01*
X81484759Y-156158226D01*
X81483601Y-156174788D01*
X81482598Y-156212149D01*
X81481810Y-156266518D01*
X81481294Y-156334103D01*
X81481109Y-156411110D01*
X81481109Y-156664477D01*
X81283748Y-156664477D01*
X81281768Y-156631402D01*
X81279839Y-156549725D01*
X81279131Y-156445948D01*
X81279131Y-156445744D01*
X81278332Y-156351908D01*
X81276534Y-156275476D01*
X81273828Y-156218428D01*
X81270310Y-156182746D01*
X81266073Y-156170412D01*
X81265238Y-156170344D01*
X81250998Y-156158434D01*
X81234466Y-156132571D01*
X81220779Y-156102192D01*
X81215075Y-156076735D01*
X81215200Y-156074847D01*
X81224669Y-156051647D01*
X81244588Y-156023498D01*
X81253549Y-156014095D01*
X81266603Y-156004416D01*
X81285255Y-155995628D01*
X81312732Y-155986864D01*
X81352263Y-155977257D01*
X81407077Y-155965942D01*
X81480402Y-155952053D01*
X81575467Y-155934723D01*
X81635082Y-155923864D01*
X81713515Y-155909297D01*
X81780909Y-155896450D01*
X81833787Y-155886001D01*
X81868672Y-155878626D01*
X81882088Y-155875003D01*
X81880909Y-155869254D01*
X81869520Y-155845808D01*
X81848821Y-155808960D01*
X81821445Y-155763545D01*
X81778885Y-155694358D01*
X81600569Y-155391250D01*
X81422177Y-155066459D01*
X81285039Y-154808566D01*
X81269767Y-155011260D01*
X81269278Y-155017722D01*
X81253282Y-155204591D01*
X81233985Y-155390124D01*
X81211952Y-155570320D01*
X81187749Y-155741180D01*
X81161940Y-155898704D01*
X81135090Y-156038892D01*
X81107766Y-156157743D01*
X81100773Y-156184476D01*
X81085689Y-156235311D01*
X81071006Y-156270597D01*
X81053581Y-156296956D01*
X81030269Y-156321012D01*
X80983603Y-156363931D01*
X80855474Y-156353981D01*
X80821409Y-156351439D01*
X80723758Y-156345847D01*
X80636516Y-156344237D01*
X80548529Y-156346577D01*
X80448641Y-156352837D01*
X80395822Y-156356422D01*
X80353342Y-156357627D01*
X80324304Y-156355133D01*
X80302420Y-156348329D01*
X80281400Y-156336606D01*
X80263446Y-156323956D01*
X80241437Y-156302010D01*
X80223262Y-156272427D01*
X80206961Y-156230861D01*
X80190574Y-156172968D01*
X80172141Y-156094402D01*
X80154145Y-156008648D01*
X80130735Y-155883451D01*
X80107847Y-155746908D01*
X80086065Y-155603536D01*
X80065974Y-155457853D01*
X80048160Y-155314377D01*
X80033207Y-155177627D01*
X80021701Y-155052119D01*
X80014227Y-154942373D01*
X80011369Y-154852905D01*
X80011052Y-154783230D01*
X79893205Y-155011260D01*
X79837710Y-155117579D01*
X79719744Y-155336824D01*
X79603176Y-155544553D01*
X79491456Y-155734556D01*
X79405084Y-155877572D01*
X79470802Y-155890558D01*
X79496557Y-155895461D01*
X79546728Y-155904677D01*
X79611825Y-155916418D01*
X79686287Y-155929681D01*
X79764551Y-155943464D01*
X79831563Y-155955754D01*
X79900450Y-155969631D01*
X79958172Y-155982586D01*
X80000114Y-155993576D01*
X80021661Y-156001558D01*
X80021669Y-156001563D01*
X80058099Y-156035973D01*
X80070427Y-156077974D01*
X80058314Y-156126408D01*
X80054318Y-156134345D01*
X80037675Y-156160047D01*
X80024457Y-156170412D01*
X80020544Y-156178732D01*
X80016598Y-156211150D01*
X80013638Y-156267136D01*
X80011712Y-156345724D01*
X80010868Y-156445948D01*
X80010831Y-156461005D01*
X80010207Y-156572410D01*
X80007485Y-156661322D01*
X80007164Y-156664477D01*
X80000480Y-156730277D01*
X79987007Y-156781810D01*
X79964883Y-156818458D01*
X79931922Y-156842757D01*
X79885941Y-156857241D01*
X79824756Y-156864448D01*
X79746181Y-156866912D01*
X79648033Y-156867170D01*
X79616529Y-156867128D01*
X79527261Y-156866192D01*
X79458903Y-156863518D01*
X79408061Y-156858433D01*
X79371345Y-156850265D01*
X79345363Y-156838340D01*
X79326723Y-156821986D01*
X79312034Y-156800530D01*
X79307170Y-156785414D01*
X79302389Y-156752450D01*
X79298332Y-156701080D01*
X79296575Y-156664477D01*
X79492182Y-156664477D01*
X79650536Y-156664477D01*
X79808890Y-156664477D01*
X79808890Y-156411110D01*
X79808883Y-156395441D01*
X79808628Y-156319983D01*
X79808055Y-156254692D01*
X79807220Y-156203360D01*
X79806182Y-156169780D01*
X79804999Y-156157743D01*
X79795038Y-156156161D01*
X79764629Y-156150816D01*
X79718950Y-156142588D01*
X79663204Y-156132407D01*
X79615978Y-156123907D01*
X79565070Y-156115192D01*
X79527377Y-156109260D01*
X79508741Y-156107070D01*
X79507385Y-156107291D01*
X79502088Y-156114522D01*
X79498104Y-156133915D01*
X79495278Y-156168102D01*
X79493454Y-156219718D01*
X79492474Y-156291397D01*
X79492182Y-156385773D01*
X79492182Y-156664477D01*
X79296575Y-156664477D01*
X79294899Y-156629572D01*
X79291985Y-156536193D01*
X79289489Y-156419212D01*
X79283154Y-156066266D01*
X79222980Y-156154372D01*
X79162805Y-156242477D01*
X78966597Y-156242477D01*
X78966446Y-156164078D01*
X79019915Y-156086143D01*
X79046913Y-156045283D01*
X79060521Y-156019375D01*
X79062508Y-156003543D01*
X79054753Y-155992747D01*
X79052627Y-155990769D01*
X79039665Y-155963318D01*
X79036407Y-155924610D01*
X79043991Y-155885942D01*
X79054621Y-155870411D01*
X79085253Y-155848671D01*
X79123159Y-155834763D01*
X79157287Y-155833774D01*
X79160605Y-155834476D01*
X79171336Y-155834005D01*
X79183142Y-155827233D01*
X79197969Y-155811563D01*
X79217764Y-155784395D01*
X79244472Y-155743131D01*
X79280039Y-155685171D01*
X79326412Y-155607916D01*
X79330185Y-155601595D01*
X79459173Y-155379997D01*
X79588221Y-155147338D01*
X79719720Y-154899212D01*
X79856060Y-154631210D01*
X79889853Y-154564005D01*
X79928045Y-154489185D01*
X79962024Y-154423825D01*
X79990044Y-154371241D01*
X80010358Y-154334750D01*
X80021219Y-154317669D01*
X80027917Y-154311783D01*
X80061015Y-154298796D01*
X80103418Y-154295539D01*
X80143917Y-154303324D01*
X80150450Y-154306276D01*
X80163062Y-154316396D01*
X80173048Y-154333727D01*
X80180941Y-154361291D01*
X80187273Y-154402105D01*
X80192575Y-154459191D01*
X80197379Y-154535568D01*
X80202218Y-154634255D01*
X80218769Y-154924720D01*
X80243588Y-155220335D01*
X80276050Y-155500918D01*
X80316649Y-155771359D01*
X80319731Y-155789406D01*
X80331559Y-155854695D01*
X80344897Y-155923598D01*
X80358728Y-155991360D01*
X80372039Y-156053224D01*
X80383814Y-156104435D01*
X80393039Y-156140238D01*
X80398699Y-156155877D01*
X80406919Y-156156453D01*
X80435850Y-156154661D01*
X80480416Y-156150405D01*
X80535228Y-156144146D01*
X80601034Y-156137143D01*
X80660460Y-156134287D01*
X80715648Y-156136658D01*
X80777433Y-156144260D01*
X80799081Y-156147323D01*
X80845535Y-156152703D01*
X80879287Y-156154915D01*
X80894189Y-156153475D01*
X80899001Y-156143835D01*
X80908817Y-156111276D01*
X80921259Y-156060152D01*
X80935512Y-155994281D01*
X80950762Y-155917486D01*
X80966194Y-155833585D01*
X80980993Y-155746399D01*
X80983854Y-155728646D01*
X81007434Y-155570702D01*
X81028326Y-155407530D01*
X81046928Y-155235108D01*
X81063643Y-155049418D01*
X81078869Y-154846440D01*
X81093009Y-154622155D01*
X81097245Y-154551499D01*
X81102378Y-154475443D01*
X81107215Y-154418907D01*
X81112193Y-154378557D01*
X81117748Y-154351058D01*
X81124313Y-154333078D01*
X81132326Y-154321282D01*
X81150207Y-154308131D01*
X81190102Y-154296571D01*
X81233615Y-154297351D01*
X81268920Y-154311334D01*
X81271085Y-154313545D01*
X81285091Y-154335069D01*
X81307229Y-154374934D01*
X81335577Y-154429471D01*
X81368212Y-154495006D01*
X81403212Y-154567868D01*
X81536748Y-154839723D01*
X81694512Y-155138021D01*
X81860656Y-155430724D01*
X82029788Y-155708018D01*
X82032535Y-155712343D01*
X82070119Y-155769342D01*
X82098026Y-155806464D01*
X82118264Y-155826097D01*
X82132839Y-155830628D01*
X82144286Y-155829902D01*
X82181678Y-155838009D01*
X82218228Y-155856538D01*
X82241693Y-155879945D01*
X82250612Y-155905693D01*
X82252339Y-155951189D01*
X82239795Y-155990612D01*
X82235202Y-156002531D01*
X82237816Y-156021983D01*
X82251814Y-156051033D01*
X82279189Y-156094954D01*
X82332666Y-156176746D01*
X82331792Y-156233508D01*
X82325451Y-156645474D01*
X82324940Y-156677458D01*
X82320702Y-156877858D01*
X82314811Y-157057775D01*
X82306948Y-157221402D01*
X82296793Y-157372932D01*
X82284029Y-157516559D01*
X82268336Y-157656475D01*
X82249396Y-157796874D01*
X82226889Y-157941950D01*
X82225941Y-157947764D01*
X82216930Y-158007038D01*
X82210566Y-158056351D01*
X82207425Y-158090704D01*
X82208084Y-158105100D01*
X82208350Y-158105267D01*
X82222276Y-158100340D01*
X82252570Y-158083802D01*
X82294977Y-158058116D01*
X82345240Y-158025745D01*
X82358678Y-158016702D01*
X82454117Y-157944909D01*
X82555504Y-157857236D01*
X82657376Y-157759168D01*
X82754268Y-157656191D01*
X82840716Y-157553792D01*
X82911256Y-157457457D01*
X82946126Y-157403307D01*
X82989152Y-157332807D01*
X83028618Y-157264542D01*
X83059040Y-157207774D01*
X83074169Y-157178843D01*
X83100513Y-157133511D01*
X83123592Y-157099665D01*
X83139695Y-157083048D01*
X83171417Y-157071945D01*
X83219508Y-157075123D01*
X83261971Y-157101344D01*
X83293452Y-157132825D01*
X83305102Y-157102184D01*
X83308047Y-157093621D01*
X83319191Y-157052358D01*
X83333035Y-156991306D01*
X83348832Y-156914438D01*
X83365835Y-156825727D01*
X83383299Y-156729147D01*
X83400477Y-156628669D01*
X83416624Y-156528267D01*
X83430992Y-156431914D01*
X83443195Y-156348171D01*
X83455737Y-156270335D01*
X83467314Y-156212353D01*
X83479008Y-156171353D01*
X83491900Y-156144464D01*
X83507072Y-156128813D01*
X83525606Y-156121528D01*
X83548585Y-156119738D01*
X83553384Y-156119765D01*
X83565828Y-156119299D01*
X83574321Y-156115619D01*
X83578658Y-156105648D01*
X83578635Y-156086308D01*
X83574045Y-156054520D01*
X83564684Y-156007209D01*
X83550345Y-155941296D01*
X83530823Y-155853703D01*
X83502104Y-155732399D01*
X83429920Y-155478918D01*
X83345541Y-155245480D01*
X83248344Y-155030268D01*
X83233537Y-154999664D01*
X83211823Y-154949941D01*
X83196889Y-154909229D01*
X83191334Y-154884185D01*
X83191600Y-154879547D01*
X83196272Y-154849610D01*
X83205878Y-154802265D01*
X83219249Y-154743014D01*
X83235218Y-154677357D01*
X83238011Y-154666183D01*
X83258197Y-154581180D01*
X83279676Y-154484283D01*
X83301769Y-154379156D01*
X83323799Y-154269462D01*
X83345089Y-154158864D01*
X83364962Y-154051024D01*
X83382741Y-153949607D01*
X83397747Y-153858274D01*
X83409305Y-153780689D01*
X83416736Y-153720515D01*
X83419364Y-153681414D01*
X83418347Y-153673949D01*
X83412716Y-153667842D01*
X83399013Y-153663956D01*
X83373788Y-153662051D01*
X83333594Y-153661890D01*
X83274981Y-153663232D01*
X83194501Y-153665840D01*
X83077536Y-153671134D01*
X82883830Y-153686774D01*
X82697367Y-153711540D01*
X82507244Y-153746716D01*
X82499838Y-153748263D01*
X82420861Y-153764794D01*
X82361811Y-153776388D01*
X82318086Y-153782791D01*
X82285082Y-153783753D01*
X82258196Y-153779019D01*
X82232824Y-153768339D01*
X82204364Y-153751459D01*
X82168211Y-153728127D01*
X82023087Y-153640993D01*
X81847184Y-153549164D01*
X81666358Y-153468200D01*
X81484952Y-153399722D01*
X81307313Y-153345349D01*
X81137784Y-153306701D01*
X80980710Y-153285398D01*
X80939850Y-153282538D01*
X80846568Y-153278377D01*
X80742299Y-153276224D01*
X80632228Y-153275983D01*
X80521538Y-153277559D01*
X80415414Y-153280858D01*
X80319039Y-153285785D01*
X80237596Y-153292244D01*
X80176272Y-153300141D01*
X80050088Y-153325676D01*
X79837631Y-153385280D01*
X79622346Y-153466574D01*
X79402374Y-153570296D01*
X79175859Y-153697183D01*
X79017890Y-153792288D01*
X78814812Y-153751945D01*
X78760223Y-153741226D01*
X78635322Y-153718041D01*
X78525757Y-153700181D01*
X78424942Y-153686845D01*
X78326291Y-153677229D01*
X78223218Y-153670531D01*
X78109138Y-153665948D01*
X77872577Y-153658582D01*
X77879269Y-153714172D01*
X77881214Y-153729701D01*
X77892042Y-153805382D01*
X77907120Y-153899498D01*
X77925525Y-154007002D01*
X77946337Y-154122845D01*
X77968633Y-154241977D01*
X77991492Y-154359350D01*
X78013994Y-154469915D01*
X78035215Y-154568623D01*
X78044839Y-154612207D01*
X78062100Y-154692244D01*
X78076907Y-154763329D01*
X78088466Y-154821523D01*
X78095983Y-154862891D01*
X78098666Y-154883492D01*
X78098375Y-154886722D01*
X78090768Y-154913255D01*
X78074394Y-154956090D01*
X78051336Y-155010047D01*
X78023678Y-155069946D01*
X78014155Y-155089976D01*
X77935555Y-155268670D01*
X77870310Y-155445437D01*
X77813397Y-155633743D01*
X77806243Y-155660601D01*
X77791560Y-155718888D01*
X77775330Y-155786387D01*
X77758632Y-155858267D01*
X77742547Y-155929694D01*
X77728155Y-155995837D01*
X77716538Y-156051864D01*
X77708775Y-156092943D01*
X77705947Y-156114242D01*
X77501529Y-156114242D01*
X77522122Y-155998043D01*
X77574288Y-155748897D01*
X77632595Y-155523232D01*
X77696903Y-155321634D01*
X77711926Y-155280471D01*
X77738224Y-155212005D01*
X77767170Y-155139918D01*
X77796821Y-155068761D01*
X77825233Y-155003084D01*
X77850463Y-154947436D01*
X77870569Y-154906368D01*
X77883607Y-154884430D01*
X77884499Y-154871317D01*
X77880546Y-154836952D01*
X77872025Y-154785837D01*
X77859640Y-154722150D01*
X77844096Y-154650066D01*
X77839556Y-154629837D01*
X77810461Y-154495490D01*
X77782834Y-154360076D01*
X77757080Y-154226177D01*
X77733602Y-154096370D01*
X77712805Y-153973237D01*
X77695093Y-153859356D01*
X77680869Y-153757307D01*
X77670538Y-153669670D01*
X77664504Y-153599025D01*
X77663170Y-153547951D01*
X77666942Y-153519028D01*
X77672063Y-153506716D01*
X77681895Y-153490676D01*
X77696413Y-153478531D01*
X77718563Y-153469846D01*
X77751295Y-153464188D01*
X77797556Y-153461125D01*
X77860295Y-153460222D01*
X77942459Y-153461046D01*
X78046998Y-153463164D01*
X78112339Y-153464816D01*
X78240367Y-153469602D01*
X78353778Y-153476617D01*
X78459915Y-153486621D01*
X78566118Y-153500379D01*
X78679730Y-153518652D01*
X78808092Y-153542203D01*
X78979114Y-153574932D01*
X79086795Y-153509729D01*
X79159059Y-153467131D01*
X79376115Y-153352604D01*
X79594740Y-153256704D01*
X79812385Y-153180253D01*
X80026499Y-153124071D01*
X80234530Y-153088981D01*
X80433929Y-153075805D01*
X80583907Y-153074302D01*
X80619891Y-153022000D01*
X80643770Y-152990724D01*
X80692566Y-152943261D01*
X80755797Y-152900242D01*
X80838789Y-152857670D01*
X80848479Y-152853285D01*
X80974596Y-152809274D01*
X81116247Y-152780999D01*
X81269616Y-152768241D01*
X81430890Y-152770777D01*
X81596254Y-152788388D01*
X81761895Y-152820852D01*
X81923998Y-152867949D01*
X82078749Y-152929458D01*
X82101901Y-152940625D01*
X82152856Y-152972518D01*
X82180751Y-153005647D01*
X82187198Y-153042670D01*
X82173810Y-153086249D01*
X82163499Y-153105144D01*
X82141023Y-153129787D01*
X82111203Y-153140900D01*
X82070442Y-153138608D01*
X82015146Y-153123036D01*
X81941716Y-153094309D01*
X81870108Y-153066825D01*
X81734966Y-153026427D01*
X81591761Y-152996064D01*
X81447699Y-152976859D01*
X81309984Y-152969937D01*
X81185821Y-152976420D01*
X81143938Y-152982464D01*
X81077769Y-152995553D01*
X81012636Y-153011963D01*
X80954549Y-153029956D01*
X80909519Y-153047796D01*
X80883554Y-153063747D01*
X80882859Y-153066122D01*
X80897298Y-153072427D01*
X80933695Y-153078130D01*
X80989577Y-153082786D01*
X80996643Y-153083238D01*
X81175120Y-153105054D01*
X81364942Y-153147101D01*
X81563594Y-153208505D01*
X81768564Y-153288388D01*
X81977338Y-153385876D01*
X82187402Y-153500092D01*
X82317286Y-153575773D01*
X82478774Y-153543395D01*
X82550298Y-153529586D01*
X82682685Y-153507324D01*
X82813417Y-153490237D01*
X82949214Y-153477637D01*
X83096793Y-153468837D01*
X83262875Y-153463148D01*
X83568779Y-153455633D01*
X83601752Y-153488606D01*
X83607660Y-153494676D01*
X83620099Y-153510218D01*
X83628331Y-153528331D01*
X83632461Y-153552766D01*
X83632590Y-153587275D01*
X83628823Y-153635610D01*
X83621263Y-153701523D01*
X83610013Y-153788766D01*
X83598856Y-153868619D01*
X83582361Y-153975756D01*
X83563354Y-154090218D01*
X83542537Y-154208410D01*
X83520612Y-154326734D01*
X83498282Y-154441592D01*
X83476250Y-154549387D01*
X83455216Y-154646523D01*
X83435885Y-154729401D01*
X83418958Y-154794426D01*
X83405138Y-154837999D01*
X83400105Y-154860138D01*
X83404639Y-154882950D01*
X83411730Y-154893966D01*
X83430056Y-154929189D01*
X83454247Y-154980781D01*
X83482303Y-155044096D01*
X83512229Y-155114486D01*
X83542025Y-155187303D01*
X83569693Y-155257902D01*
X83593236Y-155321634D01*
X83628413Y-155426795D01*
X83689779Y-155642635D01*
X83744988Y-155882185D01*
X83786596Y-156105648D01*
X83793894Y-156144844D01*
G37*
%TO.C,D44*%
X169480000Y-146690000D02*
X169480000Y-150700000D01*
X167480000Y-146690000D02*
X169480000Y-146690000D01*
X167480000Y-146690000D02*
X167480000Y-150700000D01*
%TO.C,BT1*%
X355875000Y-148725000D02*
X361475000Y-148725000D01*
X355875000Y-148725000D02*
X355875000Y-143655000D01*
X361475000Y-148725000D02*
X361475000Y-143655000D01*
X354425000Y-143655000D02*
X348045000Y-136775000D01*
X355875000Y-143655000D02*
X354425000Y-143655000D01*
X361475000Y-143655000D02*
X364955000Y-143655000D01*
X348045000Y-129175000D02*
X348045000Y-136775000D01*
X354425000Y-122295000D02*
X348045000Y-129175000D01*
X355875000Y-122295000D02*
X354425000Y-122295000D01*
X355875000Y-122295000D02*
X355875000Y-117225000D01*
X361475000Y-122295000D02*
X365025000Y-122295000D01*
X355875000Y-117225000D02*
X361475000Y-117225000D01*
X361475000Y-117225000D02*
X361475000Y-122295000D01*
%TO.C,D53*%
X131380000Y-189235000D02*
X131380000Y-193245000D01*
X129380000Y-189235000D02*
X131380000Y-189235000D01*
X129380000Y-189235000D02*
X129380000Y-193245000D01*
%TO.C,D43*%
X150430000Y-146690000D02*
X150430000Y-150700000D01*
X148430000Y-146690000D02*
X150430000Y-146690000D01*
X148430000Y-146690000D02*
X148430000Y-150700000D01*
%TO.C,D4*%
X297750000Y-108590000D02*
X297750000Y-112600000D01*
X295750000Y-108590000D02*
X297750000Y-108590000D01*
X295750000Y-108590000D02*
X295750000Y-112600000D01*
%TO.C,D35*%
X112330000Y-124615000D02*
X112330000Y-128625000D01*
X110330000Y-124615000D02*
X112330000Y-124615000D01*
X110330000Y-124615000D02*
X110330000Y-128625000D01*
%TO.C,D29*%
X112330000Y-108590000D02*
X112330000Y-112600000D01*
X110330000Y-108590000D02*
X112330000Y-108590000D01*
X110330000Y-108590000D02*
X110330000Y-112600000D01*
%TO.C,D22*%
X297750000Y-165740000D02*
X297750000Y-169750000D01*
X295750000Y-165740000D02*
X297750000Y-165740000D01*
X295750000Y-165740000D02*
X295750000Y-169750000D01*
%TO.C,D6*%
X335850000Y-108590000D02*
X335850000Y-112600000D01*
X333850000Y-108590000D02*
X335850000Y-108590000D01*
X333850000Y-108590000D02*
X333850000Y-112600000D01*
%TO.C,D25*%
X297750000Y-189235000D02*
X297750000Y-193245000D01*
X295750000Y-189235000D02*
X297750000Y-189235000D01*
X295750000Y-189235000D02*
X295750000Y-193245000D01*
%TO.C,D10*%
X297750000Y-127640000D02*
X297750000Y-131650000D01*
X295750000Y-127640000D02*
X297750000Y-127640000D01*
X295750000Y-127640000D02*
X295750000Y-131650000D01*
%TO.C,D45*%
X188530000Y-146690000D02*
X188530000Y-150700000D01*
X186530000Y-146690000D02*
X188530000Y-146690000D01*
X186530000Y-146690000D02*
X186530000Y-150700000D01*
%TO.C,D42*%
X131380000Y-146690000D02*
X131380000Y-150700000D01*
X129380000Y-146690000D02*
X131380000Y-146690000D01*
X129380000Y-146690000D02*
X129380000Y-150700000D01*
%TO.C,D34*%
X207580000Y-108590000D02*
X207580000Y-112600000D01*
X205580000Y-108590000D02*
X207580000Y-108590000D01*
X205580000Y-108590000D02*
X205580000Y-112600000D01*
%TO.C,D16*%
X297750000Y-146690000D02*
X297750000Y-150700000D01*
X295750000Y-146690000D02*
X297750000Y-146690000D01*
X295750000Y-146690000D02*
X295750000Y-150700000D01*
%TO.C,D1*%
X240600000Y-108590000D02*
X240600000Y-112600000D01*
X238600000Y-108590000D02*
X240600000Y-108590000D01*
X238600000Y-108590000D02*
X238600000Y-112600000D01*
%TO.C,D20*%
X259650000Y-165740000D02*
X259650000Y-169750000D01*
X257650000Y-165740000D02*
X259650000Y-165740000D01*
X257650000Y-165740000D02*
X257650000Y-169750000D01*
%TO.C,J2*%
X118115000Y-130315000D02*
X118115000Y-136435000D01*
X111895000Y-130315000D02*
X111895000Y-131235000D01*
X110295000Y-130315000D02*
X118115000Y-130315000D01*
X115855000Y-131075000D02*
X115855000Y-132075000D01*
X114255000Y-131075000D02*
X115855000Y-131075000D01*
X111895000Y-131235000D02*
X110295000Y-131235000D01*
X110295000Y-131235000D02*
X110295000Y-130315000D01*
X111895000Y-131515000D02*
X111895000Y-131235000D01*
X111895000Y-131515000D02*
X110680000Y-131515000D01*
X115855000Y-131575000D02*
X118115000Y-131575000D01*
X115855000Y-132075000D02*
X118115000Y-132075000D01*
X115855000Y-132075000D02*
X114255000Y-132075000D01*
X114255000Y-132075000D02*
X114255000Y-131075000D01*
X118115000Y-132875000D02*
X113755000Y-132875000D01*
X113755000Y-132875000D02*
X113755000Y-133875000D01*
X113755000Y-133875000D02*
X118115000Y-133875000D01*
X115855000Y-134675000D02*
X114255000Y-134675000D01*
X114255000Y-134675000D02*
X114255000Y-135675000D01*
X111895000Y-135515000D02*
X111895000Y-135235000D01*
X110295000Y-135515000D02*
X111895000Y-135515000D01*
X115855000Y-135675000D02*
X115855000Y-134675000D01*
X114255000Y-135675000D02*
X115855000Y-135675000D01*
X118115000Y-136435000D02*
X110295000Y-136435000D01*
X111895000Y-136435000D02*
X111895000Y-135515000D01*
X110295000Y-136435000D02*
X110295000Y-135515000D01*
%TO.C,D14*%
X259650000Y-146690000D02*
X259650000Y-150700000D01*
X257650000Y-146690000D02*
X259650000Y-146690000D01*
X257650000Y-146690000D02*
X257650000Y-150700000D01*
%TO.C,D51*%
X188530000Y-165740000D02*
X188530000Y-169750000D01*
X186530000Y-165740000D02*
X188530000Y-165740000D01*
X186530000Y-165740000D02*
X186530000Y-169750000D01*
%TO.C,D40*%
X207580000Y-127640000D02*
X207580000Y-131650000D01*
X205580000Y-127640000D02*
X207580000Y-127640000D01*
X205580000Y-127640000D02*
X205580000Y-131650000D01*
%TO.C,D26*%
X316800000Y-189235000D02*
X316800000Y-193245000D01*
X314800000Y-189235000D02*
X316800000Y-189235000D01*
X314800000Y-189235000D02*
X314800000Y-193245000D01*
%TO.C,D24*%
X330850000Y-165740000D02*
X330850000Y-169750000D01*
X328850000Y-165740000D02*
X330850000Y-165740000D01*
X328850000Y-165740000D02*
X328850000Y-169750000D01*
%TO.C,REF\u002A\u002A*%
D10*
X321945000Y-176276000D02*
X319913000Y-178308000D01*
X316357000Y-178308000D01*
X316357000Y-177292000D01*
X320929000Y-177292000D01*
X320929000Y-174244000D01*
X321945000Y-174244000D01*
X321945000Y-176276000D01*
G36*
X321945000Y-176276000D02*
G01*
X319913000Y-178308000D01*
X316357000Y-178308000D01*
X316357000Y-177292000D01*
X320929000Y-177292000D01*
X320929000Y-174244000D01*
X321945000Y-174244000D01*
X321945000Y-176276000D01*
G37*
X315341000Y-175260000D02*
X316865000Y-175260000D01*
X316865000Y-172212000D01*
X317881000Y-172212000D01*
X317881000Y-174244000D01*
X315849000Y-176276000D01*
X315341000Y-176276000D01*
X315341000Y-178308000D01*
X314325000Y-178308000D01*
X314325000Y-176276000D01*
X312293000Y-176276000D01*
X312293000Y-175260000D01*
X314325000Y-175260000D01*
X314325000Y-171196000D01*
X315341000Y-171196000D01*
X315341000Y-175260000D01*
G36*
X315341000Y-175260000D02*
G01*
X316865000Y-175260000D01*
X316865000Y-172212000D01*
X317881000Y-172212000D01*
X317881000Y-174244000D01*
X315849000Y-176276000D01*
X315341000Y-176276000D01*
X315341000Y-178308000D01*
X314325000Y-178308000D01*
X314325000Y-176276000D01*
X312293000Y-176276000D01*
X312293000Y-175260000D01*
X314325000Y-175260000D01*
X314325000Y-171196000D01*
X315341000Y-171196000D01*
X315341000Y-175260000D01*
G37*
D12*
%TO.C,D48*%
X131380000Y-165740000D02*
X131380000Y-169750000D01*
X129380000Y-165740000D02*
X131380000Y-165740000D01*
X129380000Y-165740000D02*
X129380000Y-169750000D01*
%TO.C,J1*%
X316315000Y-136435000D02*
X316315000Y-130315000D01*
X322535000Y-136435000D02*
X322535000Y-135515000D01*
X324135000Y-136435000D02*
X316315000Y-136435000D01*
X318575000Y-135675000D02*
X318575000Y-134675000D01*
X320175000Y-135675000D02*
X318575000Y-135675000D01*
X322535000Y-135515000D02*
X324135000Y-135515000D01*
X324135000Y-135515000D02*
X324135000Y-136435000D01*
X322535000Y-135235000D02*
X322535000Y-135515000D01*
X322535000Y-135235000D02*
X323750000Y-135235000D01*
X318575000Y-135175000D02*
X316315000Y-135175000D01*
X318575000Y-134675000D02*
X316315000Y-134675000D01*
X318575000Y-134675000D02*
X320175000Y-134675000D01*
X320175000Y-134675000D02*
X320175000Y-135675000D01*
X316315000Y-133875000D02*
X320675000Y-133875000D01*
X320675000Y-133875000D02*
X320675000Y-132875000D01*
X320675000Y-132875000D02*
X316315000Y-132875000D01*
X318575000Y-132075000D02*
X320175000Y-132075000D01*
X320175000Y-132075000D02*
X320175000Y-131075000D01*
X322535000Y-131235000D02*
X322535000Y-131515000D01*
X324135000Y-131235000D02*
X322535000Y-131235000D01*
X318575000Y-131075000D02*
X318575000Y-132075000D01*
X320175000Y-131075000D02*
X318575000Y-131075000D01*
X316315000Y-130315000D02*
X324135000Y-130315000D01*
X322535000Y-130315000D02*
X322535000Y-131235000D01*
X324135000Y-130315000D02*
X324135000Y-131235000D01*
%TO.C,D19*%
X240600000Y-165740000D02*
X240600000Y-169750000D01*
X238600000Y-165740000D02*
X240600000Y-165740000D01*
X238600000Y-165740000D02*
X238600000Y-169750000D01*
%TO.C,D7*%
X240600000Y-127640000D02*
X240600000Y-131650000D01*
X238600000Y-127640000D02*
X240600000Y-127640000D01*
X238600000Y-127640000D02*
X238600000Y-131650000D01*
%TO.C,BT3*%
X74655000Y-117225000D02*
X69055000Y-117225000D01*
X74655000Y-117225000D02*
X74655000Y-122295000D01*
X69055000Y-117225000D02*
X69055000Y-122295000D01*
X76105000Y-122295000D02*
X82485000Y-129175000D01*
X74655000Y-122295000D02*
X76105000Y-122295000D01*
X69055000Y-122295000D02*
X65575000Y-122295000D01*
X82485000Y-136775000D02*
X82485000Y-129175000D01*
X76105000Y-143655000D02*
X82485000Y-136775000D01*
X74655000Y-143655000D02*
X76105000Y-143655000D01*
X74655000Y-143655000D02*
X74655000Y-148725000D01*
X69055000Y-143655000D02*
X65505000Y-143655000D01*
X74655000Y-148725000D02*
X69055000Y-148725000D01*
X69055000Y-148725000D02*
X69055000Y-143655000D01*
%TO.C,D54*%
X150430000Y-189235000D02*
X150430000Y-193245000D01*
X148430000Y-189235000D02*
X150430000Y-189235000D01*
X148430000Y-189235000D02*
X148430000Y-193245000D01*
%TO.C,D23*%
X316800000Y-165740000D02*
X316800000Y-169750000D01*
X314800000Y-165740000D02*
X316800000Y-165740000D01*
X314800000Y-165740000D02*
X314800000Y-169750000D01*
%TO.C,D32*%
X169480000Y-108590000D02*
X169480000Y-112600000D01*
X167480000Y-108590000D02*
X169480000Y-108590000D01*
X167480000Y-108590000D02*
X167480000Y-112600000D01*
%TO.C,D9*%
X278700000Y-127640000D02*
X278700000Y-131650000D01*
X276700000Y-127640000D02*
X278700000Y-127640000D01*
X276700000Y-127640000D02*
X276700000Y-131650000D01*
%TO.C,D3*%
X278700000Y-108590000D02*
X278700000Y-112600000D01*
X276700000Y-108590000D02*
X278700000Y-108590000D01*
X276700000Y-108590000D02*
X276700000Y-112600000D01*
%TO.C,REF\u002A\u002A*%
D10*
X118745000Y-176276000D02*
X116713000Y-178308000D01*
X113157000Y-178308000D01*
X113157000Y-177292000D01*
X117729000Y-177292000D01*
X117729000Y-174244000D01*
X118745000Y-174244000D01*
X118745000Y-176276000D01*
G36*
X118745000Y-176276000D02*
G01*
X116713000Y-178308000D01*
X113157000Y-178308000D01*
X113157000Y-177292000D01*
X117729000Y-177292000D01*
X117729000Y-174244000D01*
X118745000Y-174244000D01*
X118745000Y-176276000D01*
G37*
X112141000Y-175260000D02*
X113665000Y-175260000D01*
X113665000Y-172212000D01*
X114681000Y-172212000D01*
X114681000Y-174244000D01*
X112649000Y-176276000D01*
X112141000Y-176276000D01*
X112141000Y-178308000D01*
X111125000Y-178308000D01*
X111125000Y-176276000D01*
X109093000Y-176276000D01*
X109093000Y-175260000D01*
X111125000Y-175260000D01*
X111125000Y-171196000D01*
X112141000Y-171196000D01*
X112141000Y-175260000D01*
G36*
X112141000Y-175260000D02*
G01*
X113665000Y-175260000D01*
X113665000Y-172212000D01*
X114681000Y-172212000D01*
X114681000Y-174244000D01*
X112649000Y-176276000D01*
X112141000Y-176276000D01*
X112141000Y-178308000D01*
X111125000Y-178308000D01*
X111125000Y-176276000D01*
X109093000Y-176276000D01*
X109093000Y-175260000D01*
X111125000Y-175260000D01*
X111125000Y-171196000D01*
X112141000Y-171196000D01*
X112141000Y-175260000D01*
G37*
D12*
%TO.C,D8*%
X259650000Y-127640000D02*
X259650000Y-131650000D01*
X257650000Y-127640000D02*
X259650000Y-127640000D01*
X257650000Y-127640000D02*
X257650000Y-131650000D01*
%TO.C,D46*%
X207580000Y-146690000D02*
X207580000Y-150700000D01*
X205580000Y-146690000D02*
X207580000Y-146690000D01*
X205580000Y-146690000D02*
X205580000Y-150700000D01*
%TO.C,D47*%
X112330000Y-165740000D02*
X112330000Y-169750000D01*
X110330000Y-165740000D02*
X112330000Y-165740000D01*
X110330000Y-165740000D02*
X110330000Y-169750000D01*
%TO.C,D17*%
X316800000Y-146690000D02*
X316800000Y-150700000D01*
X314800000Y-146690000D02*
X316800000Y-146690000D01*
X314800000Y-146690000D02*
X314800000Y-150700000D01*
%TO.C,D5*%
X316800000Y-108590000D02*
X316800000Y-112600000D01*
X314800000Y-108590000D02*
X316800000Y-108590000D01*
X314800000Y-108590000D02*
X314800000Y-112600000D01*
%TO.C,G\u002A\u002A\u002A*%
G36*
X353033894Y-156144844D02*
G01*
X353045333Y-156213755D01*
X353057374Y-156288352D01*
X353065600Y-156343914D01*
X353070288Y-156383863D01*
X353071718Y-156411621D01*
X353070169Y-156430609D01*
X353065918Y-156444248D01*
X353059246Y-156455961D01*
X353033502Y-156484433D01*
X352990076Y-156504872D01*
X352942787Y-156503022D01*
X352897701Y-156478053D01*
X352883520Y-156468140D01*
X352875325Y-156474355D01*
X352869363Y-156501721D01*
X352862867Y-156540988D01*
X352832928Y-156714955D01*
X352804353Y-156868069D01*
X352776315Y-157003945D01*
X352747986Y-157126203D01*
X352718538Y-157238460D01*
X352687143Y-157344332D01*
X352652975Y-157447437D01*
X352632024Y-157505636D01*
X352606893Y-157566962D01*
X352584099Y-157609165D01*
X352561404Y-157635403D01*
X352536565Y-157648832D01*
X352507344Y-157652606D01*
X352499491Y-157652337D01*
X352455498Y-157637662D01*
X352422793Y-157600471D01*
X352401226Y-157540609D01*
X352386195Y-157473867D01*
X352335010Y-157553735D01*
X352306840Y-157595943D01*
X352230834Y-157697445D01*
X352143442Y-157800195D01*
X352047815Y-157901381D01*
X351947104Y-157998195D01*
X351844460Y-158087825D01*
X351743036Y-158167463D01*
X351645981Y-158234298D01*
X351556447Y-158285519D01*
X351477586Y-158318317D01*
X351446823Y-158325508D01*
X351394392Y-158332720D01*
X351340654Y-158335849D01*
X351319254Y-158335865D01*
X351278194Y-158333335D01*
X351252299Y-158325775D01*
X351234331Y-158311529D01*
X351225115Y-158299840D01*
X351216796Y-158282075D01*
X351212917Y-158258160D01*
X351213612Y-158224360D01*
X351219013Y-158176942D01*
X351229252Y-158112174D01*
X351244462Y-158026322D01*
X351250057Y-157995488D01*
X351262224Y-157928190D01*
X351272777Y-157869486D01*
X351280739Y-157824820D01*
X351285134Y-157799635D01*
X351291280Y-157762974D01*
X351199387Y-157771663D01*
X350719655Y-157809376D01*
X350170449Y-157832970D01*
X349631215Y-157834586D01*
X349100536Y-157814224D01*
X348576995Y-157771884D01*
X348569805Y-157771154D01*
X348527313Y-157767605D01*
X348503749Y-157768422D01*
X348493628Y-157774577D01*
X348491464Y-157787041D01*
X348493145Y-157803364D01*
X348498698Y-157841420D01*
X348507432Y-157895934D01*
X348518625Y-157962409D01*
X348531553Y-158036345D01*
X348571661Y-158261730D01*
X348545853Y-158296046D01*
X348534895Y-158309554D01*
X348520147Y-158321071D01*
X348498992Y-158327263D01*
X348465122Y-158329735D01*
X348412228Y-158330095D01*
X348384247Y-158329871D01*
X348336197Y-158327445D01*
X348298137Y-158320304D01*
X348259530Y-158305935D01*
X348209839Y-158281826D01*
X348170688Y-158260708D01*
X348070545Y-158197507D01*
X347963228Y-158118410D01*
X347853530Y-158027084D01*
X347746243Y-157927196D01*
X347718801Y-157899547D01*
X347656143Y-157832582D01*
X347592696Y-157760243D01*
X347532227Y-157687158D01*
X347478506Y-157617959D01*
X347435303Y-157557275D01*
X347406387Y-157509735D01*
X347385143Y-157468915D01*
X347369443Y-157538133D01*
X347364611Y-157556979D01*
X347340812Y-157610786D01*
X347306490Y-157642322D01*
X347260676Y-157652606D01*
X347249430Y-157652089D01*
X347223696Y-157645170D01*
X347200768Y-157627930D01*
X347178856Y-157597518D01*
X347156172Y-157551080D01*
X347130923Y-157485766D01*
X347101321Y-157398724D01*
X347064273Y-157279366D01*
X346990872Y-156993843D01*
X346933029Y-156689813D01*
X346932290Y-156685195D01*
X346919410Y-156604423D01*
X346909819Y-156545431D01*
X346902644Y-156505166D01*
X346897015Y-156480574D01*
X346892058Y-156468602D01*
X346886903Y-156466196D01*
X346880676Y-156470301D01*
X346872506Y-156477865D01*
X346839956Y-156498513D01*
X346792627Y-156506612D01*
X346747555Y-156492156D01*
X346710754Y-156455961D01*
X346705628Y-156447404D01*
X346700707Y-156434610D01*
X346698414Y-156417375D01*
X346699026Y-156392278D01*
X346702822Y-156355898D01*
X346710082Y-156304813D01*
X346721083Y-156235602D01*
X346736106Y-156144844D01*
X346741529Y-156114242D01*
X346945947Y-156114242D01*
X346956141Y-156118063D01*
X346981989Y-156119738D01*
X347001352Y-156120948D01*
X347020418Y-156127195D01*
X347035986Y-156141383D01*
X347049131Y-156166384D01*
X347060930Y-156205067D01*
X347072459Y-156260303D01*
X347084792Y-156334962D01*
X347099007Y-156431914D01*
X347103485Y-156462870D01*
X347118519Y-156560991D01*
X347135087Y-156661856D01*
X347152442Y-156761492D01*
X347169836Y-156855925D01*
X347186526Y-156941185D01*
X347201763Y-157013296D01*
X347214803Y-157068287D01*
X347224898Y-157102184D01*
X347236547Y-157132825D01*
X347268028Y-157101344D01*
X347295243Y-157081422D01*
X347342192Y-157070380D01*
X347390304Y-157083048D01*
X347398461Y-157090127D01*
X347419016Y-157117319D01*
X347444420Y-157158448D01*
X347470960Y-157207774D01*
X347473427Y-157212673D01*
X347556010Y-157361677D01*
X347648584Y-157499487D01*
X347755840Y-157632479D01*
X347882467Y-157767029D01*
X347932429Y-157815688D01*
X347995455Y-157874316D01*
X348055972Y-157927908D01*
X348108970Y-157972049D01*
X348149439Y-158002323D01*
X348163591Y-158011800D01*
X348213787Y-158044935D01*
X348260055Y-158074836D01*
X348293890Y-158095988D01*
X348343328Y-158125789D01*
X348334494Y-158090590D01*
X348333077Y-158084705D01*
X348323951Y-158039268D01*
X348312749Y-157973793D01*
X348300090Y-157892617D01*
X348286590Y-157800077D01*
X348272868Y-157700509D01*
X348259542Y-157598251D01*
X348247229Y-157497639D01*
X348236547Y-157403011D01*
X348233409Y-157373233D01*
X348226255Y-157299755D01*
X348220535Y-157229730D01*
X348216089Y-157159047D01*
X348212758Y-157083593D01*
X348210382Y-156999254D01*
X348208801Y-156901919D01*
X348207855Y-156787475D01*
X348207386Y-156651808D01*
X348206597Y-156242477D01*
X348402805Y-156242477D01*
X348402916Y-156583327D01*
X348402920Y-156590146D01*
X348404403Y-156778526D01*
X348408753Y-156948533D01*
X348416283Y-157106777D01*
X348427305Y-157259867D01*
X348442130Y-157414413D01*
X348445672Y-157447111D01*
X348451685Y-157496142D01*
X348457548Y-157526949D01*
X348464824Y-157544200D01*
X348475081Y-157552557D01*
X348489885Y-157556688D01*
X348514322Y-157560325D01*
X348561655Y-157565705D01*
X348626408Y-157572181D01*
X348704464Y-157579395D01*
X348791707Y-157586990D01*
X348884023Y-157594609D01*
X348977293Y-157601894D01*
X349067403Y-157608487D01*
X349150237Y-157614032D01*
X349208439Y-157617143D01*
X349296817Y-157620705D01*
X349401113Y-157624008D01*
X349516746Y-157626978D01*
X349639134Y-157629541D01*
X349763695Y-157631621D01*
X349885846Y-157633143D01*
X350001005Y-157634033D01*
X350104592Y-157634216D01*
X350192022Y-157633615D01*
X350258715Y-157632158D01*
X350291404Y-157630938D01*
X350384897Y-157626751D01*
X350487003Y-157621326D01*
X350594638Y-157614904D01*
X350704721Y-157607721D01*
X350814168Y-157600015D01*
X350919896Y-157592026D01*
X351018822Y-157583991D01*
X351107864Y-157576148D01*
X351183939Y-157568735D01*
X351243963Y-157561991D01*
X351284854Y-157556153D01*
X351303529Y-157551460D01*
X351306583Y-157547544D01*
X351314274Y-157521220D01*
X351322030Y-157473372D01*
X351329684Y-157406713D01*
X351337068Y-157323956D01*
X351344015Y-157227815D01*
X351350358Y-157121003D01*
X351355927Y-157006232D01*
X351360557Y-156886217D01*
X351364079Y-156763670D01*
X351366325Y-156641305D01*
X351367129Y-156521835D01*
X351367194Y-156233508D01*
X351313354Y-156151550D01*
X351307488Y-156142704D01*
X351281484Y-156105501D01*
X351260988Y-156079307D01*
X351250012Y-156069329D01*
X351249900Y-156069349D01*
X351247407Y-156082431D01*
X351245166Y-156117449D01*
X351243265Y-156171147D01*
X351241795Y-156240266D01*
X351240847Y-156321549D01*
X351240511Y-156411739D01*
X351240508Y-156425211D01*
X351240224Y-156529015D01*
X351239367Y-156610764D01*
X351238015Y-156664477D01*
X351237790Y-156673398D01*
X351235342Y-156719855D01*
X351231876Y-156753077D01*
X351227243Y-156776004D01*
X351221294Y-156791575D01*
X351213968Y-156804813D01*
X351198246Y-156825909D01*
X351177630Y-156841677D01*
X351148716Y-156852877D01*
X351108098Y-156860268D01*
X351052370Y-156864608D01*
X350978128Y-156866656D01*
X350881966Y-156867170D01*
X350857950Y-156867164D01*
X350778643Y-156866925D01*
X350719727Y-156866046D01*
X350677261Y-156864132D01*
X350647309Y-156860787D01*
X350625929Y-156855618D01*
X350609183Y-156848230D01*
X350593133Y-156838227D01*
X350593090Y-156838199D01*
X350571044Y-156821309D01*
X350553874Y-156801694D01*
X350540971Y-156776125D01*
X350531725Y-156741373D01*
X350525527Y-156694208D01*
X350523748Y-156664477D01*
X350721109Y-156664477D01*
X350879464Y-156664477D01*
X351037818Y-156664477D01*
X351037818Y-156385773D01*
X351037805Y-156362961D01*
X351037375Y-156273797D01*
X351036223Y-156206751D01*
X351034192Y-156159189D01*
X351031125Y-156128478D01*
X351026866Y-156111983D01*
X351021259Y-156107070D01*
X351007674Y-156108545D01*
X350973062Y-156113858D01*
X350924155Y-156122131D01*
X350866795Y-156132407D01*
X350818700Y-156141199D01*
X350771223Y-156149770D01*
X350738256Y-156155595D01*
X350725000Y-156157743D01*
X350724759Y-156158226D01*
X350723601Y-156174788D01*
X350722598Y-156212149D01*
X350721810Y-156266518D01*
X350721294Y-156334103D01*
X350721109Y-156411110D01*
X350721109Y-156664477D01*
X350523748Y-156664477D01*
X350521768Y-156631402D01*
X350519839Y-156549725D01*
X350519131Y-156445948D01*
X350519131Y-156445744D01*
X350518332Y-156351908D01*
X350516534Y-156275476D01*
X350513828Y-156218428D01*
X350510310Y-156182746D01*
X350506073Y-156170412D01*
X350505238Y-156170344D01*
X350490998Y-156158434D01*
X350474466Y-156132571D01*
X350460779Y-156102192D01*
X350455075Y-156076735D01*
X350455200Y-156074847D01*
X350464669Y-156051647D01*
X350484588Y-156023498D01*
X350493549Y-156014095D01*
X350506603Y-156004416D01*
X350525255Y-155995628D01*
X350552732Y-155986864D01*
X350592263Y-155977257D01*
X350647077Y-155965942D01*
X350720402Y-155952053D01*
X350815467Y-155934723D01*
X350875082Y-155923864D01*
X350953515Y-155909297D01*
X351020909Y-155896450D01*
X351073787Y-155886001D01*
X351108672Y-155878626D01*
X351122088Y-155875003D01*
X351120909Y-155869254D01*
X351109520Y-155845808D01*
X351088821Y-155808960D01*
X351061445Y-155763545D01*
X351018885Y-155694358D01*
X350840569Y-155391250D01*
X350662177Y-155066459D01*
X350525039Y-154808566D01*
X350509767Y-155011260D01*
X350509278Y-155017722D01*
X350493282Y-155204591D01*
X350473985Y-155390124D01*
X350451952Y-155570320D01*
X350427749Y-155741180D01*
X350401940Y-155898704D01*
X350375090Y-156038892D01*
X350347766Y-156157743D01*
X350340773Y-156184476D01*
X350325689Y-156235311D01*
X350311006Y-156270597D01*
X350293581Y-156296956D01*
X350270269Y-156321012D01*
X350223603Y-156363931D01*
X350095474Y-156353981D01*
X350061409Y-156351439D01*
X349963758Y-156345847D01*
X349876516Y-156344237D01*
X349788529Y-156346577D01*
X349688641Y-156352837D01*
X349635822Y-156356422D01*
X349593342Y-156357627D01*
X349564304Y-156355133D01*
X349542420Y-156348329D01*
X349521400Y-156336606D01*
X349503446Y-156323956D01*
X349481437Y-156302010D01*
X349463262Y-156272427D01*
X349446961Y-156230861D01*
X349430574Y-156172968D01*
X349412141Y-156094402D01*
X349394145Y-156008648D01*
X349370735Y-155883451D01*
X349347847Y-155746908D01*
X349326065Y-155603536D01*
X349305974Y-155457853D01*
X349288160Y-155314377D01*
X349273207Y-155177627D01*
X349261701Y-155052119D01*
X349254227Y-154942373D01*
X349251369Y-154852905D01*
X349251052Y-154783230D01*
X349133205Y-155011260D01*
X349077710Y-155117579D01*
X348959744Y-155336824D01*
X348843176Y-155544553D01*
X348731456Y-155734556D01*
X348645084Y-155877572D01*
X348710802Y-155890558D01*
X348736557Y-155895461D01*
X348786728Y-155904677D01*
X348851825Y-155916418D01*
X348926287Y-155929681D01*
X349004551Y-155943464D01*
X349071563Y-155955754D01*
X349140450Y-155969631D01*
X349198172Y-155982586D01*
X349240114Y-155993576D01*
X349261661Y-156001558D01*
X349261669Y-156001563D01*
X349298099Y-156035973D01*
X349310427Y-156077974D01*
X349298314Y-156126408D01*
X349294318Y-156134345D01*
X349277675Y-156160047D01*
X349264457Y-156170412D01*
X349260544Y-156178732D01*
X349256598Y-156211150D01*
X349253638Y-156267136D01*
X349251712Y-156345724D01*
X349250868Y-156445948D01*
X349250831Y-156461005D01*
X349250207Y-156572410D01*
X349247485Y-156661322D01*
X349247164Y-156664477D01*
X349240480Y-156730277D01*
X349227007Y-156781810D01*
X349204883Y-156818458D01*
X349171922Y-156842757D01*
X349125941Y-156857241D01*
X349064756Y-156864448D01*
X348986181Y-156866912D01*
X348888033Y-156867170D01*
X348856529Y-156867128D01*
X348767261Y-156866192D01*
X348698903Y-156863518D01*
X348648061Y-156858433D01*
X348611345Y-156850265D01*
X348585363Y-156838340D01*
X348566723Y-156821986D01*
X348552034Y-156800530D01*
X348547170Y-156785414D01*
X348542389Y-156752450D01*
X348538332Y-156701080D01*
X348536575Y-156664477D01*
X348732182Y-156664477D01*
X348890536Y-156664477D01*
X349048890Y-156664477D01*
X349048890Y-156411110D01*
X349048883Y-156395441D01*
X349048628Y-156319983D01*
X349048055Y-156254692D01*
X349047220Y-156203360D01*
X349046182Y-156169780D01*
X349044999Y-156157743D01*
X349035038Y-156156161D01*
X349004629Y-156150816D01*
X348958950Y-156142588D01*
X348903204Y-156132407D01*
X348855978Y-156123907D01*
X348805070Y-156115192D01*
X348767377Y-156109260D01*
X348748741Y-156107070D01*
X348747385Y-156107291D01*
X348742088Y-156114522D01*
X348738104Y-156133915D01*
X348735278Y-156168102D01*
X348733454Y-156219718D01*
X348732474Y-156291397D01*
X348732182Y-156385773D01*
X348732182Y-156664477D01*
X348536575Y-156664477D01*
X348534899Y-156629572D01*
X348531985Y-156536193D01*
X348529489Y-156419212D01*
X348523154Y-156066266D01*
X348462980Y-156154372D01*
X348402805Y-156242477D01*
X348206597Y-156242477D01*
X348206446Y-156164078D01*
X348259915Y-156086143D01*
X348286913Y-156045283D01*
X348300521Y-156019375D01*
X348302508Y-156003543D01*
X348294753Y-155992747D01*
X348292627Y-155990769D01*
X348279665Y-155963318D01*
X348276407Y-155924610D01*
X348283991Y-155885942D01*
X348294621Y-155870411D01*
X348325253Y-155848671D01*
X348363159Y-155834763D01*
X348397287Y-155833774D01*
X348400605Y-155834476D01*
X348411336Y-155834005D01*
X348423142Y-155827233D01*
X348437969Y-155811563D01*
X348457764Y-155784395D01*
X348484472Y-155743131D01*
X348520039Y-155685171D01*
X348566412Y-155607916D01*
X348570185Y-155601595D01*
X348699173Y-155379997D01*
X348828221Y-155147338D01*
X348959720Y-154899212D01*
X349096060Y-154631210D01*
X349129853Y-154564005D01*
X349168045Y-154489185D01*
X349202024Y-154423825D01*
X349230044Y-154371241D01*
X349250358Y-154334750D01*
X349261219Y-154317669D01*
X349267917Y-154311783D01*
X349301015Y-154298796D01*
X349343418Y-154295539D01*
X349383917Y-154303324D01*
X349390450Y-154306276D01*
X349403062Y-154316396D01*
X349413048Y-154333727D01*
X349420941Y-154361291D01*
X349427273Y-154402105D01*
X349432575Y-154459191D01*
X349437379Y-154535568D01*
X349442218Y-154634255D01*
X349458769Y-154924720D01*
X349483588Y-155220335D01*
X349516050Y-155500918D01*
X349556649Y-155771359D01*
X349559731Y-155789406D01*
X349571559Y-155854695D01*
X349584897Y-155923598D01*
X349598728Y-155991360D01*
X349612039Y-156053224D01*
X349623814Y-156104435D01*
X349633039Y-156140238D01*
X349638699Y-156155877D01*
X349646919Y-156156453D01*
X349675850Y-156154661D01*
X349720416Y-156150405D01*
X349775228Y-156144146D01*
X349841034Y-156137143D01*
X349900460Y-156134287D01*
X349955648Y-156136658D01*
X350017433Y-156144260D01*
X350039081Y-156147323D01*
X350085535Y-156152703D01*
X350119287Y-156154915D01*
X350134189Y-156153475D01*
X350139001Y-156143835D01*
X350148817Y-156111276D01*
X350161259Y-156060152D01*
X350175512Y-155994281D01*
X350190762Y-155917486D01*
X350206194Y-155833585D01*
X350220993Y-155746399D01*
X350223854Y-155728646D01*
X350247434Y-155570702D01*
X350268326Y-155407530D01*
X350286928Y-155235108D01*
X350303643Y-155049418D01*
X350318869Y-154846440D01*
X350333009Y-154622155D01*
X350337245Y-154551499D01*
X350342378Y-154475443D01*
X350347215Y-154418907D01*
X350352193Y-154378557D01*
X350357748Y-154351058D01*
X350364313Y-154333078D01*
X350372326Y-154321282D01*
X350390207Y-154308131D01*
X350430102Y-154296571D01*
X350473615Y-154297351D01*
X350508920Y-154311334D01*
X350511085Y-154313545D01*
X350525091Y-154335069D01*
X350547229Y-154374934D01*
X350575577Y-154429471D01*
X350608212Y-154495006D01*
X350643212Y-154567868D01*
X350776748Y-154839723D01*
X350934512Y-155138021D01*
X351100656Y-155430724D01*
X351269788Y-155708018D01*
X351272535Y-155712343D01*
X351310119Y-155769342D01*
X351338026Y-155806464D01*
X351358264Y-155826097D01*
X351372839Y-155830628D01*
X351384286Y-155829902D01*
X351421678Y-155838009D01*
X351458228Y-155856538D01*
X351481693Y-155879945D01*
X351490612Y-155905693D01*
X351492339Y-155951189D01*
X351479795Y-155990612D01*
X351475202Y-156002531D01*
X351477816Y-156021983D01*
X351491814Y-156051033D01*
X351519189Y-156094954D01*
X351572666Y-156176746D01*
X351571792Y-156233508D01*
X351565451Y-156645474D01*
X351564940Y-156677458D01*
X351560702Y-156877858D01*
X351554811Y-157057775D01*
X351546948Y-157221402D01*
X351536793Y-157372932D01*
X351524029Y-157516559D01*
X351508336Y-157656475D01*
X351489396Y-157796874D01*
X351466889Y-157941950D01*
X351465941Y-157947764D01*
X351456930Y-158007038D01*
X351450566Y-158056351D01*
X351447425Y-158090704D01*
X351448084Y-158105100D01*
X351448350Y-158105267D01*
X351462276Y-158100340D01*
X351492570Y-158083802D01*
X351534977Y-158058116D01*
X351585240Y-158025745D01*
X351598678Y-158016702D01*
X351694117Y-157944909D01*
X351795504Y-157857236D01*
X351897376Y-157759168D01*
X351994268Y-157656191D01*
X352080716Y-157553792D01*
X352151256Y-157457457D01*
X352186126Y-157403307D01*
X352229152Y-157332807D01*
X352268618Y-157264542D01*
X352299040Y-157207774D01*
X352314169Y-157178843D01*
X352340513Y-157133511D01*
X352363592Y-157099665D01*
X352379695Y-157083048D01*
X352411417Y-157071945D01*
X352459508Y-157075123D01*
X352501971Y-157101344D01*
X352533452Y-157132825D01*
X352545102Y-157102184D01*
X352548047Y-157093621D01*
X352559191Y-157052358D01*
X352573035Y-156991306D01*
X352588832Y-156914438D01*
X352605835Y-156825727D01*
X352623299Y-156729147D01*
X352640477Y-156628669D01*
X352656624Y-156528267D01*
X352670992Y-156431914D01*
X352683195Y-156348171D01*
X352695737Y-156270335D01*
X352707314Y-156212353D01*
X352719008Y-156171353D01*
X352731900Y-156144464D01*
X352747072Y-156128813D01*
X352765606Y-156121528D01*
X352788585Y-156119738D01*
X352793384Y-156119765D01*
X352805828Y-156119299D01*
X352814321Y-156115619D01*
X352818658Y-156105648D01*
X352818635Y-156086308D01*
X352814045Y-156054520D01*
X352804684Y-156007209D01*
X352790345Y-155941296D01*
X352770823Y-155853703D01*
X352742104Y-155732399D01*
X352669920Y-155478918D01*
X352585541Y-155245480D01*
X352488344Y-155030268D01*
X352473537Y-154999664D01*
X352451823Y-154949941D01*
X352436889Y-154909229D01*
X352431334Y-154884185D01*
X352431600Y-154879547D01*
X352436272Y-154849610D01*
X352445878Y-154802265D01*
X352459249Y-154743014D01*
X352475218Y-154677357D01*
X352478011Y-154666183D01*
X352498197Y-154581180D01*
X352519676Y-154484283D01*
X352541769Y-154379156D01*
X352563799Y-154269462D01*
X352585089Y-154158864D01*
X352604962Y-154051024D01*
X352622741Y-153949607D01*
X352637747Y-153858274D01*
X352649305Y-153780689D01*
X352656736Y-153720515D01*
X352659364Y-153681414D01*
X352658347Y-153673949D01*
X352652716Y-153667842D01*
X352639013Y-153663956D01*
X352613788Y-153662051D01*
X352573594Y-153661890D01*
X352514981Y-153663232D01*
X352434501Y-153665840D01*
X352317536Y-153671134D01*
X352123830Y-153686774D01*
X351937367Y-153711540D01*
X351747244Y-153746716D01*
X351739838Y-153748263D01*
X351660861Y-153764794D01*
X351601811Y-153776388D01*
X351558086Y-153782791D01*
X351525082Y-153783753D01*
X351498196Y-153779019D01*
X351472824Y-153768339D01*
X351444364Y-153751459D01*
X351408211Y-153728127D01*
X351263087Y-153640993D01*
X351087184Y-153549164D01*
X350906358Y-153468200D01*
X350724952Y-153399722D01*
X350547313Y-153345349D01*
X350377784Y-153306701D01*
X350220710Y-153285398D01*
X350179850Y-153282538D01*
X350086568Y-153278377D01*
X349982299Y-153276224D01*
X349872228Y-153275983D01*
X349761538Y-153277559D01*
X349655414Y-153280858D01*
X349559039Y-153285785D01*
X349477596Y-153292244D01*
X349416272Y-153300141D01*
X349290088Y-153325676D01*
X349077631Y-153385280D01*
X348862346Y-153466574D01*
X348642374Y-153570296D01*
X348415859Y-153697183D01*
X348257890Y-153792288D01*
X348054812Y-153751945D01*
X348000223Y-153741226D01*
X347875322Y-153718041D01*
X347765757Y-153700181D01*
X347664942Y-153686845D01*
X347566291Y-153677229D01*
X347463218Y-153670531D01*
X347349138Y-153665948D01*
X347112577Y-153658582D01*
X347119269Y-153714172D01*
X347121214Y-153729701D01*
X347132042Y-153805382D01*
X347147120Y-153899498D01*
X347165525Y-154007002D01*
X347186337Y-154122845D01*
X347208633Y-154241977D01*
X347231492Y-154359350D01*
X347253994Y-154469915D01*
X347275215Y-154568623D01*
X347284839Y-154612207D01*
X347302100Y-154692244D01*
X347316907Y-154763329D01*
X347328466Y-154821523D01*
X347335983Y-154862891D01*
X347338666Y-154883492D01*
X347338375Y-154886722D01*
X347330768Y-154913255D01*
X347314394Y-154956090D01*
X347291336Y-155010047D01*
X347263678Y-155069946D01*
X347254155Y-155089976D01*
X347175555Y-155268670D01*
X347110310Y-155445437D01*
X347053397Y-155633743D01*
X347046243Y-155660601D01*
X347031560Y-155718888D01*
X347015330Y-155786387D01*
X346998632Y-155858267D01*
X346982547Y-155929694D01*
X346968155Y-155995837D01*
X346956538Y-156051864D01*
X346948775Y-156092943D01*
X346945947Y-156114242D01*
X346741529Y-156114242D01*
X346762122Y-155998043D01*
X346814288Y-155748897D01*
X346872595Y-155523232D01*
X346936903Y-155321634D01*
X346951926Y-155280471D01*
X346978224Y-155212005D01*
X347007170Y-155139918D01*
X347036821Y-155068761D01*
X347065233Y-155003084D01*
X347090463Y-154947436D01*
X347110569Y-154906368D01*
X347123607Y-154884430D01*
X347124499Y-154871317D01*
X347120546Y-154836952D01*
X347112025Y-154785837D01*
X347099640Y-154722150D01*
X347084096Y-154650066D01*
X347079556Y-154629837D01*
X347050461Y-154495490D01*
X347022834Y-154360076D01*
X346997080Y-154226177D01*
X346973602Y-154096370D01*
X346952805Y-153973237D01*
X346935093Y-153859356D01*
X346920869Y-153757307D01*
X346910538Y-153669670D01*
X346904504Y-153599025D01*
X346903170Y-153547951D01*
X346906942Y-153519028D01*
X346912063Y-153506716D01*
X346921895Y-153490676D01*
X346936413Y-153478531D01*
X346958563Y-153469846D01*
X346991295Y-153464188D01*
X347037556Y-153461125D01*
X347100295Y-153460222D01*
X347182459Y-153461046D01*
X347286998Y-153463164D01*
X347352339Y-153464816D01*
X347480367Y-153469602D01*
X347593778Y-153476617D01*
X347699915Y-153486621D01*
X347806118Y-153500379D01*
X347919730Y-153518652D01*
X348048092Y-153542203D01*
X348219114Y-153574932D01*
X348326795Y-153509729D01*
X348399059Y-153467131D01*
X348616115Y-153352604D01*
X348834740Y-153256704D01*
X349052385Y-153180253D01*
X349266499Y-153124071D01*
X349474530Y-153088981D01*
X349673929Y-153075805D01*
X349823907Y-153074302D01*
X349859891Y-153022000D01*
X349883770Y-152990724D01*
X349932566Y-152943261D01*
X349995797Y-152900242D01*
X350078789Y-152857670D01*
X350088479Y-152853285D01*
X350214596Y-152809274D01*
X350356247Y-152780999D01*
X350509616Y-152768241D01*
X350670890Y-152770777D01*
X350836254Y-152788388D01*
X351001895Y-152820852D01*
X351163998Y-152867949D01*
X351318749Y-152929458D01*
X351341901Y-152940625D01*
X351392856Y-152972518D01*
X351420751Y-153005647D01*
X351427198Y-153042670D01*
X351413810Y-153086249D01*
X351403499Y-153105144D01*
X351381023Y-153129787D01*
X351351203Y-153140900D01*
X351310442Y-153138608D01*
X351255146Y-153123036D01*
X351181716Y-153094309D01*
X351110108Y-153066825D01*
X350974966Y-153026427D01*
X350831761Y-152996064D01*
X350687699Y-152976859D01*
X350549984Y-152969937D01*
X350425821Y-152976420D01*
X350383938Y-152982464D01*
X350317769Y-152995553D01*
X350252636Y-153011963D01*
X350194549Y-153029956D01*
X350149519Y-153047796D01*
X350123554Y-153063747D01*
X350122859Y-153066122D01*
X350137298Y-153072427D01*
X350173695Y-153078130D01*
X350229577Y-153082786D01*
X350236643Y-153083238D01*
X350415120Y-153105054D01*
X350604942Y-153147101D01*
X350803594Y-153208505D01*
X351008564Y-153288388D01*
X351217338Y-153385876D01*
X351427402Y-153500092D01*
X351557286Y-153575773D01*
X351718774Y-153543395D01*
X351790298Y-153529586D01*
X351922685Y-153507324D01*
X352053417Y-153490237D01*
X352189214Y-153477637D01*
X352336793Y-153468837D01*
X352502875Y-153463148D01*
X352808779Y-153455633D01*
X352841752Y-153488606D01*
X352847660Y-153494676D01*
X352860099Y-153510218D01*
X352868331Y-153528331D01*
X352872461Y-153552766D01*
X352872590Y-153587275D01*
X352868823Y-153635610D01*
X352861263Y-153701523D01*
X352850013Y-153788766D01*
X352838856Y-153868619D01*
X352822361Y-153975756D01*
X352803354Y-154090218D01*
X352782537Y-154208410D01*
X352760612Y-154326734D01*
X352738282Y-154441592D01*
X352716250Y-154549387D01*
X352695216Y-154646523D01*
X352675885Y-154729401D01*
X352658958Y-154794426D01*
X352645138Y-154837999D01*
X352640105Y-154860138D01*
X352644639Y-154882950D01*
X352651730Y-154893966D01*
X352670056Y-154929189D01*
X352694247Y-154980781D01*
X352722303Y-155044096D01*
X352752229Y-155114486D01*
X352782025Y-155187303D01*
X352809693Y-155257902D01*
X352833236Y-155321634D01*
X352868413Y-155426795D01*
X352929779Y-155642635D01*
X352984988Y-155882185D01*
X353026596Y-156105648D01*
X353033894Y-156144844D01*
G37*
%TO.C,D13*%
X240600000Y-146690000D02*
X240600000Y-150700000D01*
X238600000Y-146690000D02*
X240600000Y-146690000D01*
X238600000Y-146690000D02*
X238600000Y-150700000D01*
%TD*%
M02*
