%TF.GenerationSoftware,KiCad,Pcbnew,7.0.9*%
%TF.CreationDate,2024-05-08T21:34:52+09:00*%
%TF.ProjectId,L4,4c342e6b-6963-4616-945f-706362585858,rev?*%
%TF.SameCoordinates,Original*%
%TF.FileFunction,Paste,Bot*%
%TF.FilePolarity,Positive*%
%FSLAX46Y46*%
G04 Gerber Fmt 4.6, Leading zero omitted, Abs format (unit mm)*
G04 Created by KiCad (PCBNEW 7.0.9) date 2024-05-08 21:34:52*
%MOMM*%
%LPD*%
G01*
G04 APERTURE LIST*
G04 Aperture macros list*
%AMRoundRect*
0 Rectangle with rounded corners*
0 $1 Rounding radius*
0 $2 $3 $4 $5 $6 $7 $8 $9 X,Y pos of 4 corners*
0 Add a 4 corners polygon primitive as box body*
4,1,4,$2,$3,$4,$5,$6,$7,$8,$9,$2,$3,0*
0 Add four circle primitives for the rounded corners*
1,1,$1+$1,$2,$3*
1,1,$1+$1,$4,$5*
1,1,$1+$1,$6,$7*
1,1,$1+$1,$8,$9*
0 Add four rect primitives between the rounded corners*
20,1,$1+$1,$2,$3,$4,$5,0*
20,1,$1+$1,$4,$5,$6,$7,0*
20,1,$1+$1,$6,$7,$8,$9,0*
20,1,$1+$1,$8,$9,$2,$3,0*%
G04 Aperture macros list end*
%ADD10RoundRect,0.225000X-0.375000X0.225000X-0.375000X-0.225000X0.375000X-0.225000X0.375000X0.225000X0*%
%ADD11R,5.000000X5.000000*%
%ADD12R,4.000000X4.000000*%
G04 APERTURE END LIST*
D10*
%TO.C,D41*%
X111330000Y-147400000D03*
X111330000Y-150700000D03*
%TD*%
%TO.C,D50*%
X168480000Y-166450000D03*
X168480000Y-169750000D03*
%TD*%
%TO.C,D36*%
X130380000Y-128350000D03*
X130380000Y-131650000D03*
%TD*%
%TO.C,D18*%
X334850000Y-147400000D03*
X334850000Y-150700000D03*
%TD*%
%TO.C,D12*%
X334850000Y-128350000D03*
X334850000Y-131650000D03*
%TD*%
%TO.C,D52*%
X206580000Y-166450000D03*
X206580000Y-169750000D03*
%TD*%
%TO.C,D31*%
X149430000Y-109300000D03*
X149430000Y-112600000D03*
%TD*%
%TO.C,D37*%
X149430000Y-128350000D03*
X149430000Y-131650000D03*
%TD*%
%TO.C,D2*%
X258650000Y-109300000D03*
X258650000Y-112600000D03*
%TD*%
%TO.C,D49*%
X149430000Y-166450000D03*
X149430000Y-169750000D03*
%TD*%
%TO.C,D38*%
X168480000Y-128350000D03*
X168480000Y-131650000D03*
%TD*%
%TO.C,D21*%
X277700000Y-166450000D03*
X277700000Y-169750000D03*
%TD*%
%TO.C,D30*%
X130380000Y-109300000D03*
X130380000Y-112600000D03*
%TD*%
%TO.C,D39*%
X187530000Y-128350000D03*
X187530000Y-131650000D03*
%TD*%
%TO.C,D11*%
X315800000Y-125825000D03*
X315800000Y-129125000D03*
%TD*%
%TO.C,D15*%
X277700000Y-147400000D03*
X277700000Y-150700000D03*
%TD*%
%TO.C,D33*%
X187530000Y-109300000D03*
X187530000Y-112600000D03*
%TD*%
%TO.C,D44*%
X168480000Y-147400000D03*
X168480000Y-150700000D03*
%TD*%
D11*
%TO.C,BT1*%
X358675000Y-120025000D03*
X358675000Y-145925000D03*
D12*
X358675000Y-132975000D03*
%TD*%
D10*
%TO.C,D53*%
X130380000Y-189945000D03*
X130380000Y-193245000D03*
%TD*%
%TO.C,D43*%
X149430000Y-147400000D03*
X149430000Y-150700000D03*
%TD*%
%TO.C,D4*%
X296750000Y-109300000D03*
X296750000Y-112600000D03*
%TD*%
%TO.C,D35*%
X111330000Y-125325000D03*
X111330000Y-128625000D03*
%TD*%
%TO.C,D29*%
X111330000Y-109300000D03*
X111330000Y-112600000D03*
%TD*%
%TO.C,D22*%
X296750000Y-166450000D03*
X296750000Y-169750000D03*
%TD*%
%TO.C,D6*%
X334850000Y-109300000D03*
X334850000Y-112600000D03*
%TD*%
%TO.C,D25*%
X296750000Y-189945000D03*
X296750000Y-193245000D03*
%TD*%
%TO.C,D10*%
X296750000Y-128350000D03*
X296750000Y-131650000D03*
%TD*%
%TO.C,D45*%
X187530000Y-147400000D03*
X187530000Y-150700000D03*
%TD*%
%TO.C,D42*%
X130380000Y-147400000D03*
X130380000Y-150700000D03*
%TD*%
%TO.C,D34*%
X206580000Y-109300000D03*
X206580000Y-112600000D03*
%TD*%
%TO.C,D16*%
X296750000Y-147400000D03*
X296750000Y-150700000D03*
%TD*%
%TO.C,D1*%
X239600000Y-109300000D03*
X239600000Y-112600000D03*
%TD*%
%TO.C,D20*%
X258650000Y-166450000D03*
X258650000Y-169750000D03*
%TD*%
%TO.C,D14*%
X258650000Y-147400000D03*
X258650000Y-150700000D03*
%TD*%
%TO.C,D51*%
X187530000Y-166450000D03*
X187530000Y-169750000D03*
%TD*%
%TO.C,D40*%
X206580000Y-128350000D03*
X206580000Y-131650000D03*
%TD*%
%TO.C,D26*%
X315800000Y-189945000D03*
X315800000Y-193245000D03*
%TD*%
%TO.C,D24*%
X329850000Y-166450000D03*
X329850000Y-169750000D03*
%TD*%
%TO.C,D48*%
X130380000Y-166450000D03*
X130380000Y-169750000D03*
%TD*%
%TO.C,D19*%
X239600000Y-166450000D03*
X239600000Y-169750000D03*
%TD*%
%TO.C,D7*%
X239600000Y-128350000D03*
X239600000Y-131650000D03*
%TD*%
D11*
%TO.C,BT3*%
X71855000Y-120025000D03*
X71855000Y-145925000D03*
D12*
X71855000Y-132975000D03*
%TD*%
D10*
%TO.C,D54*%
X149430000Y-189945000D03*
X149430000Y-193245000D03*
%TD*%
%TO.C,D23*%
X315800000Y-166450000D03*
X315800000Y-169750000D03*
%TD*%
%TO.C,D32*%
X168480000Y-109300000D03*
X168480000Y-112600000D03*
%TD*%
%TO.C,D9*%
X277700000Y-128350000D03*
X277700000Y-131650000D03*
%TD*%
%TO.C,D3*%
X277700000Y-109300000D03*
X277700000Y-112600000D03*
%TD*%
%TO.C,D8*%
X258650000Y-128350000D03*
X258650000Y-131650000D03*
%TD*%
%TO.C,D46*%
X206580000Y-147400000D03*
X206580000Y-150700000D03*
%TD*%
%TO.C,D47*%
X111330000Y-166450000D03*
X111330000Y-169750000D03*
%TD*%
%TO.C,D17*%
X315800000Y-147400000D03*
X315800000Y-150700000D03*
%TD*%
%TO.C,D5*%
X315800000Y-109300000D03*
X315800000Y-112600000D03*
%TD*%
%TO.C,D13*%
X239600000Y-147400000D03*
X239600000Y-150700000D03*
%TD*%
M02*
