%TF.GenerationSoftware,KiCad,Pcbnew,7.0.9*%
%TF.CreationDate,2024-05-10T01:24:36+09:00*%
%TF.ProjectId,L4,4c342e6b-6963-4616-945f-706362585858,rev?*%
%TF.SameCoordinates,Original*%
%TF.FileFunction,Profile,NP*%
%FSLAX46Y46*%
G04 Gerber Fmt 4.6, Leading zero omitted, Abs format (unit mm)*
G04 Created by KiCad (PCBNEW 7.0.9) date 2024-05-10 01:24:36*
%MOMM*%
%LPD*%
G01*
G04 APERTURE LIST*
%TA.AperFunction,Profile*%
%ADD10C,0.100000*%
%TD*%
G04 APERTURE END LIST*
D10*
X149860000Y-194945000D02*
G75*
G03*
X151130000Y-193675000I0J1270000D01*
G01*
X367030000Y-96520000D02*
G75*
G03*
X365760000Y-95250000I-1270000J0D01*
G01*
X213360000Y-163195000D02*
G75*
G03*
X214630000Y-161925000I0J1270000D01*
G01*
X208280000Y-163195000D02*
X208280000Y-170180000D01*
X217170000Y-137795000D02*
G75*
G03*
X215900000Y-139065000I0J-1270000D01*
G01*
X336813043Y-175631991D02*
G75*
G03*
X337185000Y-174733949I-898243J898091D01*
G01*
X366658042Y-145786992D02*
G75*
G03*
X367030000Y-144888949I-898242J898092D01*
G01*
X207010000Y-171450000D02*
G75*
G03*
X208280000Y-170180000I0J1270000D01*
G01*
X337185000Y-96520000D02*
X337185000Y-103505000D01*
X214630000Y-104775000D02*
X214630000Y-106045000D01*
X367030000Y-144888949D02*
X367030000Y-96520000D01*
X81806051Y-163195000D02*
X93345000Y-163195000D01*
X208280000Y-128905000D02*
X208280000Y-137795000D01*
X85090000Y-96520000D02*
G75*
G03*
X83820000Y-95250000I-1270000J0D01*
G01*
X217170000Y-103505000D02*
G75*
G03*
X215900000Y-104775000I0J-1270000D01*
G01*
X223520000Y-95250000D02*
G75*
G03*
X222250000Y-96520000I0J-1270000D01*
G01*
X93345020Y-174733949D02*
G75*
G03*
X93716975Y-175631973I1269680J-151D01*
G01*
X317871975Y-194573025D02*
X336813026Y-175631974D01*
X85090000Y-96520000D02*
X85090000Y-103505000D01*
X213360000Y-163195000D02*
X208280000Y-163195000D01*
X346710000Y-95250000D02*
X365760000Y-95250000D01*
X223520000Y-95250000D02*
X335915000Y-95250000D01*
X217170000Y-128905000D02*
X222250000Y-128905000D01*
X214630000Y-161925000D02*
X214630000Y-160655000D01*
X222250000Y-137795000D02*
X217170000Y-137795000D01*
X63500000Y-144888949D02*
X63500000Y-96520000D01*
X337185000Y-163195000D02*
X348723949Y-163195000D01*
X208280000Y-96520000D02*
G75*
G03*
X207010000Y-95250000I-1270000J0D01*
G01*
X94615000Y-95250000D02*
G75*
G03*
X93345000Y-96520000I0J-1270000D01*
G01*
X279400000Y-193675000D02*
G75*
G03*
X280670000Y-194945000I1270000J0D01*
G01*
X213360000Y-128905000D02*
X208280000Y-128905000D01*
X214630000Y-126365000D02*
X215900000Y-126365000D01*
X217170000Y-163195000D02*
X222250000Y-163195000D01*
X215900000Y-161925000D02*
G75*
G03*
X217170000Y-163195000I1270000J0D01*
G01*
X345440000Y-103505000D02*
X345440000Y-96520000D01*
X93345000Y-103505000D02*
X93345000Y-96520000D01*
X80908050Y-162823002D02*
G75*
G03*
X81806051Y-163195000I898050J898002D01*
G01*
X222250000Y-103505000D02*
X222250000Y-96520000D01*
X63500020Y-144888949D02*
G75*
G03*
X63871976Y-145786974I1269680J-151D01*
G01*
X64770000Y-95250000D02*
X83820000Y-95250000D01*
X149860000Y-194945000D02*
X113556051Y-194945000D01*
X214630000Y-106045000D02*
X215900000Y-106045000D01*
X217170000Y-103505000D02*
X222250000Y-103505000D01*
X337185000Y-96520000D02*
G75*
G03*
X335915000Y-95250000I-1270000J0D01*
G01*
X222250000Y-163195000D02*
X222250000Y-170180000D01*
X215900000Y-106045000D02*
X215900000Y-104775000D01*
X223520000Y-171450000D02*
X279400000Y-171450000D01*
X337185000Y-174733949D02*
X337185000Y-163195000D01*
X346710000Y-95250000D02*
G75*
G03*
X345440000Y-96520000I0J-1270000D01*
G01*
X215900000Y-140335000D02*
X215900000Y-139065000D01*
X215900000Y-126365000D02*
X215900000Y-127635000D01*
X214630000Y-139065000D02*
G75*
G03*
X213360000Y-137795000I-1270000J0D01*
G01*
X366658025Y-145786975D02*
X349621974Y-162823026D01*
X112658049Y-194573001D02*
G75*
G03*
X113556051Y-194945000I898051J898001D01*
G01*
X208280000Y-137795000D02*
X213360000Y-137795000D01*
X213360000Y-128905000D02*
G75*
G03*
X214630000Y-127635000I0J1270000D01*
G01*
X208280000Y-96520000D02*
X208280000Y-103505000D01*
X316973949Y-194945034D02*
G75*
G03*
X317871975Y-194573025I-49J1270034D01*
G01*
X93345000Y-174733949D02*
X93345000Y-163195000D01*
X337185000Y-103505000D02*
X345440000Y-103505000D01*
X222250000Y-128905000D02*
X222250000Y-137795000D01*
X151130000Y-171450000D02*
X151130000Y-193675000D01*
X214630000Y-139065000D02*
X214630000Y-140335000D01*
X214630000Y-127635000D02*
X214630000Y-126365000D01*
X208280000Y-103505000D02*
X213360000Y-103505000D01*
X222250000Y-170180000D02*
G75*
G03*
X223520000Y-171450000I1270000J0D01*
G01*
X214630000Y-140335000D02*
X215900000Y-140335000D01*
X85090000Y-103505000D02*
X93345000Y-103505000D01*
X214630000Y-160655000D02*
X215900000Y-160655000D01*
X215900000Y-160655000D02*
X215900000Y-161925000D01*
X64770000Y-95250000D02*
G75*
G03*
X63500000Y-96520000I0J-1270000D01*
G01*
X112658025Y-194573025D02*
X93716974Y-175631974D01*
X207010000Y-171450000D02*
X151130000Y-171450000D01*
X214630000Y-104775000D02*
G75*
G03*
X213360000Y-103505000I-1270000J0D01*
G01*
X280670000Y-194945000D02*
X316973949Y-194945000D01*
X215900000Y-127635000D02*
G75*
G03*
X217170000Y-128905000I1270000J0D01*
G01*
X279400000Y-171450000D02*
X279400000Y-193675000D01*
X63871975Y-145786975D02*
X80908026Y-162823026D01*
X94615000Y-95250000D02*
X207010000Y-95250000D01*
X348723949Y-163194980D02*
G75*
G03*
X349621973Y-162823025I151J1269680D01*
G01*
M02*
