%TF.GenerationSoftware,KiCad,Pcbnew,7.0.9*%
%TF.CreationDate,2024-05-10T01:24:36+09:00*%
%TF.ProjectId,L4,4c342e6b-6963-4616-945f-706362585858,rev?*%
%TF.SameCoordinates,Original*%
%TF.FileFunction,Legend,Top*%
%TF.FilePolarity,Positive*%
%FSLAX46Y46*%
G04 Gerber Fmt 4.6, Leading zero omitted, Abs format (unit mm)*
G04 Created by KiCad (PCBNEW 7.0.9) date 2024-05-10 01:24:36*
%MOMM*%
%LPD*%
G01*
G04 APERTURE LIST*
%ADD10C,0.229500*%
%ADD11C,0.153000*%
%ADD12C,0.120000*%
G04 APERTURE END LIST*
D10*
X334449425Y-175742826D02*
X333944349Y-176247902D01*
X333944349Y-176247902D02*
X332883689Y-175187242D01*
X108737173Y-188399425D02*
X108232097Y-187894349D01*
X108232097Y-187894349D02*
X109292757Y-186833689D01*
X96838188Y-176298410D02*
X96737173Y-176298410D01*
X96737173Y-176298410D02*
X96535143Y-176197395D01*
X96535143Y-176197395D02*
X96434127Y-176096379D01*
X96434127Y-176096379D02*
X96333112Y-175894349D01*
X96333112Y-175894349D02*
X96333112Y-175692318D01*
X96333112Y-175692318D02*
X96383620Y-175540795D01*
X96383620Y-175540795D02*
X96535143Y-175288257D01*
X96535143Y-175288257D02*
X96686665Y-175136734D01*
X96686665Y-175136734D02*
X96939204Y-174985212D01*
X96939204Y-174985212D02*
X97090726Y-174934704D01*
X97090726Y-174934704D02*
X97292757Y-174934704D01*
X97292757Y-174934704D02*
X97494787Y-175035719D01*
X97494787Y-175035719D02*
X97595803Y-175136734D01*
X97595803Y-175136734D02*
X97696818Y-175338765D01*
X97696818Y-175338765D02*
X97696818Y-175439780D01*
X322348410Y-187641811D02*
X322348410Y-187742826D01*
X322348410Y-187742826D02*
X322247395Y-187944856D01*
X322247395Y-187944856D02*
X322146379Y-188045872D01*
X322146379Y-188045872D02*
X321944349Y-188146887D01*
X321944349Y-188146887D02*
X321742318Y-188146887D01*
X321742318Y-188146887D02*
X321590795Y-188096379D01*
X321590795Y-188096379D02*
X321338257Y-187944856D01*
X321338257Y-187944856D02*
X321186734Y-187793334D01*
X321186734Y-187793334D02*
X321035212Y-187540795D01*
X321035212Y-187540795D02*
X320984704Y-187389273D01*
X320984704Y-187389273D02*
X320984704Y-187187242D01*
X320984704Y-187187242D02*
X321085719Y-186985212D01*
X321085719Y-186985212D02*
X321186734Y-186884196D01*
X321186734Y-186884196D02*
X321388765Y-186783181D01*
X321388765Y-186783181D02*
X321489780Y-186783181D01*
D11*
X322657318Y-180011394D02*
X322724662Y-180146081D01*
X322724662Y-180146081D02*
X322893021Y-180314439D01*
X322893021Y-180314439D02*
X322994036Y-180348111D01*
X322994036Y-180348111D02*
X323061379Y-180348111D01*
X323061379Y-180348111D02*
X323162395Y-180314439D01*
X323162395Y-180314439D02*
X323229738Y-180247096D01*
X323229738Y-180247096D02*
X323263410Y-180146081D01*
X323263410Y-180146081D02*
X323263410Y-180078737D01*
X323263410Y-180078737D02*
X323229738Y-179977722D01*
X323229738Y-179977722D02*
X323128723Y-179809363D01*
X323128723Y-179809363D02*
X323095051Y-179708348D01*
X323095051Y-179708348D02*
X323095051Y-179641004D01*
X323095051Y-179641004D02*
X323128723Y-179539989D01*
X323128723Y-179539989D02*
X323196066Y-179472645D01*
X323196066Y-179472645D02*
X323297082Y-179438974D01*
X323297082Y-179438974D02*
X323364425Y-179438974D01*
X323364425Y-179438974D02*
X323465440Y-179472645D01*
X323465440Y-179472645D02*
X323633799Y-179641004D01*
X323633799Y-179641004D02*
X323701143Y-179775691D01*
X323970517Y-179977722D02*
X323431769Y-180853187D01*
X323431769Y-180853187D02*
X324071532Y-180482798D01*
X324071532Y-180482798D02*
X323701143Y-181122561D01*
X323701143Y-181122561D02*
X324576608Y-180583813D01*
X324744967Y-180886859D02*
X324812310Y-180886859D01*
X324812310Y-180886859D02*
X324913326Y-180920531D01*
X324913326Y-180920531D02*
X325081684Y-181088889D01*
X325081684Y-181088889D02*
X325115356Y-181189905D01*
X325115356Y-181189905D02*
X325115356Y-181257248D01*
X325115356Y-181257248D02*
X325081684Y-181358264D01*
X325081684Y-181358264D02*
X325014341Y-181425607D01*
X325014341Y-181425607D02*
X324879654Y-181492951D01*
X324879654Y-181492951D02*
X324071532Y-181492951D01*
X324071532Y-181492951D02*
X324509265Y-181930683D01*
X325452074Y-181459279D02*
X325923478Y-181930683D01*
X325923478Y-181930683D02*
X324913326Y-182334744D01*
X104468605Y-176607318D02*
X104333918Y-176674662D01*
X104333918Y-176674662D02*
X104165560Y-176843021D01*
X104165560Y-176843021D02*
X104131888Y-176944036D01*
X104131888Y-176944036D02*
X104131888Y-177011379D01*
X104131888Y-177011379D02*
X104165560Y-177112395D01*
X104165560Y-177112395D02*
X104232903Y-177179738D01*
X104232903Y-177179738D02*
X104333918Y-177213410D01*
X104333918Y-177213410D02*
X104401262Y-177213410D01*
X104401262Y-177213410D02*
X104502277Y-177179738D01*
X104502277Y-177179738D02*
X104670636Y-177078723D01*
X104670636Y-177078723D02*
X104771651Y-177045051D01*
X104771651Y-177045051D02*
X104838995Y-177045051D01*
X104838995Y-177045051D02*
X104940010Y-177078723D01*
X104940010Y-177078723D02*
X105007354Y-177146066D01*
X105007354Y-177146066D02*
X105041025Y-177247082D01*
X105041025Y-177247082D02*
X105041025Y-177314425D01*
X105041025Y-177314425D02*
X105007354Y-177415440D01*
X105007354Y-177415440D02*
X104838995Y-177583799D01*
X104838995Y-177583799D02*
X104704308Y-177651143D01*
X104502277Y-177920517D02*
X103626812Y-177381769D01*
X103626812Y-177381769D02*
X103997201Y-178021532D01*
X103997201Y-178021532D02*
X103357438Y-177651143D01*
X103357438Y-177651143D02*
X103896186Y-178526608D01*
X103290094Y-179132700D02*
X103626812Y-178795982D01*
X103626812Y-178795982D02*
X103323766Y-178425593D01*
X103323766Y-178425593D02*
X103323766Y-178492936D01*
X103323766Y-178492936D02*
X103290094Y-178593952D01*
X103290094Y-178593952D02*
X103121735Y-178762310D01*
X103121735Y-178762310D02*
X103020720Y-178795982D01*
X103020720Y-178795982D02*
X102953377Y-178795982D01*
X102953377Y-178795982D02*
X102852361Y-178762310D01*
X102852361Y-178762310D02*
X102684003Y-178593952D01*
X102684003Y-178593952D02*
X102650331Y-178492936D01*
X102650331Y-178492936D02*
X102650331Y-178425593D01*
X102650331Y-178425593D02*
X102684003Y-178324578D01*
X102684003Y-178324578D02*
X102852361Y-178156219D01*
X102852361Y-178156219D02*
X102953377Y-178122547D01*
X102953377Y-178122547D02*
X103020720Y-178122547D01*
X102414629Y-179536761D02*
X101943224Y-179065356D01*
X102852361Y-179637776D02*
X102515644Y-178964341D01*
X102515644Y-178964341D02*
X102077911Y-179402074D01*
X349815853Y-133760714D02*
X349863472Y-133617857D01*
X349863472Y-133617857D02*
X349911091Y-133570238D01*
X349911091Y-133570238D02*
X350006329Y-133522619D01*
X350006329Y-133522619D02*
X350149186Y-133522619D01*
X350149186Y-133522619D02*
X350244424Y-133570238D01*
X350244424Y-133570238D02*
X350292044Y-133617857D01*
X350292044Y-133617857D02*
X350339663Y-133713095D01*
X350339663Y-133713095D02*
X350339663Y-134094047D01*
X350339663Y-134094047D02*
X349339663Y-134094047D01*
X349339663Y-134094047D02*
X349339663Y-133760714D01*
X349339663Y-133760714D02*
X349387282Y-133665476D01*
X349387282Y-133665476D02*
X349434901Y-133617857D01*
X349434901Y-133617857D02*
X349530139Y-133570238D01*
X349530139Y-133570238D02*
X349625377Y-133570238D01*
X349625377Y-133570238D02*
X349720615Y-133617857D01*
X349720615Y-133617857D02*
X349768234Y-133665476D01*
X349768234Y-133665476D02*
X349815853Y-133760714D01*
X349815853Y-133760714D02*
X349815853Y-134094047D01*
X349339663Y-133236904D02*
X349339663Y-132665476D01*
X350339663Y-132951190D02*
X349339663Y-132951190D01*
X349434901Y-132379761D02*
X349387282Y-132332142D01*
X349387282Y-132332142D02*
X349339663Y-132236904D01*
X349339663Y-132236904D02*
X349339663Y-131998809D01*
X349339663Y-131998809D02*
X349387282Y-131903571D01*
X349387282Y-131903571D02*
X349434901Y-131855952D01*
X349434901Y-131855952D02*
X349530139Y-131808333D01*
X349530139Y-131808333D02*
X349625377Y-131808333D01*
X349625377Y-131808333D02*
X349768234Y-131855952D01*
X349768234Y-131855952D02*
X350339663Y-132427380D01*
X350339663Y-132427380D02*
X350339663Y-131808333D01*
X80575853Y-133760714D02*
X80623472Y-133617857D01*
X80623472Y-133617857D02*
X80671091Y-133570238D01*
X80671091Y-133570238D02*
X80766329Y-133522619D01*
X80766329Y-133522619D02*
X80909186Y-133522619D01*
X80909186Y-133522619D02*
X81004424Y-133570238D01*
X81004424Y-133570238D02*
X81052044Y-133617857D01*
X81052044Y-133617857D02*
X81099663Y-133713095D01*
X81099663Y-133713095D02*
X81099663Y-134094047D01*
X81099663Y-134094047D02*
X80099663Y-134094047D01*
X80099663Y-134094047D02*
X80099663Y-133760714D01*
X80099663Y-133760714D02*
X80147282Y-133665476D01*
X80147282Y-133665476D02*
X80194901Y-133617857D01*
X80194901Y-133617857D02*
X80290139Y-133570238D01*
X80290139Y-133570238D02*
X80385377Y-133570238D01*
X80385377Y-133570238D02*
X80480615Y-133617857D01*
X80480615Y-133617857D02*
X80528234Y-133665476D01*
X80528234Y-133665476D02*
X80575853Y-133760714D01*
X80575853Y-133760714D02*
X80575853Y-134094047D01*
X80099663Y-133236904D02*
X80099663Y-132665476D01*
X81099663Y-132951190D02*
X80099663Y-132951190D01*
X80432996Y-131903571D02*
X81099663Y-131903571D01*
X80052044Y-132141666D02*
X80766329Y-132379761D01*
X80766329Y-132379761D02*
X80766329Y-131760714D01*
X73093095Y-104486663D02*
X73093095Y-105296186D01*
X73093095Y-105296186D02*
X73140714Y-105391424D01*
X73140714Y-105391424D02*
X73188333Y-105439044D01*
X73188333Y-105439044D02*
X73283571Y-105486663D01*
X73283571Y-105486663D02*
X73474047Y-105486663D01*
X73474047Y-105486663D02*
X73569285Y-105439044D01*
X73569285Y-105439044D02*
X73616904Y-105391424D01*
X73616904Y-105391424D02*
X73664523Y-105296186D01*
X73664523Y-105296186D02*
X73664523Y-104486663D01*
X74093095Y-104581901D02*
X74140714Y-104534282D01*
X74140714Y-104534282D02*
X74235952Y-104486663D01*
X74235952Y-104486663D02*
X74474047Y-104486663D01*
X74474047Y-104486663D02*
X74569285Y-104534282D01*
X74569285Y-104534282D02*
X74616904Y-104581901D01*
X74616904Y-104581901D02*
X74664523Y-104677139D01*
X74664523Y-104677139D02*
X74664523Y-104772377D01*
X74664523Y-104772377D02*
X74616904Y-104915234D01*
X74616904Y-104915234D02*
X74045476Y-105486663D01*
X74045476Y-105486663D02*
X74664523Y-105486663D01*
X355913095Y-104486663D02*
X355913095Y-105296186D01*
X355913095Y-105296186D02*
X355960714Y-105391424D01*
X355960714Y-105391424D02*
X356008333Y-105439044D01*
X356008333Y-105439044D02*
X356103571Y-105486663D01*
X356103571Y-105486663D02*
X356294047Y-105486663D01*
X356294047Y-105486663D02*
X356389285Y-105439044D01*
X356389285Y-105439044D02*
X356436904Y-105391424D01*
X356436904Y-105391424D02*
X356484523Y-105296186D01*
X356484523Y-105296186D02*
X356484523Y-104486663D01*
X357484523Y-105486663D02*
X356913095Y-105486663D01*
X357198809Y-105486663D02*
X357198809Y-104486663D01*
X357198809Y-104486663D02*
X357103571Y-104629520D01*
X357103571Y-104629520D02*
X357008333Y-104724758D01*
X357008333Y-104724758D02*
X356913095Y-104772377D01*
D12*
%TO.C,D27*%
X350675000Y-150115000D02*
X348675000Y-150115000D01*
X350675000Y-150115000D02*
X350675000Y-154125000D01*
X348675000Y-150115000D02*
X348675000Y-154125000D01*
%TO.C,D55*%
X81855000Y-150115000D02*
X79855000Y-150115000D01*
X81855000Y-150115000D02*
X81855000Y-154125000D01*
X79855000Y-150115000D02*
X79855000Y-154125000D01*
%TO.C,D28*%
X354675000Y-150115000D02*
X352675000Y-150115000D01*
X354675000Y-150115000D02*
X354675000Y-154125000D01*
X352675000Y-150115000D02*
X352675000Y-154125000D01*
%TO.C,Q2*%
X79855000Y-121135000D02*
X81655000Y-121135000D01*
X79855000Y-121135000D02*
X79055000Y-121135000D01*
X79855000Y-118015000D02*
X80655000Y-118015000D01*
X79855000Y-118015000D02*
X79055000Y-118015000D01*
%TO.C,C1*%
X349963748Y-144665000D02*
X351386252Y-144665000D01*
X349963748Y-146485000D02*
X351386252Y-146485000D01*
%TO.C,C2*%
X80566252Y-146485000D02*
X79143748Y-146485000D01*
X80566252Y-144665000D02*
X79143748Y-144665000D01*
%TO.C,D56*%
X77855000Y-150115000D02*
X75855000Y-150115000D01*
X77855000Y-150115000D02*
X77855000Y-154125000D01*
X75855000Y-150115000D02*
X75855000Y-154125000D01*
%TO.C,Q1*%
X350675000Y-118015000D02*
X348875000Y-118015000D01*
X350675000Y-118015000D02*
X351475000Y-118015000D01*
X350675000Y-121135000D02*
X349875000Y-121135000D01*
X350675000Y-121135000D02*
X351475000Y-121135000D01*
%TO.C,BT2*%
X361475000Y-117225000D02*
X361475000Y-122295000D01*
X355875000Y-117225000D02*
X361475000Y-117225000D01*
X355875000Y-117225000D02*
X355875000Y-122295000D01*
X361475000Y-122295000D02*
X364955000Y-122295000D01*
X355875000Y-122295000D02*
X354425000Y-122295000D01*
X354425000Y-122295000D02*
X348045000Y-129175000D01*
X348045000Y-136775000D02*
X348045000Y-129175000D01*
X361475000Y-143655000D02*
X365025000Y-143655000D01*
X355875000Y-143655000D02*
X354425000Y-143655000D01*
X355875000Y-143655000D02*
X355875000Y-148725000D01*
X354425000Y-143655000D02*
X348045000Y-136775000D01*
X361475000Y-148725000D02*
X361475000Y-143655000D01*
X355875000Y-148725000D02*
X361475000Y-148725000D01*
%TO.C,BT4*%
X69055000Y-148725000D02*
X69055000Y-143655000D01*
X74655000Y-148725000D02*
X69055000Y-148725000D01*
X74655000Y-148725000D02*
X74655000Y-143655000D01*
X69055000Y-143655000D02*
X65575000Y-143655000D01*
X74655000Y-143655000D02*
X76105000Y-143655000D01*
X76105000Y-143655000D02*
X82485000Y-136775000D01*
X82485000Y-129175000D02*
X82485000Y-136775000D01*
X69055000Y-122295000D02*
X65505000Y-122295000D01*
X74655000Y-122295000D02*
X76105000Y-122295000D01*
X74655000Y-122295000D02*
X74655000Y-117225000D01*
X76105000Y-122295000D02*
X82485000Y-129175000D01*
X69055000Y-117225000D02*
X69055000Y-122295000D01*
X74655000Y-117225000D02*
X69055000Y-117225000D01*
%TD*%
M02*
